G04 #@! TF.GenerationSoftware,KiCad,Pcbnew,(5.1.2)-1*
G04 #@! TF.CreationDate,2019-08-13T14:32:56+02:00*
G04 #@! TF.ProjectId,tinyRF24,74696e79-5246-4323-942e-6b696361645f,rev?*
G04 #@! TF.SameCoordinates,Original*
G04 #@! TF.FileFunction,Paste,Top*
G04 #@! TF.FilePolarity,Positive*
%FSLAX46Y46*%
G04 Gerber Fmt 4.6, Leading zero omitted, Abs format (unit mm)*
G04 Created by KiCad (PCBNEW (5.1.2)-1) date 2019-08-13 14:32:56*
%MOMM*%
%LPD*%
G04 APERTURE LIST*
%ADD10O,0.900000X2.500000*%
%ADD11O,2.500000X0.900000*%
%ADD12R,6.000000X6.000000*%
%ADD13R,2.400000X0.400000*%
%ADD14R,1.500000X2.000000*%
%ADD15R,3.800000X2.000000*%
%ADD16R,1.500000X1.300000*%
%ADD17R,1.500000X1.250000*%
%ADD18R,0.800000X0.900000*%
%ADD19R,0.900000X1.700000*%
%ADD20R,1.250000X1.500000*%
%ADD21R,1.300000X1.500000*%
%ADD22R,0.780000X0.780000*%
%ADD23R,0.300000X0.850000*%
%ADD24R,0.850000X0.300000*%
%ADD25R,2.000000X0.400000*%
G04 APERTURE END LIST*
D10*
X161460000Y-91550000D03*
X160190000Y-91550000D03*
X158920000Y-91550000D03*
X157650000Y-91550000D03*
X156380000Y-91550000D03*
X155110000Y-91550000D03*
X153840000Y-91550000D03*
X152570000Y-91550000D03*
X151300000Y-91550000D03*
X150030000Y-91550000D03*
X148760000Y-91550000D03*
X147490000Y-91550000D03*
X146220000Y-91550000D03*
X144950000Y-91550000D03*
D11*
X143460000Y-88265000D03*
X143460000Y-86995000D03*
X143460000Y-85725000D03*
X143460000Y-84455000D03*
X143460000Y-83185000D03*
X143460000Y-81915000D03*
X143460000Y-80645000D03*
X143460000Y-79375000D03*
X143460000Y-78105000D03*
X143460000Y-76835000D03*
D10*
X144950000Y-73550000D03*
X146220000Y-73550000D03*
X147490000Y-73550000D03*
X148760000Y-73550000D03*
X150030000Y-73550000D03*
X151300000Y-73550000D03*
X152570000Y-73550000D03*
X153840000Y-73550000D03*
X155110000Y-73550000D03*
X156380000Y-73550000D03*
X157650000Y-73550000D03*
X158920000Y-73550000D03*
X160190000Y-73550000D03*
X161460000Y-73550000D03*
D12*
X153760000Y-82250000D03*
D13*
X154940000Y-66430000D03*
X154940000Y-58030000D03*
X154940000Y-65730000D03*
X154940000Y-62230000D03*
X154940000Y-65030000D03*
X154940000Y-64330000D03*
X154940000Y-63630000D03*
X154940000Y-62930000D03*
X154940000Y-59430000D03*
X154940000Y-61530000D03*
X154940000Y-60830000D03*
X154940000Y-58730000D03*
X154940000Y-60130000D03*
D14*
X151370000Y-102210000D03*
X155970000Y-102210000D03*
X153670000Y-102210000D03*
D15*
X153670000Y-95910000D03*
D16*
X145970000Y-70358000D03*
X148670000Y-70358000D03*
X155600000Y-70916800D03*
X158300000Y-70916800D03*
D17*
X151110000Y-52578000D03*
X148610000Y-52578000D03*
D18*
X141605000Y-51451000D03*
X142555000Y-53451000D03*
X140655000Y-53451000D03*
D19*
X164416000Y-71374000D03*
X167816000Y-71374000D03*
D16*
X166450000Y-53086000D03*
X163750000Y-53086000D03*
D20*
X141732000Y-91460000D03*
X141732000Y-93960000D03*
D21*
X141732000Y-73406000D03*
X141732000Y-70706000D03*
D19*
X161720000Y-52578000D03*
X158320000Y-52578000D03*
D22*
X144130000Y-98410000D03*
X144130000Y-99710000D03*
X145430000Y-98410000D03*
X145430000Y-99710000D03*
D23*
X143530000Y-97110000D03*
X144030000Y-97110000D03*
X144530000Y-97110000D03*
X145030000Y-97110000D03*
X145530000Y-97110000D03*
X146030000Y-97110000D03*
D24*
X146730000Y-97810000D03*
X146730000Y-98310000D03*
X146730000Y-98810000D03*
X146730000Y-99310000D03*
X146730000Y-99810000D03*
X146730000Y-100310000D03*
D23*
X146030000Y-101010000D03*
X145530000Y-101010000D03*
X145030000Y-101010000D03*
X144530000Y-101010000D03*
X144030000Y-101010000D03*
X143530000Y-101010000D03*
D24*
X142830000Y-100310000D03*
X142830000Y-99810000D03*
X142830000Y-99310000D03*
X142830000Y-98810000D03*
X142830000Y-98310000D03*
X142830000Y-97810000D03*
D18*
X144338000Y-53451000D03*
X146238000Y-53451000D03*
X145288000Y-51451000D03*
D16*
X156036000Y-52578000D03*
X153336000Y-52578000D03*
D25*
X164188140Y-100223320D03*
X164188140Y-99590860D03*
X164180520Y-98945700D03*
X164193220Y-98287840D03*
X164193220Y-97637600D03*
M02*
