G04 #@! TF.GenerationSoftware,KiCad,Pcbnew,(5.1.2)-1*
G04 #@! TF.CreationDate,2019-08-13T14:32:56+02:00*
G04 #@! TF.ProjectId,tinyRF24,74696e79-5246-4323-942e-6b696361645f,rev?*
G04 #@! TF.SameCoordinates,Original*
G04 #@! TF.FileFunction,Legend,Bot*
G04 #@! TF.FilePolarity,Positive*
%FSLAX46Y46*%
G04 Gerber Fmt 4.6, Leading zero omitted, Abs format (unit mm)*
G04 Created by KiCad (PCBNEW (5.1.2)-1) date 2019-08-13 14:32:56*
%MOMM*%
%LPD*%
G04 APERTURE LIST*
%ADD10C,0.080000*%
%ADD11C,0.075000*%
%ADD12C,0.150000*%
%ADD13C,0.120000*%
G04 APERTURE END LIST*
D10*
X152000071Y-75797214D02*
X151340071Y-75797214D01*
X151340071Y-76237214D02*
X151340071Y-76362928D01*
X151371500Y-76425785D01*
X151434357Y-76488642D01*
X151560071Y-76520071D01*
X151780071Y-76520071D01*
X151905785Y-76488642D01*
X151968642Y-76425785D01*
X152000071Y-76362928D01*
X152000071Y-76237214D01*
X151968642Y-76174357D01*
X151905785Y-76111500D01*
X151780071Y-76080071D01*
X151560071Y-76080071D01*
X151434357Y-76111500D01*
X151371500Y-76174357D01*
X151340071Y-76237214D01*
X151340071Y-76740071D02*
X151340071Y-77148642D01*
X151591500Y-76928642D01*
X151591500Y-77022928D01*
X151622928Y-77085785D01*
X151654357Y-77117214D01*
X151717214Y-77148642D01*
X151874357Y-77148642D01*
X151937214Y-77117214D01*
X151968642Y-77085785D01*
X152000071Y-77022928D01*
X152000071Y-76834357D01*
X151968642Y-76771500D01*
X151937214Y-76740071D01*
X151340071Y-77745785D02*
X151340071Y-77431500D01*
X151654357Y-77400071D01*
X151622928Y-77431500D01*
X151591500Y-77494357D01*
X151591500Y-77651500D01*
X151622928Y-77714357D01*
X151654357Y-77745785D01*
X151717214Y-77777214D01*
X151874357Y-77777214D01*
X151937214Y-77745785D01*
X151968642Y-77714357D01*
X152000071Y-77651500D01*
X152000071Y-77494357D01*
X151968642Y-77431500D01*
X151937214Y-77400071D01*
X148317071Y-76048000D02*
X147657071Y-76048000D01*
X147657071Y-76488000D02*
X147657071Y-76613714D01*
X147688500Y-76676571D01*
X147751357Y-76739428D01*
X147877071Y-76770857D01*
X148097071Y-76770857D01*
X148222785Y-76739428D01*
X148285642Y-76676571D01*
X148317071Y-76613714D01*
X148317071Y-76488000D01*
X148285642Y-76425142D01*
X148222785Y-76362285D01*
X148097071Y-76330857D01*
X147877071Y-76330857D01*
X147751357Y-76362285D01*
X147688500Y-76425142D01*
X147657071Y-76488000D01*
X147719928Y-77022285D02*
X147688500Y-77053714D01*
X147657071Y-77116571D01*
X147657071Y-77273714D01*
X147688500Y-77336571D01*
X147719928Y-77368000D01*
X147782785Y-77399428D01*
X147845642Y-77399428D01*
X147939928Y-77368000D01*
X148317071Y-76990857D01*
X148317071Y-77399428D01*
X155995428Y-79705642D02*
X155901142Y-79737071D01*
X155744000Y-79737071D01*
X155681142Y-79705642D01*
X155649714Y-79674214D01*
X155618285Y-79611357D01*
X155618285Y-79548500D01*
X155649714Y-79485642D01*
X155681142Y-79454214D01*
X155744000Y-79422785D01*
X155869714Y-79391357D01*
X155932571Y-79359928D01*
X155964000Y-79328500D01*
X155995428Y-79265642D01*
X155995428Y-79202785D01*
X155964000Y-79139928D01*
X155932571Y-79108500D01*
X155869714Y-79077071D01*
X155712571Y-79077071D01*
X155618285Y-79108500D01*
X155429714Y-79077071D02*
X155209714Y-79737071D01*
X154989714Y-79077071D01*
X154769714Y-79737071D02*
X154769714Y-79077071D01*
X154518285Y-79077071D01*
X154455428Y-79108500D01*
X154424000Y-79139928D01*
X154392571Y-79202785D01*
X154392571Y-79297071D01*
X154424000Y-79359928D01*
X154455428Y-79391357D01*
X154518285Y-79422785D01*
X154769714Y-79422785D01*
X156104785Y-76371571D02*
X156104785Y-75711571D01*
X155664785Y-75711571D02*
X155539071Y-75711571D01*
X155476214Y-75743000D01*
X155413357Y-75805857D01*
X155381928Y-75931571D01*
X155381928Y-76151571D01*
X155413357Y-76277285D01*
X155476214Y-76340142D01*
X155539071Y-76371571D01*
X155664785Y-76371571D01*
X155727642Y-76340142D01*
X155790500Y-76277285D01*
X155821928Y-76151571D01*
X155821928Y-75931571D01*
X155790500Y-75805857D01*
X155727642Y-75743000D01*
X155664785Y-75711571D01*
X155161928Y-75711571D02*
X154753357Y-75711571D01*
X154973357Y-75963000D01*
X154879071Y-75963000D01*
X154816214Y-75994428D01*
X154784785Y-76025857D01*
X154753357Y-76088714D01*
X154753357Y-76245857D01*
X154784785Y-76308714D01*
X154816214Y-76340142D01*
X154879071Y-76371571D01*
X155067642Y-76371571D01*
X155130500Y-76340142D01*
X155161928Y-76308714D01*
X154187642Y-75931571D02*
X154187642Y-76371571D01*
X154344785Y-75680142D02*
X154501928Y-76151571D01*
X154093357Y-76151571D01*
X148213142Y-77870571D02*
X147836000Y-77870571D01*
X148024571Y-78530571D02*
X148024571Y-77870571D01*
X147678857Y-77870571D02*
X147238857Y-78530571D01*
X147238857Y-77870571D02*
X147678857Y-78530571D01*
X146987428Y-78530571D02*
X146987428Y-77870571D01*
X146830285Y-77870571D01*
X146736000Y-77902000D01*
X146673142Y-77964857D01*
X146641714Y-78027714D01*
X146610285Y-78153428D01*
X146610285Y-78247714D01*
X146641714Y-78373428D01*
X146673142Y-78436285D01*
X146736000Y-78499142D01*
X146830285Y-78530571D01*
X146987428Y-78530571D01*
X146358857Y-77933428D02*
X146327428Y-77902000D01*
X146264571Y-77870571D01*
X146107428Y-77870571D01*
X146044571Y-77902000D01*
X146013142Y-77933428D01*
X145981714Y-77996285D01*
X145981714Y-78059142D01*
X146013142Y-78153428D01*
X146390285Y-78530571D01*
X145981714Y-78530571D01*
X147820285Y-84055071D02*
X148040285Y-83740785D01*
X148197428Y-84055071D02*
X148197428Y-83395071D01*
X147946000Y-83395071D01*
X147883142Y-83426500D01*
X147851714Y-83457928D01*
X147820285Y-83520785D01*
X147820285Y-83615071D01*
X147851714Y-83677928D01*
X147883142Y-83709357D01*
X147946000Y-83740785D01*
X148197428Y-83740785D01*
X147600285Y-83395071D02*
X147160285Y-84055071D01*
X147160285Y-83395071D02*
X147600285Y-84055071D01*
X146908857Y-84055071D02*
X146908857Y-83395071D01*
X146751714Y-83395071D01*
X146657428Y-83426500D01*
X146594571Y-83489357D01*
X146563142Y-83552214D01*
X146531714Y-83677928D01*
X146531714Y-83772214D01*
X146563142Y-83897928D01*
X146594571Y-83960785D01*
X146657428Y-84023642D01*
X146751714Y-84055071D01*
X146908857Y-84055071D01*
X146280285Y-83457928D02*
X146248857Y-83426500D01*
X146186000Y-83395071D01*
X146028857Y-83395071D01*
X145966000Y-83426500D01*
X145934571Y-83457928D01*
X145903142Y-83520785D01*
X145903142Y-83583642D01*
X145934571Y-83677928D01*
X146311714Y-84055071D01*
X145903142Y-84055071D01*
D11*
X138592357Y-50344428D02*
X138449500Y-50944428D01*
X138335214Y-50515857D01*
X138220928Y-50944428D01*
X138078071Y-50344428D01*
X137763785Y-50944428D02*
X137820928Y-50915857D01*
X137849500Y-50887285D01*
X137878071Y-50830142D01*
X137878071Y-50658714D01*
X137849500Y-50601571D01*
X137820928Y-50573000D01*
X137763785Y-50544428D01*
X137678071Y-50544428D01*
X137620928Y-50573000D01*
X137592357Y-50601571D01*
X137563785Y-50658714D01*
X137563785Y-50830142D01*
X137592357Y-50887285D01*
X137620928Y-50915857D01*
X137678071Y-50944428D01*
X137763785Y-50944428D01*
X137306642Y-50944428D02*
X137306642Y-50544428D01*
X137306642Y-50658714D02*
X137278071Y-50601571D01*
X137249500Y-50573000D01*
X137192357Y-50544428D01*
X137135214Y-50544428D01*
X136849500Y-50944428D02*
X136906642Y-50915857D01*
X136935214Y-50858714D01*
X136935214Y-50344428D01*
X136363785Y-50944428D02*
X136363785Y-50344428D01*
X136363785Y-50915857D02*
X136420928Y-50944428D01*
X136535214Y-50944428D01*
X136592357Y-50915857D01*
X136620928Y-50887285D01*
X136649500Y-50830142D01*
X136649500Y-50658714D01*
X136620928Y-50601571D01*
X136592357Y-50573000D01*
X136535214Y-50544428D01*
X136420928Y-50544428D01*
X136363785Y-50573000D01*
X135706642Y-50544428D02*
X135478071Y-50544428D01*
X135620928Y-50944428D02*
X135620928Y-50430142D01*
X135592357Y-50373000D01*
X135535214Y-50344428D01*
X135478071Y-50344428D01*
X135278071Y-50944428D02*
X135278071Y-50544428D01*
X135278071Y-50344428D02*
X135306642Y-50373000D01*
X135278071Y-50401571D01*
X135249500Y-50373000D01*
X135278071Y-50344428D01*
X135278071Y-50401571D01*
X134992357Y-50944428D02*
X134992357Y-50544428D01*
X134992357Y-50658714D02*
X134963785Y-50601571D01*
X134935214Y-50573000D01*
X134878071Y-50544428D01*
X134820928Y-50544428D01*
X134649500Y-50915857D02*
X134592357Y-50944428D01*
X134478071Y-50944428D01*
X134420928Y-50915857D01*
X134392357Y-50858714D01*
X134392357Y-50830142D01*
X134420928Y-50773000D01*
X134478071Y-50744428D01*
X134563785Y-50744428D01*
X134620928Y-50715857D01*
X134649500Y-50658714D01*
X134649500Y-50630142D01*
X134620928Y-50573000D01*
X134563785Y-50544428D01*
X134478071Y-50544428D01*
X134420928Y-50573000D01*
X134220928Y-50544428D02*
X133992357Y-50544428D01*
X134135214Y-50344428D02*
X134135214Y-50858714D01*
X134106642Y-50915857D01*
X134049500Y-50944428D01*
X133992357Y-50944428D01*
X133049500Y-50944428D02*
X133335214Y-50944428D01*
X133335214Y-50344428D01*
X132763785Y-50944428D02*
X132820928Y-50915857D01*
X132849500Y-50887285D01*
X132878071Y-50830142D01*
X132878071Y-50658714D01*
X132849500Y-50601571D01*
X132820928Y-50573000D01*
X132763785Y-50544428D01*
X132678071Y-50544428D01*
X132620928Y-50573000D01*
X132592357Y-50601571D01*
X132563785Y-50658714D01*
X132563785Y-50830142D01*
X132592357Y-50887285D01*
X132620928Y-50915857D01*
X132678071Y-50944428D01*
X132763785Y-50944428D01*
X132306642Y-50944428D02*
X132306642Y-50544428D01*
X132306642Y-50658714D02*
X132278071Y-50601571D01*
X132249500Y-50573000D01*
X132192357Y-50544428D01*
X132135214Y-50544428D01*
X131678071Y-50944428D02*
X131678071Y-50630142D01*
X131706642Y-50573000D01*
X131763785Y-50544428D01*
X131878071Y-50544428D01*
X131935214Y-50573000D01*
X131678071Y-50915857D02*
X131735214Y-50944428D01*
X131878071Y-50944428D01*
X131935214Y-50915857D01*
X131963785Y-50858714D01*
X131963785Y-50801571D01*
X131935214Y-50744428D01*
X131878071Y-50715857D01*
X131735214Y-50715857D01*
X131678071Y-50687285D01*
X130735214Y-50630142D02*
X130649500Y-50658714D01*
X130620928Y-50687285D01*
X130592357Y-50744428D01*
X130592357Y-50830142D01*
X130620928Y-50887285D01*
X130649500Y-50915857D01*
X130706642Y-50944428D01*
X130935214Y-50944428D01*
X130935214Y-50344428D01*
X130735214Y-50344428D01*
X130678071Y-50373000D01*
X130649500Y-50401571D01*
X130620928Y-50458714D01*
X130620928Y-50515857D01*
X130649500Y-50573000D01*
X130678071Y-50601571D01*
X130735214Y-50630142D01*
X130935214Y-50630142D01*
X130078071Y-50544428D02*
X130078071Y-50944428D01*
X130335214Y-50544428D02*
X130335214Y-50858714D01*
X130306642Y-50915857D01*
X130249500Y-50944428D01*
X130163785Y-50944428D01*
X130106642Y-50915857D01*
X130078071Y-50887285D01*
X129820928Y-50915857D02*
X129763785Y-50944428D01*
X129649500Y-50944428D01*
X129592357Y-50915857D01*
X129563785Y-50858714D01*
X129563785Y-50830142D01*
X129592357Y-50773000D01*
X129649500Y-50744428D01*
X129735214Y-50744428D01*
X129792357Y-50715857D01*
X129820928Y-50658714D01*
X129820928Y-50630142D01*
X129792357Y-50573000D01*
X129735214Y-50544428D01*
X129649500Y-50544428D01*
X129592357Y-50573000D01*
X129306642Y-50944428D02*
X129306642Y-50544428D01*
X129306642Y-50344428D02*
X129335214Y-50373000D01*
X129306642Y-50401571D01*
X129278071Y-50373000D01*
X129306642Y-50344428D01*
X129306642Y-50401571D01*
X129020928Y-50544428D02*
X129020928Y-50944428D01*
X129020928Y-50601571D02*
X128992357Y-50573000D01*
X128935214Y-50544428D01*
X128849500Y-50544428D01*
X128792357Y-50573000D01*
X128763785Y-50630142D01*
X128763785Y-50944428D01*
X128249500Y-50915857D02*
X128306642Y-50944428D01*
X128420928Y-50944428D01*
X128478071Y-50915857D01*
X128506642Y-50858714D01*
X128506642Y-50630142D01*
X128478071Y-50573000D01*
X128420928Y-50544428D01*
X128306642Y-50544428D01*
X128249500Y-50573000D01*
X128220928Y-50630142D01*
X128220928Y-50687285D01*
X128506642Y-50744428D01*
X127992357Y-50915857D02*
X127935214Y-50944428D01*
X127820928Y-50944428D01*
X127763785Y-50915857D01*
X127735214Y-50858714D01*
X127735214Y-50830142D01*
X127763785Y-50773000D01*
X127820928Y-50744428D01*
X127906642Y-50744428D01*
X127963785Y-50715857D01*
X127992357Y-50658714D01*
X127992357Y-50630142D01*
X127963785Y-50573000D01*
X127906642Y-50544428D01*
X127820928Y-50544428D01*
X127763785Y-50573000D01*
X127506642Y-50915857D02*
X127449500Y-50944428D01*
X127335214Y-50944428D01*
X127278071Y-50915857D01*
X127249500Y-50858714D01*
X127249500Y-50830142D01*
X127278071Y-50773000D01*
X127335214Y-50744428D01*
X127420928Y-50744428D01*
X127478071Y-50715857D01*
X127506642Y-50658714D01*
X127506642Y-50630142D01*
X127478071Y-50573000D01*
X127420928Y-50544428D01*
X127335214Y-50544428D01*
X127278071Y-50573000D01*
X126192357Y-50887285D02*
X126220928Y-50915857D01*
X126306642Y-50944428D01*
X126363785Y-50944428D01*
X126449500Y-50915857D01*
X126506642Y-50858714D01*
X126535214Y-50801571D01*
X126563785Y-50687285D01*
X126563785Y-50601571D01*
X126535214Y-50487285D01*
X126506642Y-50430142D01*
X126449500Y-50373000D01*
X126363785Y-50344428D01*
X126306642Y-50344428D01*
X126220928Y-50373000D01*
X126192357Y-50401571D01*
X125678071Y-50944428D02*
X125678071Y-50630142D01*
X125706642Y-50573000D01*
X125763785Y-50544428D01*
X125878071Y-50544428D01*
X125935214Y-50573000D01*
X125678071Y-50915857D02*
X125735214Y-50944428D01*
X125878071Y-50944428D01*
X125935214Y-50915857D01*
X125963785Y-50858714D01*
X125963785Y-50801571D01*
X125935214Y-50744428D01*
X125878071Y-50715857D01*
X125735214Y-50715857D01*
X125678071Y-50687285D01*
X125392357Y-50944428D02*
X125392357Y-50544428D01*
X125392357Y-50658714D02*
X125363785Y-50601571D01*
X125335214Y-50573000D01*
X125278071Y-50544428D01*
X125220928Y-50544428D01*
X124763785Y-50944428D02*
X124763785Y-50344428D01*
X124763785Y-50915857D02*
X124820928Y-50944428D01*
X124935214Y-50944428D01*
X124992357Y-50915857D01*
X125020928Y-50887285D01*
X125049500Y-50830142D01*
X125049500Y-50658714D01*
X125020928Y-50601571D01*
X124992357Y-50573000D01*
X124935214Y-50544428D01*
X124820928Y-50544428D01*
X124763785Y-50573000D01*
X123849500Y-51173000D02*
X123878071Y-51144428D01*
X123935214Y-51058714D01*
X123963785Y-51001571D01*
X123992357Y-50915857D01*
X124020928Y-50773000D01*
X124020928Y-50658714D01*
X123992357Y-50515857D01*
X123963785Y-50430142D01*
X123935214Y-50373000D01*
X123878071Y-50287285D01*
X123849500Y-50258714D01*
X123278071Y-50887285D02*
X123306642Y-50915857D01*
X123392357Y-50944428D01*
X123449500Y-50944428D01*
X123535214Y-50915857D01*
X123592357Y-50858714D01*
X123620928Y-50801571D01*
X123649500Y-50687285D01*
X123649500Y-50601571D01*
X123620928Y-50487285D01*
X123592357Y-50430142D01*
X123535214Y-50373000D01*
X123449500Y-50344428D01*
X123392357Y-50344428D01*
X123306642Y-50373000D01*
X123278071Y-50401571D01*
X123078071Y-51173000D02*
X123049500Y-51144428D01*
X122992357Y-51058714D01*
X122963785Y-51001571D01*
X122935214Y-50915857D01*
X122906642Y-50773000D01*
X122906642Y-50658714D01*
X122935214Y-50515857D01*
X122963785Y-50430142D01*
X122992357Y-50373000D01*
X123049500Y-50287285D01*
X123078071Y-50258714D01*
X122192357Y-50401571D02*
X122163785Y-50373000D01*
X122106642Y-50344428D01*
X121963785Y-50344428D01*
X121906642Y-50373000D01*
X121878071Y-50401571D01*
X121849500Y-50458714D01*
X121849500Y-50515857D01*
X121878071Y-50601571D01*
X122220928Y-50944428D01*
X121849500Y-50944428D01*
X121478071Y-50344428D02*
X121420928Y-50344428D01*
X121363785Y-50373000D01*
X121335214Y-50401571D01*
X121306642Y-50458714D01*
X121278071Y-50573000D01*
X121278071Y-50715857D01*
X121306642Y-50830142D01*
X121335214Y-50887285D01*
X121363785Y-50915857D01*
X121420928Y-50944428D01*
X121478071Y-50944428D01*
X121535214Y-50915857D01*
X121563785Y-50887285D01*
X121592357Y-50830142D01*
X121620928Y-50715857D01*
X121620928Y-50573000D01*
X121592357Y-50458714D01*
X121563785Y-50401571D01*
X121535214Y-50373000D01*
X121478071Y-50344428D01*
X120706642Y-50944428D02*
X121049500Y-50944428D01*
X120878071Y-50944428D02*
X120878071Y-50344428D01*
X120935214Y-50430142D01*
X120992357Y-50487285D01*
X121049500Y-50515857D01*
X120420928Y-50944428D02*
X120306642Y-50944428D01*
X120249500Y-50915857D01*
X120220928Y-50887285D01*
X120163785Y-50801571D01*
X120135214Y-50687285D01*
X120135214Y-50458714D01*
X120163785Y-50401571D01*
X120192357Y-50373000D01*
X120249500Y-50344428D01*
X120363785Y-50344428D01*
X120420928Y-50373000D01*
X120449500Y-50401571D01*
X120478071Y-50458714D01*
X120478071Y-50601571D01*
X120449500Y-50658714D01*
X120420928Y-50687285D01*
X120363785Y-50715857D01*
X120249500Y-50715857D01*
X120192357Y-50687285D01*
X120163785Y-50658714D01*
X120135214Y-50601571D01*
X91549285Y-66346428D02*
X91177857Y-66346428D01*
X91377857Y-66575000D01*
X91292142Y-66575000D01*
X91235000Y-66603571D01*
X91206428Y-66632142D01*
X91177857Y-66689285D01*
X91177857Y-66832142D01*
X91206428Y-66889285D01*
X91235000Y-66917857D01*
X91292142Y-66946428D01*
X91463571Y-66946428D01*
X91520714Y-66917857D01*
X91549285Y-66889285D01*
X90920714Y-66889285D02*
X90892142Y-66917857D01*
X90920714Y-66946428D01*
X90949285Y-66917857D01*
X90920714Y-66889285D01*
X90920714Y-66946428D01*
X90692142Y-66346428D02*
X90292142Y-66346428D01*
X90549285Y-66946428D01*
X90120714Y-66546428D02*
X89977857Y-66946428D01*
X89835000Y-66546428D01*
X88863571Y-66946428D02*
X89149285Y-66946428D01*
X89149285Y-66346428D01*
X88663571Y-66946428D02*
X88663571Y-66546428D01*
X88663571Y-66346428D02*
X88692142Y-66375000D01*
X88663571Y-66403571D01*
X88635000Y-66375000D01*
X88663571Y-66346428D01*
X88663571Y-66403571D01*
X88377857Y-66546428D02*
X88377857Y-67146428D01*
X88377857Y-66575000D02*
X88320714Y-66546428D01*
X88206428Y-66546428D01*
X88149285Y-66575000D01*
X88120714Y-66603571D01*
X88092142Y-66660714D01*
X88092142Y-66832142D01*
X88120714Y-66889285D01*
X88149285Y-66917857D01*
X88206428Y-66946428D01*
X88320714Y-66946428D01*
X88377857Y-66917857D01*
X87749285Y-66946428D02*
X87806428Y-66917857D01*
X87835000Y-66889285D01*
X87863571Y-66832142D01*
X87863571Y-66660714D01*
X87835000Y-66603571D01*
X87806428Y-66575000D01*
X87749285Y-66546428D01*
X87663571Y-66546428D01*
X87606428Y-66575000D01*
X87577857Y-66603571D01*
X87549285Y-66660714D01*
X87549285Y-66832142D01*
X87577857Y-66889285D01*
X87606428Y-66917857D01*
X87663571Y-66946428D01*
X87749285Y-66946428D01*
D12*
X85953571Y-76877857D02*
X85496428Y-76877857D01*
X85953571Y-66717857D02*
X85496428Y-66717857D01*
X85725000Y-66946428D02*
X85725000Y-66489285D01*
D13*
X144180000Y-60189000D02*
X145380000Y-60189000D01*
X145380000Y-58429000D02*
X144180000Y-58429000D01*
X104590000Y-80610000D02*
X105790000Y-80610000D01*
X105790000Y-78850000D02*
X104590000Y-78850000D01*
D12*
X120340000Y-94230000D02*
G75*
G03X120340000Y-94230000I-500000J0D01*
G01*
X104840000Y-97730000D02*
X104840000Y-81730000D01*
X120840000Y-97730000D02*
X120840000Y-81730000D01*
D13*
X111487000Y-80458000D02*
X110487000Y-80458000D01*
X110487000Y-78758000D02*
X111487000Y-78758000D01*
X102090000Y-81880000D02*
X103090000Y-81880000D01*
X103090000Y-83580000D02*
X102090000Y-83580000D01*
X150460000Y-60207000D02*
X149260000Y-60207000D01*
X149260000Y-61967000D02*
X150460000Y-61967000D01*
X110224000Y-76874000D02*
X111224000Y-76874000D01*
X111224000Y-78574000D02*
X110224000Y-78574000D01*
X145153000Y-63969000D02*
X144153000Y-63969000D01*
X144153000Y-62269000D02*
X145153000Y-62269000D01*
X145153000Y-65874000D02*
X144153000Y-65874000D01*
X144153000Y-64174000D02*
X145153000Y-64174000D01*
X149213000Y-64301000D02*
X150213000Y-64301000D01*
X150213000Y-66001000D02*
X149213000Y-66001000D01*
X150253000Y-63969000D02*
X149253000Y-63969000D01*
X149253000Y-62269000D02*
X150253000Y-62269000D01*
X144153000Y-60364000D02*
X145153000Y-60364000D01*
X145153000Y-62064000D02*
X144153000Y-62064000D01*
X150460000Y-58302000D02*
X149260000Y-58302000D01*
X149260000Y-60062000D02*
X150460000Y-60062000D01*
X136235000Y-67580000D02*
X132335000Y-67580000D01*
X136235000Y-69580000D02*
X132335000Y-69580000D01*
X136235000Y-67580000D02*
X136235000Y-69580000D01*
X88445000Y-69980000D02*
X85545000Y-69980000D01*
X94645000Y-69430000D02*
X94645000Y-74080000D01*
X88445000Y-74805000D02*
X88445000Y-73530000D01*
X86845000Y-74805000D02*
X88445000Y-74805000D01*
X86845000Y-75805000D02*
X86845000Y-74805000D01*
X91070000Y-75805000D02*
X86845000Y-75805000D01*
X86845000Y-67705000D02*
X91070000Y-67705000D01*
X86845000Y-68705000D02*
X86845000Y-67705000D01*
X88445000Y-68705000D02*
X86845000Y-68705000D01*
X88445000Y-69980000D02*
X88445000Y-68705000D01*
X146186000Y-80362500D02*
X146186000Y-81562500D01*
X147946000Y-81562500D02*
X147946000Y-80362500D01*
X155810500Y-78224000D02*
X155810500Y-77224000D01*
X154450500Y-77224000D02*
X154450500Y-78224000D01*
X150360000Y-76028000D02*
X149360000Y-76028000D01*
X149360000Y-77388000D02*
X150360000Y-77388000D01*
D12*
X134723095Y-67032380D02*
X134723095Y-66032380D01*
X134485000Y-66032380D01*
X134342142Y-66080000D01*
X134246904Y-66175238D01*
X134199285Y-66270476D01*
X134151666Y-66460952D01*
X134151666Y-66603809D01*
X134199285Y-66794285D01*
X134246904Y-66889523D01*
X134342142Y-66984761D01*
X134485000Y-67032380D01*
X134723095Y-67032380D01*
X133818333Y-66032380D02*
X133199285Y-66032380D01*
X133532619Y-66413333D01*
X133389761Y-66413333D01*
X133294523Y-66460952D01*
X133246904Y-66508571D01*
X133199285Y-66603809D01*
X133199285Y-66841904D01*
X133246904Y-66937142D01*
X133294523Y-66984761D01*
X133389761Y-67032380D01*
X133675476Y-67032380D01*
X133770714Y-66984761D01*
X133818333Y-66937142D01*
M02*
