M48
; DRILL file {KiCad (5.1.2)-1} date 13/08/2019 14:33:00
; FORMAT={3:3/ absolute / metric / suppress leading zeros}
; #@! TF.CreationDate,2019-08-13T14:33:00+02:00
; #@! TF.GenerationSoftware,Kicad,Pcbnew,(5.1.2)-1
; #@! TF.FileFunction,Plated,1,2,PTH
FMAT,2
METRIC,TZ
T1C0.300
T2C0.400
T3C0.500
T4C0.550
T5C0.762
%
G90
G05
T1
X85840Y-82730
X85840Y-84730
X85840Y-86730
X85840Y-88730
X85840Y-90730
X85840Y-92730
X85840Y-94730
X85840Y-96730
X85840Y-98730
X91840Y-84730
X91840Y-86730
X91840Y-88730
X91840Y-90730
X91840Y-92730
X91840Y-94730
X91840Y-96730
X91840Y-98730
X91840Y-100730
T2
X106113Y-99184
X107840Y-85693
X110695Y-78046
X110952Y-80014
X120905Y-97436
X135635Y-68580
X136144Y-70866
X137043Y-71882
X137160Y-99822
X138059Y-92710
X138176Y-78994
X138684Y-93726
X139583Y-72898
X139700Y-68580
X140208Y-76454
X140208Y-92202
X140655Y-60645
X140716Y-95735
X141107Y-76962
X141224Y-97790
X141605Y-56515
X141732Y-93843
X141992Y-101729
X142562Y-51033
X142953Y-56515
X143460Y-76835
X143460Y-78105
X143764Y-103378
X144780Y-64770
X144932Y-89512
X144950Y-73550
X145542Y-87757
X145903Y-63119
X146520Y-95907
X146838Y-55572
X147066Y-79613
X147066Y-82313
X147162Y-67310
X147244Y-62790
X147490Y-73550
X147874Y-85623
X147875Y-63282
X148073Y-66559
X148670Y-70358
X149867Y-79685
X149952Y-60857
X150686Y-75692
X151300Y-73550
X151370Y-102354
X151373Y-89423
X151394Y-68018
X152275Y-89531
X152464Y-57912
X152527Y-58865
X152558Y-65251
X153256Y-61205
X153267Y-55438
X153277Y-57501
X153535Y-70304
X153606Y-59490
X153870Y-85872
X154940Y-56642
X154940Y-61530
X155131Y-74803
X155385Y-77914
X156279Y-95613
X156464Y-54319
X156762Y-64260
X158149Y-68399
X158320Y-52578
X159271Y-69817
X159447Y-89315
X159979Y-78083
X159990Y-93695
X161888Y-98716
X166162Y-54848
T5
X95730Y-60400
X131290Y-60400
X132790Y-93500
X113510Y-60400
T3
G00X167537Y-95433
M15
G01X166887Y-95433
M16
G05
G00X167537Y-102433
M15
G01X166887Y-102433
M16
G05
T4
G00X164512Y-96583
M15
G01X164512Y-96283
M16
G05
G00X164512Y-101583
M15
G01X164512Y-101283
M16
G05
T0
M30
