G04 #@! TF.GenerationSoftware,KiCad,Pcbnew,(5.1.2)-1*
G04 #@! TF.CreationDate,2019-08-13T14:32:56+02:00*
G04 #@! TF.ProjectId,tinyRF24,74696e79-5246-4323-942e-6b696361645f,rev?*
G04 #@! TF.SameCoordinates,Original*
G04 #@! TF.FileFunction,Copper,L2,Bot*
G04 #@! TF.FilePolarity,Positive*
%FSLAX46Y46*%
G04 Gerber Fmt 4.6, Leading zero omitted, Abs format (unit mm)*
G04 Created by KiCad (PCBNEW (5.1.2)-1) date 2019-08-13 14:32:56*
%MOMM*%
%LPD*%
G04 APERTURE LIST*
%ADD10C,0.075000*%
%ADD11R,1.500000X1.300000*%
%ADD12C,1.270000*%
%ADD13R,1.200000X4.000000*%
%ADD14R,1.500000X1.250000*%
%ADD15C,1.000000*%
%ADD16R,0.900000X1.200000*%
%ADD17R,3.400000X1.500000*%
%ADD18R,3.500000X1.000000*%
%ADD19O,0.950000X1.250000*%
%ADD20O,1.550000X1.000000*%
%ADD21R,1.300000X1.500000*%
%ADD22R,0.900000X0.500000*%
%ADD23R,0.500000X0.900000*%
%ADD24C,0.600000*%
%ADD25C,0.152400*%
%ADD26C,0.250000*%
%ADD27C,1.000000*%
%ADD28C,0.254000*%
G04 APERTURE END LIST*
D10*
X115573523Y-100730857D02*
X115478285Y-101064190D01*
X115383047Y-100826095D01*
X115287809Y-101064190D01*
X115192571Y-100730857D01*
X115049714Y-100730857D02*
X114954476Y-101064190D01*
X114859238Y-100826095D01*
X114764000Y-101064190D01*
X114668761Y-100730857D01*
X114525904Y-100730857D02*
X114430666Y-101064190D01*
X114335428Y-100826095D01*
X114240190Y-101064190D01*
X114144952Y-100730857D01*
X113954476Y-101016571D02*
X113930666Y-101040380D01*
X113954476Y-101064190D01*
X113978285Y-101040380D01*
X113954476Y-101016571D01*
X113954476Y-101064190D01*
X113740190Y-101040380D02*
X113692571Y-101064190D01*
X113597333Y-101064190D01*
X113549714Y-101040380D01*
X113525904Y-100992761D01*
X113525904Y-100968952D01*
X113549714Y-100921333D01*
X113597333Y-100897523D01*
X113668761Y-100897523D01*
X113716380Y-100873714D01*
X113740190Y-100826095D01*
X113740190Y-100802285D01*
X113716380Y-100754666D01*
X113668761Y-100730857D01*
X113597333Y-100730857D01*
X113549714Y-100754666D01*
X113311619Y-100730857D02*
X113311619Y-101064190D01*
X113311619Y-100778476D02*
X113287809Y-100754666D01*
X113240190Y-100730857D01*
X113168761Y-100730857D01*
X113121142Y-100754666D01*
X113097333Y-100802285D01*
X113097333Y-101064190D01*
X112644952Y-101064190D02*
X112644952Y-100802285D01*
X112668761Y-100754666D01*
X112716380Y-100730857D01*
X112811619Y-100730857D01*
X112859238Y-100754666D01*
X112644952Y-101040380D02*
X112692571Y-101064190D01*
X112811619Y-101064190D01*
X112859238Y-101040380D01*
X112883047Y-100992761D01*
X112883047Y-100945142D01*
X112859238Y-100897523D01*
X112811619Y-100873714D01*
X112692571Y-100873714D01*
X112644952Y-100849904D01*
X112406857Y-100730857D02*
X112406857Y-101230857D01*
X112406857Y-100754666D02*
X112359238Y-100730857D01*
X112264000Y-100730857D01*
X112216380Y-100754666D01*
X112192571Y-100778476D01*
X112168761Y-100826095D01*
X112168761Y-100968952D01*
X112192571Y-101016571D01*
X112216380Y-101040380D01*
X112264000Y-101064190D01*
X112359238Y-101064190D01*
X112406857Y-101040380D01*
X111883047Y-101064190D02*
X111930666Y-101040380D01*
X111954476Y-101016571D01*
X111978285Y-100968952D01*
X111978285Y-100826095D01*
X111954476Y-100778476D01*
X111930666Y-100754666D01*
X111883047Y-100730857D01*
X111811619Y-100730857D01*
X111764000Y-100754666D01*
X111740190Y-100778476D01*
X111716380Y-100826095D01*
X111716380Y-100968952D01*
X111740190Y-101016571D01*
X111764000Y-101040380D01*
X111811619Y-101064190D01*
X111883047Y-101064190D01*
X111502095Y-100730857D02*
X111502095Y-101064190D01*
X111502095Y-100778476D02*
X111478285Y-100754666D01*
X111430666Y-100730857D01*
X111359238Y-100730857D01*
X111311619Y-100754666D01*
X111287809Y-100802285D01*
X111287809Y-101064190D01*
X110835428Y-101064190D02*
X110835428Y-100802285D01*
X110859238Y-100754666D01*
X110906857Y-100730857D01*
X111002095Y-100730857D01*
X111049714Y-100754666D01*
X110835428Y-101040380D02*
X110883047Y-101064190D01*
X111002095Y-101064190D01*
X111049714Y-101040380D01*
X111073523Y-100992761D01*
X111073523Y-100945142D01*
X111049714Y-100897523D01*
X111002095Y-100873714D01*
X110883047Y-100873714D01*
X110835428Y-100849904D01*
X110597333Y-101064190D02*
X110597333Y-100730857D01*
X110597333Y-100564190D02*
X110621142Y-100588000D01*
X110597333Y-100611809D01*
X110573523Y-100588000D01*
X110597333Y-100564190D01*
X110597333Y-100611809D01*
X110359238Y-101064190D02*
X110359238Y-100730857D01*
X110359238Y-100826095D02*
X110335428Y-100778476D01*
X110311619Y-100754666D01*
X110264000Y-100730857D01*
X110216380Y-100730857D01*
X110049714Y-101016571D02*
X110025904Y-101040380D01*
X110049714Y-101064190D01*
X110073523Y-101040380D01*
X110049714Y-101016571D01*
X110049714Y-101064190D01*
X109597333Y-101040380D02*
X109644952Y-101064190D01*
X109740190Y-101064190D01*
X109787809Y-101040380D01*
X109811619Y-101016571D01*
X109835428Y-100968952D01*
X109835428Y-100826095D01*
X109811619Y-100778476D01*
X109787809Y-100754666D01*
X109740190Y-100730857D01*
X109644952Y-100730857D01*
X109597333Y-100754666D01*
X109311619Y-101064190D02*
X109359238Y-101040380D01*
X109383047Y-101016571D01*
X109406857Y-100968952D01*
X109406857Y-100826095D01*
X109383047Y-100778476D01*
X109359238Y-100754666D01*
X109311619Y-100730857D01*
X109240190Y-100730857D01*
X109192571Y-100754666D01*
X109168761Y-100778476D01*
X109144952Y-100826095D01*
X109144952Y-100968952D01*
X109168761Y-101016571D01*
X109192571Y-101040380D01*
X109240190Y-101064190D01*
X109311619Y-101064190D01*
X108930666Y-101064190D02*
X108930666Y-100730857D01*
X108930666Y-100778476D02*
X108906857Y-100754666D01*
X108859238Y-100730857D01*
X108787809Y-100730857D01*
X108740190Y-100754666D01*
X108716380Y-100802285D01*
X108716380Y-101064190D01*
X108716380Y-100802285D02*
X108692571Y-100754666D01*
X108644952Y-100730857D01*
X108573523Y-100730857D01*
X108525904Y-100754666D01*
X108502095Y-100802285D01*
X108502095Y-101064190D01*
X117303714Y-101421690D02*
X117018000Y-101421690D01*
X117160857Y-101921690D02*
X117160857Y-101421690D01*
X116851333Y-101921690D02*
X116851333Y-101421690D01*
X116637047Y-101921690D02*
X116637047Y-101659785D01*
X116660857Y-101612166D01*
X116708476Y-101588357D01*
X116779904Y-101588357D01*
X116827523Y-101612166D01*
X116851333Y-101635976D01*
X116208476Y-101897880D02*
X116256095Y-101921690D01*
X116351333Y-101921690D01*
X116398952Y-101897880D01*
X116422761Y-101850261D01*
X116422761Y-101659785D01*
X116398952Y-101612166D01*
X116351333Y-101588357D01*
X116256095Y-101588357D01*
X116208476Y-101612166D01*
X116184666Y-101659785D01*
X116184666Y-101707404D01*
X116422761Y-101755023D01*
X115422761Y-101659785D02*
X115589428Y-101659785D01*
X115589428Y-101921690D02*
X115589428Y-101421690D01*
X115351333Y-101421690D01*
X115160857Y-101921690D02*
X115160857Y-101588357D01*
X115160857Y-101421690D02*
X115184666Y-101445500D01*
X115160857Y-101469309D01*
X115137047Y-101445500D01*
X115160857Y-101421690D01*
X115160857Y-101469309D01*
X114922761Y-101921690D02*
X114922761Y-101588357D01*
X114922761Y-101683595D02*
X114898952Y-101635976D01*
X114875142Y-101612166D01*
X114827523Y-101588357D01*
X114779904Y-101588357D01*
X114637047Y-101897880D02*
X114589428Y-101921690D01*
X114494190Y-101921690D01*
X114446571Y-101897880D01*
X114422761Y-101850261D01*
X114422761Y-101826452D01*
X114446571Y-101778833D01*
X114494190Y-101755023D01*
X114565619Y-101755023D01*
X114613238Y-101731214D01*
X114637047Y-101683595D01*
X114637047Y-101659785D01*
X114613238Y-101612166D01*
X114565619Y-101588357D01*
X114494190Y-101588357D01*
X114446571Y-101612166D01*
X114279904Y-101588357D02*
X114089428Y-101588357D01*
X114208476Y-101421690D02*
X114208476Y-101850261D01*
X114184666Y-101897880D01*
X114137047Y-101921690D01*
X114089428Y-101921690D01*
X113613238Y-101588357D02*
X113422761Y-101588357D01*
X113541809Y-101421690D02*
X113541809Y-101850261D01*
X113518000Y-101897880D01*
X113470380Y-101921690D01*
X113422761Y-101921690D01*
X113256095Y-101921690D02*
X113256095Y-101588357D01*
X113256095Y-101683595D02*
X113232285Y-101635976D01*
X113208476Y-101612166D01*
X113160857Y-101588357D01*
X113113238Y-101588357D01*
X112732285Y-101588357D02*
X112732285Y-101921690D01*
X112946571Y-101588357D02*
X112946571Y-101850261D01*
X112922761Y-101897880D01*
X112875142Y-101921690D01*
X112803714Y-101921690D01*
X112756095Y-101897880D01*
X112732285Y-101874071D01*
X112303714Y-101897880D02*
X112351333Y-101921690D01*
X112446571Y-101921690D01*
X112494190Y-101897880D01*
X112518000Y-101850261D01*
X112518000Y-101659785D01*
X112494190Y-101612166D01*
X112446571Y-101588357D01*
X112351333Y-101588357D01*
X112303714Y-101612166D01*
X112279904Y-101659785D01*
X112279904Y-101707404D01*
X112518000Y-101755023D01*
X111446571Y-101921690D02*
X111684666Y-101921690D01*
X111684666Y-101421690D01*
X111184666Y-101421690D02*
X111089428Y-101421690D01*
X111041809Y-101445500D01*
X110994190Y-101493119D01*
X110970380Y-101588357D01*
X110970380Y-101755023D01*
X110994190Y-101850261D01*
X111041809Y-101897880D01*
X111089428Y-101921690D01*
X111184666Y-101921690D01*
X111232285Y-101897880D01*
X111279904Y-101850261D01*
X111303714Y-101755023D01*
X111303714Y-101588357D01*
X111279904Y-101493119D01*
X111232285Y-101445500D01*
X111184666Y-101421690D01*
X110470380Y-101921690D02*
X110637047Y-101683595D01*
X110756095Y-101921690D02*
X110756095Y-101421690D01*
X110565619Y-101421690D01*
X110518000Y-101445500D01*
X110494190Y-101469309D01*
X110470380Y-101516928D01*
X110470380Y-101588357D01*
X110494190Y-101635976D01*
X110518000Y-101659785D01*
X110565619Y-101683595D01*
X110756095Y-101683595D01*
X110279904Y-101778833D02*
X110041809Y-101778833D01*
X110327523Y-101921690D02*
X110160857Y-101421690D01*
X109994190Y-101921690D01*
X109446571Y-101659785D02*
X109279904Y-101659785D01*
X109208476Y-101921690D02*
X109446571Y-101921690D01*
X109446571Y-101421690D01*
X109208476Y-101421690D01*
X109018000Y-101897880D02*
X108946571Y-101921690D01*
X108827523Y-101921690D01*
X108779904Y-101897880D01*
X108756095Y-101874071D01*
X108732285Y-101826452D01*
X108732285Y-101778833D01*
X108756095Y-101731214D01*
X108779904Y-101707404D01*
X108827523Y-101683595D01*
X108922761Y-101659785D01*
X108970380Y-101635976D01*
X108994190Y-101612166D01*
X109018000Y-101564547D01*
X109018000Y-101516928D01*
X108994190Y-101469309D01*
X108970380Y-101445500D01*
X108922761Y-101421690D01*
X108803714Y-101421690D01*
X108732285Y-101445500D01*
X108518000Y-101921690D02*
X108518000Y-101421690D01*
X108327523Y-101421690D01*
X108279904Y-101445500D01*
X108256095Y-101469309D01*
X108232285Y-101516928D01*
X108232285Y-101588357D01*
X108256095Y-101635976D01*
X108279904Y-101659785D01*
X108327523Y-101683595D01*
X108518000Y-101683595D01*
X108065619Y-101421690D02*
X107756095Y-101421690D01*
X107922761Y-101612166D01*
X107851333Y-101612166D01*
X107803714Y-101635976D01*
X107779904Y-101659785D01*
X107756095Y-101707404D01*
X107756095Y-101826452D01*
X107779904Y-101874071D01*
X107803714Y-101897880D01*
X107851333Y-101921690D01*
X107994190Y-101921690D01*
X108041809Y-101897880D01*
X108065619Y-101874071D01*
X107565619Y-101469309D02*
X107541809Y-101445500D01*
X107494190Y-101421690D01*
X107375142Y-101421690D01*
X107327523Y-101445500D01*
X107303714Y-101469309D01*
X107279904Y-101516928D01*
X107279904Y-101564547D01*
X107303714Y-101635976D01*
X107589428Y-101921690D01*
X107279904Y-101921690D01*
X117553714Y-102484785D02*
X117482285Y-102508595D01*
X117458476Y-102532404D01*
X117434666Y-102580023D01*
X117434666Y-102651452D01*
X117458476Y-102699071D01*
X117482285Y-102722880D01*
X117529904Y-102746690D01*
X117720380Y-102746690D01*
X117720380Y-102246690D01*
X117553714Y-102246690D01*
X117506095Y-102270500D01*
X117482285Y-102294309D01*
X117458476Y-102341928D01*
X117458476Y-102389547D01*
X117482285Y-102437166D01*
X117506095Y-102460976D01*
X117553714Y-102484785D01*
X117720380Y-102484785D01*
X117006095Y-102413357D02*
X117006095Y-102746690D01*
X117220380Y-102413357D02*
X117220380Y-102675261D01*
X117196571Y-102722880D01*
X117148952Y-102746690D01*
X117077523Y-102746690D01*
X117029904Y-102722880D01*
X117006095Y-102699071D01*
X116791809Y-102722880D02*
X116744190Y-102746690D01*
X116648952Y-102746690D01*
X116601333Y-102722880D01*
X116577523Y-102675261D01*
X116577523Y-102651452D01*
X116601333Y-102603833D01*
X116648952Y-102580023D01*
X116720380Y-102580023D01*
X116768000Y-102556214D01*
X116791809Y-102508595D01*
X116791809Y-102484785D01*
X116768000Y-102437166D01*
X116720380Y-102413357D01*
X116648952Y-102413357D01*
X116601333Y-102437166D01*
X116363238Y-102746690D02*
X116363238Y-102413357D01*
X116363238Y-102246690D02*
X116387047Y-102270500D01*
X116363238Y-102294309D01*
X116339428Y-102270500D01*
X116363238Y-102246690D01*
X116363238Y-102294309D01*
X116125142Y-102413357D02*
X116125142Y-102746690D01*
X116125142Y-102460976D02*
X116101333Y-102437166D01*
X116053714Y-102413357D01*
X115982285Y-102413357D01*
X115934666Y-102437166D01*
X115910857Y-102484785D01*
X115910857Y-102746690D01*
X115482285Y-102722880D02*
X115529904Y-102746690D01*
X115625142Y-102746690D01*
X115672761Y-102722880D01*
X115696571Y-102675261D01*
X115696571Y-102484785D01*
X115672761Y-102437166D01*
X115625142Y-102413357D01*
X115529904Y-102413357D01*
X115482285Y-102437166D01*
X115458476Y-102484785D01*
X115458476Y-102532404D01*
X115696571Y-102580023D01*
X115268000Y-102722880D02*
X115220380Y-102746690D01*
X115125142Y-102746690D01*
X115077523Y-102722880D01*
X115053714Y-102675261D01*
X115053714Y-102651452D01*
X115077523Y-102603833D01*
X115125142Y-102580023D01*
X115196571Y-102580023D01*
X115244190Y-102556214D01*
X115268000Y-102508595D01*
X115268000Y-102484785D01*
X115244190Y-102437166D01*
X115196571Y-102413357D01*
X115125142Y-102413357D01*
X115077523Y-102437166D01*
X114863238Y-102722880D02*
X114815619Y-102746690D01*
X114720380Y-102746690D01*
X114672761Y-102722880D01*
X114648952Y-102675261D01*
X114648952Y-102651452D01*
X114672761Y-102603833D01*
X114720380Y-102580023D01*
X114791809Y-102580023D01*
X114839428Y-102556214D01*
X114863238Y-102508595D01*
X114863238Y-102484785D01*
X114839428Y-102437166D01*
X114791809Y-102413357D01*
X114720380Y-102413357D01*
X114672761Y-102437166D01*
X113768000Y-102699071D02*
X113791809Y-102722880D01*
X113863238Y-102746690D01*
X113910857Y-102746690D01*
X113982285Y-102722880D01*
X114029904Y-102675261D01*
X114053714Y-102627642D01*
X114077523Y-102532404D01*
X114077523Y-102460976D01*
X114053714Y-102365738D01*
X114029904Y-102318119D01*
X113982285Y-102270500D01*
X113910857Y-102246690D01*
X113863238Y-102246690D01*
X113791809Y-102270500D01*
X113768000Y-102294309D01*
X113339428Y-102746690D02*
X113339428Y-102484785D01*
X113363238Y-102437166D01*
X113410857Y-102413357D01*
X113506095Y-102413357D01*
X113553714Y-102437166D01*
X113339428Y-102722880D02*
X113387047Y-102746690D01*
X113506095Y-102746690D01*
X113553714Y-102722880D01*
X113577523Y-102675261D01*
X113577523Y-102627642D01*
X113553714Y-102580023D01*
X113506095Y-102556214D01*
X113387047Y-102556214D01*
X113339428Y-102532404D01*
X113101333Y-102746690D02*
X113101333Y-102413357D01*
X113101333Y-102508595D02*
X113077523Y-102460976D01*
X113053714Y-102437166D01*
X113006095Y-102413357D01*
X112958476Y-102413357D01*
X112577523Y-102746690D02*
X112577523Y-102246690D01*
X112577523Y-102722880D02*
X112625142Y-102746690D01*
X112720380Y-102746690D01*
X112768000Y-102722880D01*
X112791809Y-102699071D01*
X112815619Y-102651452D01*
X112815619Y-102508595D01*
X112791809Y-102460976D01*
X112768000Y-102437166D01*
X112720380Y-102413357D01*
X112625142Y-102413357D01*
X112577523Y-102437166D01*
X111887047Y-102746690D02*
X111934666Y-102722880D01*
X111958476Y-102699071D01*
X111982285Y-102651452D01*
X111982285Y-102508595D01*
X111958476Y-102460976D01*
X111934666Y-102437166D01*
X111887047Y-102413357D01*
X111815619Y-102413357D01*
X111768000Y-102437166D01*
X111744190Y-102460976D01*
X111720380Y-102508595D01*
X111720380Y-102651452D01*
X111744190Y-102699071D01*
X111768000Y-102722880D01*
X111815619Y-102746690D01*
X111887047Y-102746690D01*
X111506095Y-102413357D02*
X111506095Y-102746690D01*
X111506095Y-102460976D02*
X111482285Y-102437166D01*
X111434666Y-102413357D01*
X111363238Y-102413357D01*
X111315619Y-102437166D01*
X111291809Y-102484785D01*
X111291809Y-102746690D01*
X110744190Y-102413357D02*
X110553714Y-102413357D01*
X110672761Y-102246690D02*
X110672761Y-102675261D01*
X110648952Y-102722880D01*
X110601333Y-102746690D01*
X110553714Y-102746690D01*
X110387047Y-102746690D02*
X110387047Y-102246690D01*
X110172761Y-102746690D02*
X110172761Y-102484785D01*
X110196571Y-102437166D01*
X110244190Y-102413357D01*
X110315619Y-102413357D01*
X110363238Y-102437166D01*
X110387047Y-102460976D01*
X109744190Y-102722880D02*
X109791809Y-102746690D01*
X109887047Y-102746690D01*
X109934666Y-102722880D01*
X109958476Y-102675261D01*
X109958476Y-102484785D01*
X109934666Y-102437166D01*
X109887047Y-102413357D01*
X109791809Y-102413357D01*
X109744190Y-102437166D01*
X109720380Y-102484785D01*
X109720380Y-102532404D01*
X109958476Y-102580023D01*
X109125142Y-102746690D02*
X109125142Y-102413357D01*
X109125142Y-102460976D02*
X109101333Y-102437166D01*
X109053714Y-102413357D01*
X108982285Y-102413357D01*
X108934666Y-102437166D01*
X108910857Y-102484785D01*
X108910857Y-102746690D01*
X108910857Y-102484785D02*
X108887047Y-102437166D01*
X108839428Y-102413357D01*
X108768000Y-102413357D01*
X108720380Y-102437166D01*
X108696571Y-102484785D01*
X108696571Y-102746690D01*
X108244190Y-102746690D02*
X108244190Y-102484785D01*
X108268000Y-102437166D01*
X108315619Y-102413357D01*
X108410857Y-102413357D01*
X108458476Y-102437166D01*
X108244190Y-102722880D02*
X108291809Y-102746690D01*
X108410857Y-102746690D01*
X108458476Y-102722880D01*
X108482285Y-102675261D01*
X108482285Y-102627642D01*
X108458476Y-102580023D01*
X108410857Y-102556214D01*
X108291809Y-102556214D01*
X108244190Y-102532404D01*
X108006095Y-102746690D02*
X108006095Y-102413357D01*
X108006095Y-102508595D02*
X107982285Y-102460976D01*
X107958476Y-102437166D01*
X107910857Y-102413357D01*
X107863238Y-102413357D01*
X107696571Y-102746690D02*
X107696571Y-102246690D01*
X107648952Y-102556214D02*
X107506095Y-102746690D01*
X107506095Y-102413357D02*
X107696571Y-102603833D01*
X107101333Y-102722880D02*
X107148952Y-102746690D01*
X107244190Y-102746690D01*
X107291809Y-102722880D01*
X107315619Y-102675261D01*
X107315619Y-102484785D01*
X107291809Y-102437166D01*
X107244190Y-102413357D01*
X107148952Y-102413357D01*
X107101333Y-102437166D01*
X107077523Y-102484785D01*
X107077523Y-102532404D01*
X107315619Y-102580023D01*
X106934666Y-102413357D02*
X106744190Y-102413357D01*
X106863238Y-102246690D02*
X106863238Y-102675261D01*
X106839428Y-102722880D01*
X106791809Y-102746690D01*
X106744190Y-102746690D01*
D11*
X146130000Y-59309000D03*
X143430000Y-59309000D03*
D12*
X95730000Y-60400000D03*
D11*
X106540000Y-79730000D03*
X103840000Y-79730000D03*
D12*
X131290000Y-60400000D03*
D13*
X119840000Y-96730000D03*
X117840000Y-96730000D03*
X115840000Y-96730000D03*
X113840000Y-96730000D03*
X111840000Y-96730000D03*
X109840000Y-96730000D03*
X107840000Y-96730000D03*
X105840000Y-96730000D03*
X105840000Y-83230000D03*
X107840000Y-83230000D03*
X109840000Y-83230000D03*
X111840000Y-83230000D03*
X113840000Y-83230000D03*
X115840000Y-83230000D03*
X117840000Y-83230000D03*
X119840000Y-83230000D03*
D14*
X109737000Y-79608000D03*
X112237000Y-79608000D03*
X103840000Y-82730000D03*
X101340000Y-82730000D03*
D12*
X132790000Y-93500000D03*
D11*
X148510000Y-61087000D03*
X151210000Y-61087000D03*
D15*
X97840400Y-82730000D03*
D14*
X111974000Y-77724000D03*
X109474000Y-77724000D03*
D12*
X113510000Y-60400000D03*
D14*
X143403000Y-63119000D03*
X145903000Y-63119000D03*
X143403000Y-65024000D03*
X145903000Y-65024000D03*
X150963000Y-65151000D03*
X148463000Y-65151000D03*
X148503000Y-63119000D03*
X151003000Y-63119000D03*
X145903000Y-61214000D03*
X143403000Y-61214000D03*
D11*
X148510000Y-59182000D03*
X151210000Y-59182000D03*
D16*
X132335000Y-68580000D03*
X135635000Y-68580000D03*
D17*
X93045000Y-75105000D03*
X93045000Y-68405000D03*
D18*
X87295000Y-72755000D03*
X87295000Y-70755000D03*
D19*
X164512000Y-101433000D03*
X164512000Y-96433000D03*
D20*
X167212000Y-102433000D03*
X167212000Y-95433000D03*
D21*
X147066000Y-82312500D03*
X147066000Y-79612500D03*
D22*
X155130500Y-76974000D03*
X155130500Y-78474000D03*
D23*
X149110000Y-76708000D03*
X150610000Y-76708000D03*
D24*
X110951800Y-80013500D03*
X120904900Y-97435700D03*
X106112600Y-99184200D03*
X107840000Y-85692600D03*
X110695000Y-78046400D03*
X140716000Y-95734700D03*
X141224000Y-97790000D03*
X143764000Y-103378000D03*
X151370000Y-102354000D03*
X156464000Y-54319500D03*
X158320000Y-52578000D03*
X153267179Y-55438237D03*
X154940000Y-56642000D03*
X145903000Y-63119000D03*
X144780000Y-64770000D03*
X148670000Y-70358000D03*
X147874723Y-63282486D03*
X147162400Y-67310000D03*
X143460000Y-76835000D03*
X141107000Y-76962000D03*
X140208000Y-92202000D03*
X141732000Y-93842900D03*
X154940000Y-61530000D03*
X153606500Y-59489500D03*
X152463500Y-57912000D03*
X159271300Y-69816700D03*
X156279400Y-95612500D03*
X159979300Y-78082800D03*
X148072500Y-66559300D03*
X136144000Y-70866000D03*
X166161600Y-54848100D03*
X159989600Y-93694700D03*
X142952600Y-56515000D03*
X141605000Y-56515000D03*
X139700000Y-68580000D03*
X135635000Y-68580000D03*
X158148700Y-68398700D03*
X159446600Y-89314600D03*
X156762100Y-64259500D03*
X151372600Y-89423400D03*
X149867000Y-79684700D03*
X151393700Y-68018400D03*
X152557700Y-65251200D03*
X147874400Y-85622800D03*
X151300000Y-73550000D03*
X147490000Y-73550000D03*
X144950000Y-73550000D03*
X143460000Y-78105000D03*
X85840000Y-96730000D03*
X85840000Y-98730000D03*
X85840000Y-90730000D03*
X85840000Y-94730000D03*
X91840000Y-96730000D03*
X91840000Y-90730000D03*
X85840000Y-92730000D03*
X91840000Y-88730000D03*
X91840000Y-98730000D03*
X91840000Y-100730000D03*
X91840000Y-92730000D03*
X91840000Y-94730000D03*
X85840000Y-84730000D03*
X85840000Y-86730000D03*
X85840000Y-88730000D03*
X85840000Y-82730000D03*
X91840000Y-84730000D03*
X91840000Y-86730000D03*
X152275000Y-89531100D03*
X138059000Y-92710000D03*
X137160000Y-99822000D03*
X140208000Y-76454000D03*
X137043000Y-71882000D03*
X147244200Y-62790100D03*
X153869600Y-85872300D03*
X153534900Y-70304100D03*
X144932000Y-89512300D03*
X142562000Y-51032700D03*
X141991900Y-101729000D03*
X161887935Y-98716065D03*
X149951600Y-60857000D03*
X138684000Y-93726000D03*
X138176000Y-78994000D03*
X139583000Y-72898000D03*
X140655000Y-60645000D03*
X146519700Y-95906900D03*
X153276600Y-57501200D03*
X146838100Y-55572300D03*
X153255759Y-61205451D03*
X152527000Y-58864500D03*
X147066000Y-82312500D03*
X147066000Y-79612500D03*
X155130500Y-74803000D03*
X155384500Y-77914500D03*
X145542000Y-87757000D03*
X150685500Y-75692000D03*
D25*
X109737000Y-79608000D02*
X110715900Y-79608000D01*
X110951800Y-80013500D02*
X110715900Y-79777600D01*
X110715900Y-79777600D02*
X110715900Y-79608000D01*
X120904900Y-97435700D02*
X120545700Y-97435700D01*
X120545700Y-97435700D02*
X119840000Y-96730000D01*
X105840000Y-96730000D02*
X105840000Y-98958900D01*
X106112600Y-99184200D02*
X105887300Y-98958900D01*
X105887300Y-98958900D02*
X105840000Y-98958900D01*
X107840000Y-83230000D02*
X107840000Y-85692600D01*
X109474000Y-77724000D02*
X110452900Y-77724000D01*
X110695000Y-78046400D02*
X110452900Y-77804300D01*
X110452900Y-77804300D02*
X110452900Y-77724000D01*
X140716000Y-95734700D02*
X140716000Y-97282000D01*
X140716000Y-97282000D02*
X141224000Y-97790000D01*
X143764000Y-103378000D02*
X146812000Y-103378000D01*
X146812000Y-103378000D02*
X147836000Y-102354000D01*
X147836000Y-102354000D02*
X151370000Y-102354000D01*
X156464000Y-54319500D02*
X158205500Y-52578000D01*
X158205500Y-52578000D02*
X158320000Y-52578000D01*
X154470942Y-56642000D02*
X154940000Y-56642000D01*
X153267179Y-55438237D02*
X154470942Y-56642000D01*
X145649000Y-64770000D02*
X145903000Y-65024000D01*
X144780000Y-64770000D02*
X145649000Y-64770000D01*
X146177000Y-63119000D02*
X146726090Y-63668090D01*
X145903000Y-63119000D02*
X146177000Y-63119000D01*
X147953910Y-63668090D02*
X148503000Y-63119000D01*
X150838000Y-65151000D02*
X149860000Y-66129000D01*
X150963000Y-65151000D02*
X150838000Y-65151000D01*
X149860000Y-69168000D02*
X148670000Y-70358000D01*
X147489119Y-63668090D02*
X147874723Y-63282486D01*
X147234090Y-63668090D02*
X147489119Y-63668090D01*
X147234090Y-63668090D02*
X147953910Y-63668090D01*
X146726090Y-63668090D02*
X147234090Y-63668090D01*
X149352000Y-67310000D02*
X149860000Y-67818000D01*
X147162400Y-67310000D02*
X149352000Y-67310000D01*
X149860000Y-66129000D02*
X149860000Y-67818000D01*
X149860000Y-67818000D02*
X149860000Y-69168000D01*
X143460000Y-76835000D02*
X141234000Y-76835000D01*
X141234000Y-76835000D02*
X141107000Y-76962000D01*
X140208000Y-92202000D02*
X141732000Y-93726000D01*
X141732000Y-93726000D02*
X141732000Y-93842900D01*
X109349000Y-77724000D02*
X109474000Y-77724000D01*
X108450700Y-78622300D02*
X109349000Y-77724000D01*
X106540000Y-78622300D02*
X108450700Y-78622300D01*
X106540000Y-79730000D02*
X106540000Y-78622300D01*
X106540000Y-78622300D02*
X103387300Y-78622300D01*
X87295000Y-72755000D02*
X96250000Y-72755000D01*
X102117300Y-78622300D02*
X103387300Y-78622300D01*
X96250000Y-72755000D02*
X102117300Y-78622300D01*
X167212000Y-101780600D02*
X167212000Y-102433000D01*
X166864400Y-101433000D02*
X167212000Y-101780600D01*
X164512000Y-101433000D02*
X166864400Y-101433000D01*
X154940000Y-61530000D02*
X154940000Y-60823000D01*
X154940000Y-60823000D02*
X153606500Y-59489500D01*
X153606500Y-59489500D02*
X153606500Y-59055000D01*
X153606500Y-59055000D02*
X152463500Y-57912000D01*
X159979300Y-78082800D02*
X159271300Y-77374800D01*
X159271300Y-77374800D02*
X159271300Y-69816700D01*
X156279400Y-95612500D02*
X160023100Y-91868800D01*
X160023100Y-91868800D02*
X160023100Y-78126600D01*
X160023100Y-78126600D02*
X159979300Y-78082800D01*
X113215900Y-79608000D02*
X120836400Y-71987500D01*
X120836400Y-71987500D02*
X130522700Y-71987500D01*
X113840000Y-83230000D02*
X113840000Y-81001100D01*
X112237000Y-79608000D02*
X112237000Y-78754100D01*
X111974000Y-77724000D02*
X111974000Y-78577900D01*
X111974000Y-78577900D02*
X112150200Y-78754100D01*
X112150200Y-78754100D02*
X112237000Y-78754100D01*
X112237000Y-79608000D02*
X113215900Y-79608000D01*
X113215900Y-79608000D02*
X113215900Y-80377000D01*
X113215900Y-80377000D02*
X113840000Y-81001100D01*
X148028400Y-66439500D02*
X148007600Y-66418800D01*
X148007600Y-66418800D02*
X143943900Y-66418800D01*
X143943900Y-66418800D02*
X143403000Y-65877900D01*
X148072500Y-66559300D02*
X148072500Y-66483700D01*
X148072500Y-66483700D02*
X148028400Y-66439500D01*
X148463000Y-66004900D02*
X148028400Y-66439500D01*
X148463000Y-65151000D02*
X148463000Y-66004900D01*
X143403000Y-65024000D02*
X143403000Y-65877900D01*
X143403000Y-65024000D02*
X143403000Y-63119000D01*
X130522700Y-71987500D02*
X131466500Y-71987500D01*
X131466500Y-71987500D02*
X132588000Y-70866000D01*
X132588000Y-70866000D02*
X136144000Y-70866000D01*
X166161600Y-54848100D02*
X146747000Y-54848100D01*
X146747000Y-54848100D02*
X146130000Y-55465100D01*
X146130000Y-55465100D02*
X146130000Y-59309000D01*
X159989600Y-93694700D02*
X160514500Y-93169800D01*
X160514500Y-93169800D02*
X160514500Y-63901100D01*
X160514500Y-63901100D02*
X153538000Y-56924600D01*
X153538000Y-56924600D02*
X151622700Y-56924600D01*
X151622700Y-56924600D02*
X149715400Y-58831900D01*
X149715400Y-58831900D02*
X149715400Y-59789500D01*
X149715400Y-59789500D02*
X149365500Y-60139400D01*
X149365500Y-60139400D02*
X147379600Y-60139400D01*
X147379600Y-60139400D02*
X147331100Y-60187900D01*
X147331100Y-60187900D02*
X143430000Y-60187900D01*
X143403000Y-61214000D02*
X143403000Y-60360100D01*
X143403000Y-60360100D02*
X143430000Y-60333100D01*
X143430000Y-60333100D02*
X143430000Y-60187900D01*
X143430000Y-59309000D02*
X143430000Y-60187900D01*
X143430000Y-59309000D02*
X143430000Y-56992400D01*
X143430000Y-56992400D02*
X142952600Y-56515000D01*
X140078799Y-58041201D02*
X140078799Y-58676201D01*
X141605000Y-56515000D02*
X140078799Y-58041201D01*
X140078799Y-58676201D02*
X139700000Y-59055000D01*
X139700000Y-59055000D02*
X139700000Y-62865000D01*
X139700000Y-62865000D02*
X140970000Y-64135000D01*
X140970000Y-64135000D02*
X140970000Y-67310000D01*
X140970000Y-67310000D02*
X139700000Y-68580000D01*
D26*
X115840000Y-96730000D02*
X115840000Y-99055300D01*
X158148700Y-88016700D02*
X158148700Y-68398700D01*
X159446600Y-89314600D02*
X158148700Y-88016700D01*
X115840000Y-99055300D02*
X147110100Y-99055300D01*
X147110100Y-99055300D02*
X158148700Y-88016700D01*
X151372600Y-89423400D02*
X156762100Y-84033900D01*
X156762100Y-84033900D02*
X156762100Y-64259500D01*
X113840000Y-94404700D02*
X114294700Y-93950000D01*
X114294700Y-93950000D02*
X126940900Y-93950000D01*
X126940900Y-93950000D02*
X127458800Y-94467900D01*
X127458800Y-94467900D02*
X146328100Y-94467900D01*
X146328100Y-94467900D02*
X151372600Y-89423400D01*
X113840000Y-96730000D02*
X113840000Y-94404700D01*
X151393700Y-68018400D02*
X151925400Y-68550100D01*
X151925400Y-68550100D02*
X151925400Y-77626300D01*
X151925400Y-77626300D02*
X149867000Y-79684700D01*
X147874400Y-85622800D02*
X152557700Y-80939500D01*
X152557700Y-80939500D02*
X152557700Y-65251200D01*
X149412000Y-75438000D02*
X151300000Y-73550000D01*
X139571590Y-75438000D02*
X149412000Y-75438000D01*
X95730000Y-61948000D02*
X99314000Y-65532000D01*
X95730000Y-60400000D02*
X95730000Y-61948000D01*
X99314000Y-65532000D02*
X135382000Y-65532000D01*
X135382000Y-65532000D02*
X137668000Y-67818000D01*
X137668000Y-67818000D02*
X137668000Y-73534410D01*
X137668000Y-73534410D02*
X139571590Y-75438000D01*
X146618000Y-74422000D02*
X147490000Y-73550000D01*
X138233990Y-73463990D02*
X139192000Y-74422000D01*
X138233990Y-66859990D02*
X138233990Y-73463990D01*
X139192000Y-74422000D02*
X146618000Y-74422000D01*
X113510000Y-60400000D02*
X113510000Y-61298000D01*
X113510000Y-61298000D02*
X116982000Y-64770000D01*
X116982000Y-64770000D02*
X136144000Y-64770000D01*
X136144000Y-64770000D02*
X138233990Y-66859990D01*
X134314000Y-60400000D02*
X131290000Y-60400000D01*
X138684000Y-64770000D02*
X134314000Y-60400000D01*
X138684000Y-72350002D02*
X138684000Y-64770000D01*
X138957999Y-72624001D02*
X138684000Y-72350002D01*
X138957999Y-73287979D02*
X138957999Y-72624001D01*
X143536000Y-72136000D02*
X140970000Y-72136000D01*
X144950000Y-73550000D02*
X143536000Y-72136000D01*
X140970000Y-72136000D02*
X140208000Y-72898000D01*
X140208000Y-72898000D02*
X140208000Y-73406000D01*
X140208000Y-73406000D02*
X139642010Y-73971990D01*
X139642010Y-73971990D02*
X138957999Y-73287979D01*
X132790000Y-93500000D02*
X133425000Y-92865000D01*
X133425000Y-92865000D02*
X133425000Y-81205000D01*
X133425000Y-81205000D02*
X136525000Y-78105000D01*
X136525000Y-78105000D02*
X143460000Y-78105000D01*
X97840000Y-82730000D02*
X97840400Y-82730000D01*
D27*
X97840000Y-82730000D02*
X85840000Y-82730000D01*
X85840000Y-98730000D02*
X91840000Y-98730000D01*
X85840000Y-94730000D02*
X91840000Y-94730000D01*
X85840000Y-88730000D02*
X91840000Y-88730000D01*
X91840000Y-86730000D02*
X85840000Y-86730000D01*
X85840000Y-90730000D02*
X91840000Y-90730000D01*
X85840000Y-96730000D02*
X91840000Y-96730000D01*
X85840000Y-84730000D02*
X91840000Y-84730000D01*
X85840000Y-92730000D02*
X91840000Y-92730000D01*
X85840000Y-100730000D02*
X91840000Y-100730000D01*
X101340000Y-82730000D02*
X97840400Y-82730000D01*
D26*
X103840000Y-79730000D02*
X103840000Y-80705300D01*
X104715000Y-80904700D02*
X105840000Y-80904700D01*
X103840000Y-81779700D02*
X104715000Y-80904700D01*
X104715000Y-80904700D02*
X104515600Y-80705300D01*
X104515600Y-80705300D02*
X103840000Y-80705300D01*
X103840000Y-82730000D02*
X103840000Y-81779700D01*
X105840000Y-83230000D02*
X105840000Y-80904700D01*
X117840000Y-96730000D02*
X117840000Y-94404700D01*
X152275000Y-89531100D02*
X146887800Y-94918300D01*
X146887800Y-94918300D02*
X122857100Y-94918300D01*
X122857100Y-94918300D02*
X122343500Y-94404700D01*
X122343500Y-94404700D02*
X117840000Y-94404700D01*
X115840000Y-83230000D02*
X115840000Y-85555300D01*
X107669300Y-93726000D02*
X104648000Y-93726000D01*
X115840000Y-85555300D02*
X107669300Y-93726000D01*
X104648000Y-93726000D02*
X103124000Y-95250000D01*
X103124000Y-99639166D02*
X103814834Y-100330000D01*
X103124000Y-95250000D02*
X103124000Y-99639166D01*
X103814834Y-100330000D02*
X104322834Y-99822000D01*
X104322834Y-99822000D02*
X137160000Y-99822000D01*
X111840000Y-94404700D02*
X111840000Y-96730000D01*
X113218200Y-93026500D02*
X111840000Y-94404700D01*
X118496600Y-93026500D02*
X113218200Y-93026500D01*
X118496600Y-93026500D02*
X119571500Y-93026500D01*
X119571500Y-93026500D02*
X135636000Y-76962000D01*
X135636000Y-76962000D02*
X139700000Y-76962000D01*
X139700000Y-76962000D02*
X140208000Y-76454000D01*
X132462900Y-78354400D02*
X122834000Y-87983300D01*
X122834000Y-87983300D02*
X116261400Y-87983300D01*
X116261400Y-87983300D02*
X109840000Y-94404700D01*
X109840000Y-96730000D02*
X109840000Y-94404700D01*
X132462900Y-78354400D02*
X132462900Y-78103100D01*
X135636000Y-74930000D02*
X136652000Y-74930000D01*
X132462900Y-78103100D02*
X135636000Y-74930000D01*
X137217990Y-72056990D02*
X137043000Y-71882000D01*
X136652000Y-74930000D02*
X137217990Y-74364010D01*
X137217990Y-74364010D02*
X137217990Y-72056990D01*
X148510000Y-61087000D02*
X148510000Y-62062300D01*
X147244200Y-62790100D02*
X147244200Y-62462100D01*
X147244200Y-62462100D02*
X147644000Y-62062300D01*
X147644000Y-62062300D02*
X148510000Y-62062300D01*
X151210000Y-61087000D02*
X151210000Y-62062300D01*
X153869600Y-85872300D02*
X154176000Y-85565900D01*
X154176000Y-85565900D02*
X154176000Y-64418700D01*
X154176000Y-64418700D02*
X151819600Y-62062300D01*
X151819600Y-62062300D02*
X151210000Y-62062300D01*
X153534900Y-70304100D02*
X153534900Y-65344000D01*
X153534900Y-65344000D02*
X152260200Y-64069300D01*
X152260200Y-64069300D02*
X151003000Y-64069300D01*
X144932000Y-89512300D02*
X153534900Y-80909400D01*
X153534900Y-80909400D02*
X153534900Y-70304100D01*
X151003000Y-64069300D02*
X145016500Y-64069300D01*
X145016500Y-64069300D02*
X144827600Y-63880400D01*
X144827600Y-63880400D02*
X144827600Y-62696500D01*
X144827600Y-62696500D02*
X144299700Y-62168600D01*
X144299700Y-62168600D02*
X142432600Y-62168600D01*
X142432600Y-62168600D02*
X142327600Y-62063600D01*
X142327600Y-62063600D02*
X142327600Y-51267100D01*
X142327600Y-51267100D02*
X142562000Y-51032700D01*
X151003000Y-63119000D02*
X151003000Y-64069300D01*
X141991900Y-101729000D02*
X150239000Y-101729000D01*
X150239000Y-101729000D02*
X153251935Y-98716065D01*
X153251935Y-98716065D02*
X161887935Y-98716065D01*
X149951600Y-60857000D02*
X149951600Y-60440400D01*
X149951600Y-60440400D02*
X151210000Y-59182000D01*
X138684000Y-93726000D02*
X138684000Y-79502000D01*
X138684000Y-79502000D02*
X138176000Y-78994000D01*
X139583000Y-72473736D02*
X141732000Y-70324736D01*
X139583000Y-72898000D02*
X139583000Y-72473736D01*
X141732000Y-61722000D02*
X140655000Y-60645000D01*
X141732000Y-70324736D02*
X141732000Y-61722000D01*
X153276600Y-57501200D02*
X157423300Y-61647900D01*
X157423300Y-61647900D02*
X157423300Y-85268400D01*
X157423300Y-85268400D02*
X146784800Y-95906900D01*
X146784800Y-95906900D02*
X146519700Y-95906900D01*
X148510000Y-59182000D02*
X148510000Y-58206700D01*
X146838100Y-55572300D02*
X146838100Y-56534800D01*
X146838100Y-56534800D02*
X148510000Y-58206700D01*
X132335000Y-68730000D02*
X132335000Y-68580000D01*
X130310000Y-70755000D02*
X132335000Y-68730000D01*
X87295000Y-70755000D02*
X130310000Y-70755000D01*
X153255759Y-61205451D02*
X152400000Y-60349692D01*
X152400000Y-60349692D02*
X152400000Y-58991500D01*
X152400000Y-58991500D02*
X152527000Y-58864500D01*
X155130500Y-74803000D02*
X155130500Y-76974000D01*
X155384500Y-78220000D02*
X155130500Y-78474000D01*
X155384500Y-77914500D02*
X155384500Y-78220000D01*
X145542000Y-87332736D02*
X145351500Y-87142236D01*
X145542000Y-87757000D02*
X145542000Y-87332736D01*
X145351500Y-87142236D02*
X145351500Y-77978000D01*
X146621500Y-76708000D02*
X149110000Y-76708000D01*
X145351500Y-77978000D02*
X146621500Y-76708000D01*
X150685500Y-76632500D02*
X150610000Y-76708000D01*
X150685500Y-75692000D02*
X150685500Y-76632500D01*
D28*
G36*
X165706344Y-50277738D02*
G01*
X166289595Y-50453832D01*
X166827529Y-50739856D01*
X167299667Y-51124922D01*
X167688019Y-51594359D01*
X167977794Y-52130286D01*
X168157955Y-52712291D01*
X168225000Y-53350189D01*
X168225001Y-55846353D01*
X168225001Y-73533000D01*
X162560000Y-73533000D01*
X162535224Y-73535440D01*
X162511399Y-73542667D01*
X162489443Y-73554403D01*
X162470197Y-73570197D01*
X162454403Y-73589443D01*
X162442667Y-73611399D01*
X162435440Y-73635224D01*
X162433000Y-73660000D01*
X162433000Y-91440000D01*
X162435440Y-91464776D01*
X162442667Y-91488601D01*
X162454403Y-91510557D01*
X162470197Y-91529803D01*
X162489443Y-91545597D01*
X162511399Y-91557333D01*
X162535224Y-91564560D01*
X162560000Y-91567000D01*
X168225000Y-91567000D01*
X168225000Y-94561719D01*
X168223169Y-94559839D01*
X168038678Y-94432997D01*
X167832987Y-94344585D01*
X167614000Y-94298000D01*
X167339000Y-94298000D01*
X167339000Y-95306000D01*
X167359000Y-95306000D01*
X167359000Y-95560000D01*
X167339000Y-95560000D01*
X167339000Y-96568000D01*
X167614000Y-96568000D01*
X167832987Y-96521415D01*
X168038678Y-96433003D01*
X168223169Y-96306161D01*
X168225000Y-96304281D01*
X168225000Y-101561720D01*
X168223169Y-101559839D01*
X168038678Y-101432997D01*
X167832987Y-101344585D01*
X167614000Y-101298000D01*
X167339000Y-101298000D01*
X167339000Y-102306000D01*
X167359000Y-102306000D01*
X167359000Y-102560000D01*
X167339000Y-102560000D01*
X167339000Y-102580000D01*
X167085000Y-102580000D01*
X167085000Y-102560000D01*
X165969046Y-102560000D01*
X165842881Y-102734874D01*
X165922724Y-102957976D01*
X166044631Y-103145764D01*
X166200831Y-103306161D01*
X166385322Y-103433003D01*
X166436498Y-103455000D01*
X139827000Y-103455000D01*
X139827000Y-101636911D01*
X141056900Y-101636911D01*
X141056900Y-101821089D01*
X141092832Y-102001729D01*
X141163314Y-102171889D01*
X141265638Y-102325028D01*
X141395872Y-102455262D01*
X141549011Y-102557586D01*
X141719171Y-102628068D01*
X141899811Y-102664000D01*
X142083989Y-102664000D01*
X142264629Y-102628068D01*
X142434789Y-102557586D01*
X142537435Y-102489000D01*
X150201678Y-102489000D01*
X150239000Y-102492676D01*
X150276322Y-102489000D01*
X150276333Y-102489000D01*
X150387986Y-102478003D01*
X150531247Y-102434546D01*
X150663276Y-102363974D01*
X150779001Y-102269001D01*
X150802804Y-102239997D01*
X151308670Y-101734131D01*
X163410770Y-101734131D01*
X163461414Y-101946066D01*
X163552431Y-102144049D01*
X163680324Y-102320471D01*
X163840178Y-102468553D01*
X164025850Y-102582603D01*
X164214062Y-102652268D01*
X164385000Y-102525734D01*
X164385000Y-101560000D01*
X164639000Y-101560000D01*
X164639000Y-102525734D01*
X164809938Y-102652268D01*
X164998150Y-102582603D01*
X165183822Y-102468553D01*
X165343676Y-102320471D01*
X165471569Y-102144049D01*
X165477509Y-102131126D01*
X165842881Y-102131126D01*
X165969046Y-102306000D01*
X167085000Y-102306000D01*
X167085000Y-101298000D01*
X166810000Y-101298000D01*
X166591013Y-101344585D01*
X166385322Y-101432997D01*
X166200831Y-101559839D01*
X166044631Y-101720236D01*
X165922724Y-101908024D01*
X165842881Y-102131126D01*
X165477509Y-102131126D01*
X165562586Y-101946066D01*
X165613230Y-101734131D01*
X165464564Y-101560000D01*
X164639000Y-101560000D01*
X164385000Y-101560000D01*
X163559436Y-101560000D01*
X163410770Y-101734131D01*
X151308670Y-101734131D01*
X151910932Y-101131869D01*
X163410770Y-101131869D01*
X163559436Y-101306000D01*
X164385000Y-101306000D01*
X164385000Y-100340266D01*
X164639000Y-100340266D01*
X164639000Y-101306000D01*
X165464564Y-101306000D01*
X165613230Y-101131869D01*
X165562586Y-100919934D01*
X165471569Y-100721951D01*
X165343676Y-100545529D01*
X165183822Y-100397447D01*
X164998150Y-100283397D01*
X164809938Y-100213732D01*
X164639000Y-100340266D01*
X164385000Y-100340266D01*
X164214062Y-100213732D01*
X164025850Y-100283397D01*
X163840178Y-100397447D01*
X163680324Y-100545529D01*
X163552431Y-100721951D01*
X163461414Y-100919934D01*
X163410770Y-101131869D01*
X151910932Y-101131869D01*
X153566737Y-99476065D01*
X161342400Y-99476065D01*
X161445046Y-99544651D01*
X161615206Y-99615133D01*
X161795846Y-99651065D01*
X161980024Y-99651065D01*
X162160664Y-99615133D01*
X162330824Y-99544651D01*
X162483963Y-99442327D01*
X162614197Y-99312093D01*
X162716521Y-99158954D01*
X162787003Y-98988794D01*
X162822935Y-98808154D01*
X162822935Y-98623976D01*
X162787003Y-98443336D01*
X162716521Y-98273176D01*
X162614197Y-98120037D01*
X162483963Y-97989803D01*
X162330824Y-97887479D01*
X162160664Y-97816997D01*
X161980024Y-97781065D01*
X161795846Y-97781065D01*
X161615206Y-97816997D01*
X161445046Y-97887479D01*
X161342400Y-97956065D01*
X153289268Y-97956065D01*
X153251935Y-97952388D01*
X153214602Y-97956065D01*
X153102949Y-97967062D01*
X152959688Y-98010519D01*
X152827659Y-98081091D01*
X152711934Y-98176064D01*
X152688136Y-98205062D01*
X149924199Y-100969000D01*
X142537435Y-100969000D01*
X142434789Y-100900414D01*
X142264629Y-100829932D01*
X142083989Y-100794000D01*
X141899811Y-100794000D01*
X141719171Y-100829932D01*
X141549011Y-100900414D01*
X141395872Y-101002738D01*
X141265638Y-101132972D01*
X141163314Y-101286111D01*
X141092832Y-101456271D01*
X141056900Y-101636911D01*
X139827000Y-101636911D01*
X139827000Y-99815300D01*
X147072778Y-99815300D01*
X147110100Y-99818976D01*
X147147422Y-99815300D01*
X147147433Y-99815300D01*
X147259086Y-99804303D01*
X147402347Y-99760846D01*
X147534376Y-99690274D01*
X147650101Y-99595301D01*
X147673904Y-99566297D01*
X150506070Y-96734131D01*
X163410770Y-96734131D01*
X163461414Y-96946066D01*
X163552431Y-97144049D01*
X163680324Y-97320471D01*
X163840178Y-97468553D01*
X164025850Y-97582603D01*
X164214062Y-97652268D01*
X164385000Y-97525734D01*
X164385000Y-96560000D01*
X164639000Y-96560000D01*
X164639000Y-97525734D01*
X164809938Y-97652268D01*
X164998150Y-97582603D01*
X165183822Y-97468553D01*
X165343676Y-97320471D01*
X165471569Y-97144049D01*
X165562586Y-96946066D01*
X165613230Y-96734131D01*
X165464564Y-96560000D01*
X164639000Y-96560000D01*
X164385000Y-96560000D01*
X163559436Y-96560000D01*
X163410770Y-96734131D01*
X150506070Y-96734131D01*
X158148700Y-89091502D01*
X158523447Y-89466249D01*
X158547532Y-89587329D01*
X158618014Y-89757489D01*
X158720338Y-89910628D01*
X158850572Y-90040862D01*
X159003711Y-90143186D01*
X159173871Y-90213668D01*
X159311900Y-90241124D01*
X159311900Y-91574211D01*
X156208613Y-94677500D01*
X156187311Y-94677500D01*
X156006671Y-94713432D01*
X155836511Y-94783914D01*
X155683372Y-94886238D01*
X155553138Y-95016472D01*
X155450814Y-95169611D01*
X155380332Y-95339771D01*
X155344400Y-95520411D01*
X155344400Y-95704589D01*
X155380332Y-95885229D01*
X155450814Y-96055389D01*
X155553138Y-96208528D01*
X155683372Y-96338762D01*
X155836511Y-96441086D01*
X156006671Y-96511568D01*
X156187311Y-96547500D01*
X156371489Y-96547500D01*
X156552129Y-96511568D01*
X156722289Y-96441086D01*
X156875428Y-96338762D01*
X157005662Y-96208528D01*
X157056883Y-96131869D01*
X163410770Y-96131869D01*
X163559436Y-96306000D01*
X164385000Y-96306000D01*
X164385000Y-95340266D01*
X164639000Y-95340266D01*
X164639000Y-96306000D01*
X165464564Y-96306000D01*
X165613230Y-96131869D01*
X165562586Y-95919934D01*
X165477510Y-95734874D01*
X165842881Y-95734874D01*
X165922724Y-95957976D01*
X166044631Y-96145764D01*
X166200831Y-96306161D01*
X166385322Y-96433003D01*
X166591013Y-96521415D01*
X166810000Y-96568000D01*
X167085000Y-96568000D01*
X167085000Y-95560000D01*
X165969046Y-95560000D01*
X165842881Y-95734874D01*
X165477510Y-95734874D01*
X165471569Y-95721951D01*
X165343676Y-95545529D01*
X165183822Y-95397447D01*
X164998150Y-95283397D01*
X164809938Y-95213732D01*
X164639000Y-95340266D01*
X164385000Y-95340266D01*
X164214062Y-95213732D01*
X164025850Y-95283397D01*
X163840178Y-95397447D01*
X163680324Y-95545529D01*
X163552431Y-95721951D01*
X163461414Y-95919934D01*
X163410770Y-96131869D01*
X157056883Y-96131869D01*
X157107986Y-96055389D01*
X157178468Y-95885229D01*
X157214400Y-95704589D01*
X157214400Y-95683287D01*
X157766561Y-95131126D01*
X165842881Y-95131126D01*
X165969046Y-95306000D01*
X167085000Y-95306000D01*
X167085000Y-94298000D01*
X166810000Y-94298000D01*
X166591013Y-94344585D01*
X166385322Y-94432997D01*
X166200831Y-94559839D01*
X166044631Y-94720236D01*
X165922724Y-94908024D01*
X165842881Y-95131126D01*
X157766561Y-95131126D01*
X159063941Y-93833747D01*
X159090532Y-93967429D01*
X159161014Y-94137589D01*
X159263338Y-94290728D01*
X159393572Y-94420962D01*
X159546711Y-94523286D01*
X159716871Y-94593768D01*
X159897511Y-94629700D01*
X160081689Y-94629700D01*
X160262329Y-94593768D01*
X160432489Y-94523286D01*
X160585628Y-94420962D01*
X160715862Y-94290728D01*
X160818186Y-94137589D01*
X160888668Y-93967429D01*
X160924600Y-93786789D01*
X160924600Y-93765489D01*
X160992700Y-93697389D01*
X161019826Y-93675127D01*
X161042088Y-93648001D01*
X161042098Y-93647991D01*
X161108702Y-93566833D01*
X161174742Y-93443282D01*
X161215409Y-93309220D01*
X161224540Y-93216510D01*
X161225700Y-93204736D01*
X161225700Y-93204729D01*
X161229140Y-93169800D01*
X161225700Y-93134872D01*
X161225700Y-63936028D01*
X161229140Y-63901100D01*
X161225700Y-63866171D01*
X161225700Y-63866164D01*
X161215409Y-63761680D01*
X161174742Y-63627619D01*
X161108702Y-63504067D01*
X161019827Y-63395773D01*
X160992691Y-63373503D01*
X154065602Y-56446415D01*
X154043327Y-56419273D01*
X153935033Y-56330398D01*
X153811481Y-56264358D01*
X153677420Y-56223691D01*
X153572936Y-56213400D01*
X153572926Y-56213400D01*
X153538000Y-56209960D01*
X153503074Y-56213400D01*
X151657628Y-56213400D01*
X151622700Y-56209960D01*
X151587771Y-56213400D01*
X151587764Y-56213400D01*
X151483280Y-56223691D01*
X151349219Y-56264358D01*
X151225667Y-56330398D01*
X151144509Y-56397002D01*
X151144504Y-56397007D01*
X151117373Y-56419273D01*
X151095107Y-56446404D01*
X149565981Y-57975532D01*
X149504180Y-57942498D01*
X149384482Y-57906188D01*
X149260000Y-57893928D01*
X149204575Y-57893928D01*
X149144974Y-57782424D01*
X149050001Y-57666699D01*
X149021003Y-57642901D01*
X147598100Y-56219999D01*
X147598100Y-56117835D01*
X147666686Y-56015189D01*
X147737168Y-55845029D01*
X147773100Y-55664389D01*
X147773100Y-55559300D01*
X165550510Y-55559300D01*
X165565572Y-55574362D01*
X165718711Y-55676686D01*
X165888871Y-55747168D01*
X166069511Y-55783100D01*
X166253689Y-55783100D01*
X166434329Y-55747168D01*
X166604489Y-55676686D01*
X166757628Y-55574362D01*
X166887862Y-55444128D01*
X166990186Y-55290989D01*
X167060668Y-55120829D01*
X167096600Y-54940189D01*
X167096600Y-54756011D01*
X167060668Y-54575371D01*
X166990186Y-54405211D01*
X166887862Y-54252072D01*
X166757628Y-54121838D01*
X166604489Y-54019514D01*
X166434329Y-53949032D01*
X166253689Y-53913100D01*
X166069511Y-53913100D01*
X165888871Y-53949032D01*
X165718711Y-54019514D01*
X165565572Y-54121838D01*
X165550510Y-54136900D01*
X146781928Y-54136900D01*
X146747000Y-54133460D01*
X146712071Y-54136900D01*
X146712064Y-54136900D01*
X146607580Y-54147191D01*
X146473518Y-54187858D01*
X146353383Y-54252072D01*
X146349967Y-54253898D01*
X146241673Y-54342773D01*
X146219402Y-54369910D01*
X145651810Y-54937503D01*
X145624673Y-54959774D01*
X145535798Y-55068068D01*
X145469758Y-55191620D01*
X145429091Y-55325681D01*
X145418800Y-55430165D01*
X145418800Y-55430174D01*
X145415360Y-55465100D01*
X145418800Y-55500026D01*
X145418801Y-58020928D01*
X145380000Y-58020928D01*
X145255518Y-58033188D01*
X145135820Y-58069498D01*
X145025506Y-58128463D01*
X144928815Y-58207815D01*
X144849463Y-58304506D01*
X144790498Y-58414820D01*
X144780000Y-58449427D01*
X144769502Y-58414820D01*
X144710537Y-58304506D01*
X144631185Y-58207815D01*
X144534494Y-58128463D01*
X144424180Y-58069498D01*
X144304482Y-58033188D01*
X144180000Y-58020928D01*
X144141200Y-58020928D01*
X144141200Y-57027328D01*
X144144640Y-56992400D01*
X144141200Y-56957471D01*
X144141200Y-56957464D01*
X144130909Y-56852980D01*
X144111344Y-56788482D01*
X144090242Y-56718918D01*
X144024202Y-56595367D01*
X143957598Y-56514210D01*
X143957597Y-56514209D01*
X143935327Y-56487073D01*
X143908190Y-56464802D01*
X143887600Y-56444212D01*
X143887600Y-56422911D01*
X143851668Y-56242271D01*
X143781186Y-56072111D01*
X143678862Y-55918972D01*
X143548628Y-55788738D01*
X143395489Y-55686414D01*
X143225329Y-55615932D01*
X143087600Y-55588536D01*
X143087600Y-51806020D01*
X143158028Y-51758962D01*
X143288262Y-51628728D01*
X143390586Y-51475589D01*
X143461068Y-51305429D01*
X143497000Y-51124789D01*
X143497000Y-50940611D01*
X143461068Y-50759971D01*
X143390586Y-50589811D01*
X143288262Y-50436672D01*
X143158028Y-50306438D01*
X143021181Y-50215000D01*
X165066496Y-50215000D01*
X165706344Y-50277738D01*
X165706344Y-50277738D01*
G37*
X165706344Y-50277738D02*
X166289595Y-50453832D01*
X166827529Y-50739856D01*
X167299667Y-51124922D01*
X167688019Y-51594359D01*
X167977794Y-52130286D01*
X168157955Y-52712291D01*
X168225000Y-53350189D01*
X168225001Y-55846353D01*
X168225001Y-73533000D01*
X162560000Y-73533000D01*
X162535224Y-73535440D01*
X162511399Y-73542667D01*
X162489443Y-73554403D01*
X162470197Y-73570197D01*
X162454403Y-73589443D01*
X162442667Y-73611399D01*
X162435440Y-73635224D01*
X162433000Y-73660000D01*
X162433000Y-91440000D01*
X162435440Y-91464776D01*
X162442667Y-91488601D01*
X162454403Y-91510557D01*
X162470197Y-91529803D01*
X162489443Y-91545597D01*
X162511399Y-91557333D01*
X162535224Y-91564560D01*
X162560000Y-91567000D01*
X168225000Y-91567000D01*
X168225000Y-94561719D01*
X168223169Y-94559839D01*
X168038678Y-94432997D01*
X167832987Y-94344585D01*
X167614000Y-94298000D01*
X167339000Y-94298000D01*
X167339000Y-95306000D01*
X167359000Y-95306000D01*
X167359000Y-95560000D01*
X167339000Y-95560000D01*
X167339000Y-96568000D01*
X167614000Y-96568000D01*
X167832987Y-96521415D01*
X168038678Y-96433003D01*
X168223169Y-96306161D01*
X168225000Y-96304281D01*
X168225000Y-101561720D01*
X168223169Y-101559839D01*
X168038678Y-101432997D01*
X167832987Y-101344585D01*
X167614000Y-101298000D01*
X167339000Y-101298000D01*
X167339000Y-102306000D01*
X167359000Y-102306000D01*
X167359000Y-102560000D01*
X167339000Y-102560000D01*
X167339000Y-102580000D01*
X167085000Y-102580000D01*
X167085000Y-102560000D01*
X165969046Y-102560000D01*
X165842881Y-102734874D01*
X165922724Y-102957976D01*
X166044631Y-103145764D01*
X166200831Y-103306161D01*
X166385322Y-103433003D01*
X166436498Y-103455000D01*
X139827000Y-103455000D01*
X139827000Y-101636911D01*
X141056900Y-101636911D01*
X141056900Y-101821089D01*
X141092832Y-102001729D01*
X141163314Y-102171889D01*
X141265638Y-102325028D01*
X141395872Y-102455262D01*
X141549011Y-102557586D01*
X141719171Y-102628068D01*
X141899811Y-102664000D01*
X142083989Y-102664000D01*
X142264629Y-102628068D01*
X142434789Y-102557586D01*
X142537435Y-102489000D01*
X150201678Y-102489000D01*
X150239000Y-102492676D01*
X150276322Y-102489000D01*
X150276333Y-102489000D01*
X150387986Y-102478003D01*
X150531247Y-102434546D01*
X150663276Y-102363974D01*
X150779001Y-102269001D01*
X150802804Y-102239997D01*
X151308670Y-101734131D01*
X163410770Y-101734131D01*
X163461414Y-101946066D01*
X163552431Y-102144049D01*
X163680324Y-102320471D01*
X163840178Y-102468553D01*
X164025850Y-102582603D01*
X164214062Y-102652268D01*
X164385000Y-102525734D01*
X164385000Y-101560000D01*
X164639000Y-101560000D01*
X164639000Y-102525734D01*
X164809938Y-102652268D01*
X164998150Y-102582603D01*
X165183822Y-102468553D01*
X165343676Y-102320471D01*
X165471569Y-102144049D01*
X165477509Y-102131126D01*
X165842881Y-102131126D01*
X165969046Y-102306000D01*
X167085000Y-102306000D01*
X167085000Y-101298000D01*
X166810000Y-101298000D01*
X166591013Y-101344585D01*
X166385322Y-101432997D01*
X166200831Y-101559839D01*
X166044631Y-101720236D01*
X165922724Y-101908024D01*
X165842881Y-102131126D01*
X165477509Y-102131126D01*
X165562586Y-101946066D01*
X165613230Y-101734131D01*
X165464564Y-101560000D01*
X164639000Y-101560000D01*
X164385000Y-101560000D01*
X163559436Y-101560000D01*
X163410770Y-101734131D01*
X151308670Y-101734131D01*
X151910932Y-101131869D01*
X163410770Y-101131869D01*
X163559436Y-101306000D01*
X164385000Y-101306000D01*
X164385000Y-100340266D01*
X164639000Y-100340266D01*
X164639000Y-101306000D01*
X165464564Y-101306000D01*
X165613230Y-101131869D01*
X165562586Y-100919934D01*
X165471569Y-100721951D01*
X165343676Y-100545529D01*
X165183822Y-100397447D01*
X164998150Y-100283397D01*
X164809938Y-100213732D01*
X164639000Y-100340266D01*
X164385000Y-100340266D01*
X164214062Y-100213732D01*
X164025850Y-100283397D01*
X163840178Y-100397447D01*
X163680324Y-100545529D01*
X163552431Y-100721951D01*
X163461414Y-100919934D01*
X163410770Y-101131869D01*
X151910932Y-101131869D01*
X153566737Y-99476065D01*
X161342400Y-99476065D01*
X161445046Y-99544651D01*
X161615206Y-99615133D01*
X161795846Y-99651065D01*
X161980024Y-99651065D01*
X162160664Y-99615133D01*
X162330824Y-99544651D01*
X162483963Y-99442327D01*
X162614197Y-99312093D01*
X162716521Y-99158954D01*
X162787003Y-98988794D01*
X162822935Y-98808154D01*
X162822935Y-98623976D01*
X162787003Y-98443336D01*
X162716521Y-98273176D01*
X162614197Y-98120037D01*
X162483963Y-97989803D01*
X162330824Y-97887479D01*
X162160664Y-97816997D01*
X161980024Y-97781065D01*
X161795846Y-97781065D01*
X161615206Y-97816997D01*
X161445046Y-97887479D01*
X161342400Y-97956065D01*
X153289268Y-97956065D01*
X153251935Y-97952388D01*
X153214602Y-97956065D01*
X153102949Y-97967062D01*
X152959688Y-98010519D01*
X152827659Y-98081091D01*
X152711934Y-98176064D01*
X152688136Y-98205062D01*
X149924199Y-100969000D01*
X142537435Y-100969000D01*
X142434789Y-100900414D01*
X142264629Y-100829932D01*
X142083989Y-100794000D01*
X141899811Y-100794000D01*
X141719171Y-100829932D01*
X141549011Y-100900414D01*
X141395872Y-101002738D01*
X141265638Y-101132972D01*
X141163314Y-101286111D01*
X141092832Y-101456271D01*
X141056900Y-101636911D01*
X139827000Y-101636911D01*
X139827000Y-99815300D01*
X147072778Y-99815300D01*
X147110100Y-99818976D01*
X147147422Y-99815300D01*
X147147433Y-99815300D01*
X147259086Y-99804303D01*
X147402347Y-99760846D01*
X147534376Y-99690274D01*
X147650101Y-99595301D01*
X147673904Y-99566297D01*
X150506070Y-96734131D01*
X163410770Y-96734131D01*
X163461414Y-96946066D01*
X163552431Y-97144049D01*
X163680324Y-97320471D01*
X163840178Y-97468553D01*
X164025850Y-97582603D01*
X164214062Y-97652268D01*
X164385000Y-97525734D01*
X164385000Y-96560000D01*
X164639000Y-96560000D01*
X164639000Y-97525734D01*
X164809938Y-97652268D01*
X164998150Y-97582603D01*
X165183822Y-97468553D01*
X165343676Y-97320471D01*
X165471569Y-97144049D01*
X165562586Y-96946066D01*
X165613230Y-96734131D01*
X165464564Y-96560000D01*
X164639000Y-96560000D01*
X164385000Y-96560000D01*
X163559436Y-96560000D01*
X163410770Y-96734131D01*
X150506070Y-96734131D01*
X158148700Y-89091502D01*
X158523447Y-89466249D01*
X158547532Y-89587329D01*
X158618014Y-89757489D01*
X158720338Y-89910628D01*
X158850572Y-90040862D01*
X159003711Y-90143186D01*
X159173871Y-90213668D01*
X159311900Y-90241124D01*
X159311900Y-91574211D01*
X156208613Y-94677500D01*
X156187311Y-94677500D01*
X156006671Y-94713432D01*
X155836511Y-94783914D01*
X155683372Y-94886238D01*
X155553138Y-95016472D01*
X155450814Y-95169611D01*
X155380332Y-95339771D01*
X155344400Y-95520411D01*
X155344400Y-95704589D01*
X155380332Y-95885229D01*
X155450814Y-96055389D01*
X155553138Y-96208528D01*
X155683372Y-96338762D01*
X155836511Y-96441086D01*
X156006671Y-96511568D01*
X156187311Y-96547500D01*
X156371489Y-96547500D01*
X156552129Y-96511568D01*
X156722289Y-96441086D01*
X156875428Y-96338762D01*
X157005662Y-96208528D01*
X157056883Y-96131869D01*
X163410770Y-96131869D01*
X163559436Y-96306000D01*
X164385000Y-96306000D01*
X164385000Y-95340266D01*
X164639000Y-95340266D01*
X164639000Y-96306000D01*
X165464564Y-96306000D01*
X165613230Y-96131869D01*
X165562586Y-95919934D01*
X165477510Y-95734874D01*
X165842881Y-95734874D01*
X165922724Y-95957976D01*
X166044631Y-96145764D01*
X166200831Y-96306161D01*
X166385322Y-96433003D01*
X166591013Y-96521415D01*
X166810000Y-96568000D01*
X167085000Y-96568000D01*
X167085000Y-95560000D01*
X165969046Y-95560000D01*
X165842881Y-95734874D01*
X165477510Y-95734874D01*
X165471569Y-95721951D01*
X165343676Y-95545529D01*
X165183822Y-95397447D01*
X164998150Y-95283397D01*
X164809938Y-95213732D01*
X164639000Y-95340266D01*
X164385000Y-95340266D01*
X164214062Y-95213732D01*
X164025850Y-95283397D01*
X163840178Y-95397447D01*
X163680324Y-95545529D01*
X163552431Y-95721951D01*
X163461414Y-95919934D01*
X163410770Y-96131869D01*
X157056883Y-96131869D01*
X157107986Y-96055389D01*
X157178468Y-95885229D01*
X157214400Y-95704589D01*
X157214400Y-95683287D01*
X157766561Y-95131126D01*
X165842881Y-95131126D01*
X165969046Y-95306000D01*
X167085000Y-95306000D01*
X167085000Y-94298000D01*
X166810000Y-94298000D01*
X166591013Y-94344585D01*
X166385322Y-94432997D01*
X166200831Y-94559839D01*
X166044631Y-94720236D01*
X165922724Y-94908024D01*
X165842881Y-95131126D01*
X157766561Y-95131126D01*
X159063941Y-93833747D01*
X159090532Y-93967429D01*
X159161014Y-94137589D01*
X159263338Y-94290728D01*
X159393572Y-94420962D01*
X159546711Y-94523286D01*
X159716871Y-94593768D01*
X159897511Y-94629700D01*
X160081689Y-94629700D01*
X160262329Y-94593768D01*
X160432489Y-94523286D01*
X160585628Y-94420962D01*
X160715862Y-94290728D01*
X160818186Y-94137589D01*
X160888668Y-93967429D01*
X160924600Y-93786789D01*
X160924600Y-93765489D01*
X160992700Y-93697389D01*
X161019826Y-93675127D01*
X161042088Y-93648001D01*
X161042098Y-93647991D01*
X161108702Y-93566833D01*
X161174742Y-93443282D01*
X161215409Y-93309220D01*
X161224540Y-93216510D01*
X161225700Y-93204736D01*
X161225700Y-93204729D01*
X161229140Y-93169800D01*
X161225700Y-93134872D01*
X161225700Y-63936028D01*
X161229140Y-63901100D01*
X161225700Y-63866171D01*
X161225700Y-63866164D01*
X161215409Y-63761680D01*
X161174742Y-63627619D01*
X161108702Y-63504067D01*
X161019827Y-63395773D01*
X160992691Y-63373503D01*
X154065602Y-56446415D01*
X154043327Y-56419273D01*
X153935033Y-56330398D01*
X153811481Y-56264358D01*
X153677420Y-56223691D01*
X153572936Y-56213400D01*
X153572926Y-56213400D01*
X153538000Y-56209960D01*
X153503074Y-56213400D01*
X151657628Y-56213400D01*
X151622700Y-56209960D01*
X151587771Y-56213400D01*
X151587764Y-56213400D01*
X151483280Y-56223691D01*
X151349219Y-56264358D01*
X151225667Y-56330398D01*
X151144509Y-56397002D01*
X151144504Y-56397007D01*
X151117373Y-56419273D01*
X151095107Y-56446404D01*
X149565981Y-57975532D01*
X149504180Y-57942498D01*
X149384482Y-57906188D01*
X149260000Y-57893928D01*
X149204575Y-57893928D01*
X149144974Y-57782424D01*
X149050001Y-57666699D01*
X149021003Y-57642901D01*
X147598100Y-56219999D01*
X147598100Y-56117835D01*
X147666686Y-56015189D01*
X147737168Y-55845029D01*
X147773100Y-55664389D01*
X147773100Y-55559300D01*
X165550510Y-55559300D01*
X165565572Y-55574362D01*
X165718711Y-55676686D01*
X165888871Y-55747168D01*
X166069511Y-55783100D01*
X166253689Y-55783100D01*
X166434329Y-55747168D01*
X166604489Y-55676686D01*
X166757628Y-55574362D01*
X166887862Y-55444128D01*
X166990186Y-55290989D01*
X167060668Y-55120829D01*
X167096600Y-54940189D01*
X167096600Y-54756011D01*
X167060668Y-54575371D01*
X166990186Y-54405211D01*
X166887862Y-54252072D01*
X166757628Y-54121838D01*
X166604489Y-54019514D01*
X166434329Y-53949032D01*
X166253689Y-53913100D01*
X166069511Y-53913100D01*
X165888871Y-53949032D01*
X165718711Y-54019514D01*
X165565572Y-54121838D01*
X165550510Y-54136900D01*
X146781928Y-54136900D01*
X146747000Y-54133460D01*
X146712071Y-54136900D01*
X146712064Y-54136900D01*
X146607580Y-54147191D01*
X146473518Y-54187858D01*
X146353383Y-54252072D01*
X146349967Y-54253898D01*
X146241673Y-54342773D01*
X146219402Y-54369910D01*
X145651810Y-54937503D01*
X145624673Y-54959774D01*
X145535798Y-55068068D01*
X145469758Y-55191620D01*
X145429091Y-55325681D01*
X145418800Y-55430165D01*
X145418800Y-55430174D01*
X145415360Y-55465100D01*
X145418800Y-55500026D01*
X145418801Y-58020928D01*
X145380000Y-58020928D01*
X145255518Y-58033188D01*
X145135820Y-58069498D01*
X145025506Y-58128463D01*
X144928815Y-58207815D01*
X144849463Y-58304506D01*
X144790498Y-58414820D01*
X144780000Y-58449427D01*
X144769502Y-58414820D01*
X144710537Y-58304506D01*
X144631185Y-58207815D01*
X144534494Y-58128463D01*
X144424180Y-58069498D01*
X144304482Y-58033188D01*
X144180000Y-58020928D01*
X144141200Y-58020928D01*
X144141200Y-57027328D01*
X144144640Y-56992400D01*
X144141200Y-56957471D01*
X144141200Y-56957464D01*
X144130909Y-56852980D01*
X144111344Y-56788482D01*
X144090242Y-56718918D01*
X144024202Y-56595367D01*
X143957598Y-56514210D01*
X143957597Y-56514209D01*
X143935327Y-56487073D01*
X143908190Y-56464802D01*
X143887600Y-56444212D01*
X143887600Y-56422911D01*
X143851668Y-56242271D01*
X143781186Y-56072111D01*
X143678862Y-55918972D01*
X143548628Y-55788738D01*
X143395489Y-55686414D01*
X143225329Y-55615932D01*
X143087600Y-55588536D01*
X143087600Y-51806020D01*
X143158028Y-51758962D01*
X143288262Y-51628728D01*
X143390586Y-51475589D01*
X143461068Y-51305429D01*
X143497000Y-51124789D01*
X143497000Y-50940611D01*
X143461068Y-50759971D01*
X143390586Y-50589811D01*
X143288262Y-50436672D01*
X143158028Y-50306438D01*
X143021181Y-50215000D01*
X165066496Y-50215000D01*
X165706344Y-50277738D01*
G36*
X157388700Y-87701898D02*
G01*
X146795299Y-98295300D01*
X139827000Y-98295300D01*
X139827000Y-95678300D01*
X145611854Y-95678300D01*
X145584700Y-95814811D01*
X145584700Y-95998989D01*
X145620632Y-96179629D01*
X145691114Y-96349789D01*
X145793438Y-96502928D01*
X145923672Y-96633162D01*
X146076811Y-96735486D01*
X146246971Y-96805968D01*
X146427611Y-96841900D01*
X146611789Y-96841900D01*
X146792429Y-96805968D01*
X146962589Y-96735486D01*
X147115728Y-96633162D01*
X147204650Y-96544240D01*
X147209076Y-96541874D01*
X147324801Y-96446901D01*
X147348604Y-96417897D01*
X157388700Y-86377802D01*
X157388700Y-87701898D01*
X157388700Y-87701898D01*
G37*
X157388700Y-87701898D02*
X146795299Y-98295300D01*
X139827000Y-98295300D01*
X139827000Y-95678300D01*
X145611854Y-95678300D01*
X145584700Y-95814811D01*
X145584700Y-95998989D01*
X145620632Y-96179629D01*
X145691114Y-96349789D01*
X145793438Y-96502928D01*
X145923672Y-96633162D01*
X146076811Y-96735486D01*
X146246971Y-96805968D01*
X146427611Y-96841900D01*
X146611789Y-96841900D01*
X146792429Y-96805968D01*
X146962589Y-96735486D01*
X147115728Y-96633162D01*
X147204650Y-96544240D01*
X147209076Y-96541874D01*
X147324801Y-96446901D01*
X147348604Y-96417897D01*
X157388700Y-86377802D01*
X157388700Y-87701898D01*
G36*
X144840498Y-77414201D02*
G01*
X144811500Y-77437999D01*
X144787702Y-77466997D01*
X144787701Y-77466998D01*
X144716526Y-77553724D01*
X144645954Y-77685754D01*
X144632664Y-77729567D01*
X144607204Y-77813502D01*
X144602498Y-77829015D01*
X144587824Y-77978000D01*
X144591501Y-78015332D01*
X144591500Y-87104914D01*
X144587824Y-87142236D01*
X144591500Y-87179558D01*
X144591500Y-87179568D01*
X144602497Y-87291221D01*
X144629951Y-87381726D01*
X144645954Y-87434482D01*
X144655871Y-87453034D01*
X144642932Y-87484271D01*
X144607000Y-87664911D01*
X144607000Y-87849089D01*
X144642932Y-88029729D01*
X144713414Y-88199889D01*
X144815738Y-88353028D01*
X144916104Y-88453394D01*
X144780352Y-88589147D01*
X144659271Y-88613232D01*
X144489111Y-88683714D01*
X144335972Y-88786038D01*
X144205738Y-88916272D01*
X144103414Y-89069411D01*
X144032932Y-89239571D01*
X143997000Y-89420211D01*
X143997000Y-89604389D01*
X144032932Y-89785029D01*
X144103414Y-89955189D01*
X144205738Y-90108328D01*
X144335972Y-90238562D01*
X144489111Y-90340886D01*
X144659271Y-90411368D01*
X144839911Y-90447300D01*
X145024089Y-90447300D01*
X145204729Y-90411368D01*
X145374889Y-90340886D01*
X145528028Y-90238562D01*
X145658262Y-90108328D01*
X145760586Y-89955189D01*
X145831068Y-89785029D01*
X145855153Y-89663948D01*
X153416000Y-82103102D01*
X153416000Y-85050871D01*
X153273572Y-85146038D01*
X153143338Y-85276272D01*
X153041014Y-85429411D01*
X152970532Y-85599571D01*
X152934600Y-85780211D01*
X152934600Y-85964389D01*
X152970532Y-86145029D01*
X153041014Y-86315189D01*
X153143338Y-86468328D01*
X153198104Y-86523094D01*
X151220952Y-88500247D01*
X151099871Y-88524332D01*
X150929711Y-88594814D01*
X150776572Y-88697138D01*
X150646338Y-88827372D01*
X150544014Y-88980511D01*
X150473532Y-89150671D01*
X150449447Y-89271751D01*
X146013299Y-93707900D01*
X139827000Y-93707900D01*
X139827000Y-78865000D01*
X142914465Y-78865000D01*
X143017111Y-78933586D01*
X143187271Y-79004068D01*
X143367911Y-79040000D01*
X143552089Y-79040000D01*
X143732729Y-79004068D01*
X143902889Y-78933586D01*
X144056028Y-78831262D01*
X144186262Y-78701028D01*
X144288586Y-78547889D01*
X144359068Y-78377729D01*
X144395000Y-78197089D01*
X144395000Y-78012911D01*
X144359068Y-77832271D01*
X144288586Y-77662111D01*
X144186262Y-77508972D01*
X144056028Y-77378738D01*
X143902889Y-77276414D01*
X143732729Y-77205932D01*
X143552089Y-77170000D01*
X143367911Y-77170000D01*
X143187271Y-77205932D01*
X143017111Y-77276414D01*
X142914465Y-77345000D01*
X140500207Y-77345000D01*
X140650889Y-77282586D01*
X140804028Y-77180262D01*
X140934262Y-77050028D01*
X141036586Y-76896889D01*
X141107068Y-76726729D01*
X141143000Y-76546089D01*
X141143000Y-76361911D01*
X141110396Y-76198000D01*
X146056698Y-76198000D01*
X144840498Y-77414201D01*
X144840498Y-77414201D01*
G37*
X144840498Y-77414201D02*
X144811500Y-77437999D01*
X144787702Y-77466997D01*
X144787701Y-77466998D01*
X144716526Y-77553724D01*
X144645954Y-77685754D01*
X144632664Y-77729567D01*
X144607204Y-77813502D01*
X144602498Y-77829015D01*
X144587824Y-77978000D01*
X144591501Y-78015332D01*
X144591500Y-87104914D01*
X144587824Y-87142236D01*
X144591500Y-87179558D01*
X144591500Y-87179568D01*
X144602497Y-87291221D01*
X144629951Y-87381726D01*
X144645954Y-87434482D01*
X144655871Y-87453034D01*
X144642932Y-87484271D01*
X144607000Y-87664911D01*
X144607000Y-87849089D01*
X144642932Y-88029729D01*
X144713414Y-88199889D01*
X144815738Y-88353028D01*
X144916104Y-88453394D01*
X144780352Y-88589147D01*
X144659271Y-88613232D01*
X144489111Y-88683714D01*
X144335972Y-88786038D01*
X144205738Y-88916272D01*
X144103414Y-89069411D01*
X144032932Y-89239571D01*
X143997000Y-89420211D01*
X143997000Y-89604389D01*
X144032932Y-89785029D01*
X144103414Y-89955189D01*
X144205738Y-90108328D01*
X144335972Y-90238562D01*
X144489111Y-90340886D01*
X144659271Y-90411368D01*
X144839911Y-90447300D01*
X145024089Y-90447300D01*
X145204729Y-90411368D01*
X145374889Y-90340886D01*
X145528028Y-90238562D01*
X145658262Y-90108328D01*
X145760586Y-89955189D01*
X145831068Y-89785029D01*
X145855153Y-89663948D01*
X153416000Y-82103102D01*
X153416000Y-85050871D01*
X153273572Y-85146038D01*
X153143338Y-85276272D01*
X153041014Y-85429411D01*
X152970532Y-85599571D01*
X152934600Y-85780211D01*
X152934600Y-85964389D01*
X152970532Y-86145029D01*
X153041014Y-86315189D01*
X153143338Y-86468328D01*
X153198104Y-86523094D01*
X151220952Y-88500247D01*
X151099871Y-88524332D01*
X150929711Y-88594814D01*
X150776572Y-88697138D01*
X150646338Y-88827372D01*
X150544014Y-88980511D01*
X150473532Y-89150671D01*
X150449447Y-89271751D01*
X146013299Y-93707900D01*
X139827000Y-93707900D01*
X139827000Y-78865000D01*
X142914465Y-78865000D01*
X143017111Y-78933586D01*
X143187271Y-79004068D01*
X143367911Y-79040000D01*
X143552089Y-79040000D01*
X143732729Y-79004068D01*
X143902889Y-78933586D01*
X144056028Y-78831262D01*
X144186262Y-78701028D01*
X144288586Y-78547889D01*
X144359068Y-78377729D01*
X144395000Y-78197089D01*
X144395000Y-78012911D01*
X144359068Y-77832271D01*
X144288586Y-77662111D01*
X144186262Y-77508972D01*
X144056028Y-77378738D01*
X143902889Y-77276414D01*
X143732729Y-77205932D01*
X143552089Y-77170000D01*
X143367911Y-77170000D01*
X143187271Y-77205932D01*
X143017111Y-77276414D01*
X142914465Y-77345000D01*
X140500207Y-77345000D01*
X140650889Y-77282586D01*
X140804028Y-77180262D01*
X140934262Y-77050028D01*
X141036586Y-76896889D01*
X141107068Y-76726729D01*
X141143000Y-76546089D01*
X141143000Y-76361911D01*
X141110396Y-76198000D01*
X146056698Y-76198000D01*
X144840498Y-77414201D01*
G36*
X151090000Y-65024000D02*
G01*
X151110000Y-65024000D01*
X151110000Y-65278000D01*
X151090000Y-65278000D01*
X151090000Y-66252250D01*
X151248750Y-66411000D01*
X151713000Y-66414072D01*
X151797701Y-66405730D01*
X151797701Y-67173706D01*
X151666429Y-67119332D01*
X151485789Y-67083400D01*
X151301611Y-67083400D01*
X151120971Y-67119332D01*
X150950811Y-67189814D01*
X150797672Y-67292138D01*
X150667438Y-67422372D01*
X150565114Y-67575511D01*
X150494632Y-67745671D01*
X150458700Y-67926311D01*
X150458700Y-68110489D01*
X150494632Y-68291129D01*
X150565114Y-68461289D01*
X150667438Y-68614428D01*
X150797672Y-68744662D01*
X150950811Y-68846986D01*
X151120971Y-68917468D01*
X151165400Y-68926306D01*
X151165400Y-72623456D01*
X151027271Y-72650932D01*
X150857111Y-72721414D01*
X150703972Y-72823738D01*
X150573738Y-72953972D01*
X150471414Y-73107111D01*
X150400932Y-73277271D01*
X150376847Y-73398351D01*
X149097199Y-74678000D01*
X147436801Y-74678000D01*
X147641649Y-74473153D01*
X147762729Y-74449068D01*
X147932889Y-74378586D01*
X148086028Y-74276262D01*
X148216262Y-74146028D01*
X148318586Y-73992889D01*
X148389068Y-73822729D01*
X148425000Y-73642089D01*
X148425000Y-73457911D01*
X148389068Y-73277271D01*
X148318586Y-73107111D01*
X148216262Y-72953972D01*
X148086028Y-72823738D01*
X147932889Y-72721414D01*
X147762729Y-72650932D01*
X147582089Y-72615000D01*
X147397911Y-72615000D01*
X147217271Y-72650932D01*
X147047111Y-72721414D01*
X146893972Y-72823738D01*
X146763738Y-72953972D01*
X146661414Y-73107111D01*
X146590932Y-73277271D01*
X146566847Y-73398351D01*
X146303199Y-73662000D01*
X145881039Y-73662000D01*
X145885000Y-73642089D01*
X145885000Y-73457911D01*
X145849068Y-73277271D01*
X145778586Y-73107111D01*
X145676262Y-72953972D01*
X145546028Y-72823738D01*
X145392889Y-72721414D01*
X145222729Y-72650932D01*
X145101649Y-72626847D01*
X144099804Y-71625003D01*
X144076001Y-71595999D01*
X143960276Y-71501026D01*
X143828247Y-71430454D01*
X143684986Y-71386997D01*
X143573333Y-71376000D01*
X143573322Y-71376000D01*
X143536000Y-71372324D01*
X143498678Y-71376000D01*
X141755538Y-71376000D01*
X142243004Y-70888534D01*
X142272001Y-70864737D01*
X142298332Y-70832653D01*
X142366974Y-70749013D01*
X142437546Y-70616983D01*
X142449726Y-70576829D01*
X142481003Y-70473722D01*
X142492000Y-70362069D01*
X142492000Y-70362059D01*
X142495676Y-70324736D01*
X142492000Y-70287413D01*
X142492000Y-66263734D01*
X142528518Y-66274812D01*
X142653000Y-66287072D01*
X142818761Y-66287072D01*
X142834736Y-66306537D01*
X142897674Y-66383227D01*
X142924810Y-66405497D01*
X143416302Y-66896990D01*
X143438573Y-66924127D01*
X143546867Y-67013002D01*
X143670419Y-67079042D01*
X143804480Y-67119709D01*
X143908964Y-67130000D01*
X143908973Y-67130000D01*
X143943899Y-67133440D01*
X143978825Y-67130000D01*
X147329314Y-67130000D01*
X147346238Y-67155328D01*
X147476472Y-67285562D01*
X147629611Y-67387886D01*
X147799771Y-67458368D01*
X147980411Y-67494300D01*
X148164589Y-67494300D01*
X148345229Y-67458368D01*
X148515389Y-67387886D01*
X148668528Y-67285562D01*
X148798762Y-67155328D01*
X148901086Y-67002189D01*
X148971568Y-66832029D01*
X149007500Y-66651389D01*
X149007500Y-66467211D01*
X149006745Y-66463415D01*
X149047240Y-66414072D01*
X149213000Y-66414072D01*
X149337482Y-66401812D01*
X149457180Y-66365502D01*
X149567494Y-66306537D01*
X149664185Y-66227185D01*
X149713000Y-66167704D01*
X149761815Y-66227185D01*
X149858506Y-66306537D01*
X149968820Y-66365502D01*
X150088518Y-66401812D01*
X150213000Y-66414072D01*
X150677250Y-66411000D01*
X150836000Y-66252250D01*
X150836000Y-65278000D01*
X150816000Y-65278000D01*
X150816000Y-65024000D01*
X150836000Y-65024000D01*
X150836000Y-65004000D01*
X151090000Y-65004000D01*
X151090000Y-65024000D01*
X151090000Y-65024000D01*
G37*
X151090000Y-65024000D02*
X151110000Y-65024000D01*
X151110000Y-65278000D01*
X151090000Y-65278000D01*
X151090000Y-66252250D01*
X151248750Y-66411000D01*
X151713000Y-66414072D01*
X151797701Y-66405730D01*
X151797701Y-67173706D01*
X151666429Y-67119332D01*
X151485789Y-67083400D01*
X151301611Y-67083400D01*
X151120971Y-67119332D01*
X150950811Y-67189814D01*
X150797672Y-67292138D01*
X150667438Y-67422372D01*
X150565114Y-67575511D01*
X150494632Y-67745671D01*
X150458700Y-67926311D01*
X150458700Y-68110489D01*
X150494632Y-68291129D01*
X150565114Y-68461289D01*
X150667438Y-68614428D01*
X150797672Y-68744662D01*
X150950811Y-68846986D01*
X151120971Y-68917468D01*
X151165400Y-68926306D01*
X151165400Y-72623456D01*
X151027271Y-72650932D01*
X150857111Y-72721414D01*
X150703972Y-72823738D01*
X150573738Y-72953972D01*
X150471414Y-73107111D01*
X150400932Y-73277271D01*
X150376847Y-73398351D01*
X149097199Y-74678000D01*
X147436801Y-74678000D01*
X147641649Y-74473153D01*
X147762729Y-74449068D01*
X147932889Y-74378586D01*
X148086028Y-74276262D01*
X148216262Y-74146028D01*
X148318586Y-73992889D01*
X148389068Y-73822729D01*
X148425000Y-73642089D01*
X148425000Y-73457911D01*
X148389068Y-73277271D01*
X148318586Y-73107111D01*
X148216262Y-72953972D01*
X148086028Y-72823738D01*
X147932889Y-72721414D01*
X147762729Y-72650932D01*
X147582089Y-72615000D01*
X147397911Y-72615000D01*
X147217271Y-72650932D01*
X147047111Y-72721414D01*
X146893972Y-72823738D01*
X146763738Y-72953972D01*
X146661414Y-73107111D01*
X146590932Y-73277271D01*
X146566847Y-73398351D01*
X146303199Y-73662000D01*
X145881039Y-73662000D01*
X145885000Y-73642089D01*
X145885000Y-73457911D01*
X145849068Y-73277271D01*
X145778586Y-73107111D01*
X145676262Y-72953972D01*
X145546028Y-72823738D01*
X145392889Y-72721414D01*
X145222729Y-72650932D01*
X145101649Y-72626847D01*
X144099804Y-71625003D01*
X144076001Y-71595999D01*
X143960276Y-71501026D01*
X143828247Y-71430454D01*
X143684986Y-71386997D01*
X143573333Y-71376000D01*
X143573322Y-71376000D01*
X143536000Y-71372324D01*
X143498678Y-71376000D01*
X141755538Y-71376000D01*
X142243004Y-70888534D01*
X142272001Y-70864737D01*
X142298332Y-70832653D01*
X142366974Y-70749013D01*
X142437546Y-70616983D01*
X142449726Y-70576829D01*
X142481003Y-70473722D01*
X142492000Y-70362069D01*
X142492000Y-70362059D01*
X142495676Y-70324736D01*
X142492000Y-70287413D01*
X142492000Y-66263734D01*
X142528518Y-66274812D01*
X142653000Y-66287072D01*
X142818761Y-66287072D01*
X142834736Y-66306537D01*
X142897674Y-66383227D01*
X142924810Y-66405497D01*
X143416302Y-66896990D01*
X143438573Y-66924127D01*
X143546867Y-67013002D01*
X143670419Y-67079042D01*
X143804480Y-67119709D01*
X143908964Y-67130000D01*
X143908973Y-67130000D01*
X143943899Y-67133440D01*
X143978825Y-67130000D01*
X147329314Y-67130000D01*
X147346238Y-67155328D01*
X147476472Y-67285562D01*
X147629611Y-67387886D01*
X147799771Y-67458368D01*
X147980411Y-67494300D01*
X148164589Y-67494300D01*
X148345229Y-67458368D01*
X148515389Y-67387886D01*
X148668528Y-67285562D01*
X148798762Y-67155328D01*
X148901086Y-67002189D01*
X148971568Y-66832029D01*
X149007500Y-66651389D01*
X149007500Y-66467211D01*
X149006745Y-66463415D01*
X149047240Y-66414072D01*
X149213000Y-66414072D01*
X149337482Y-66401812D01*
X149457180Y-66365502D01*
X149567494Y-66306537D01*
X149664185Y-66227185D01*
X149713000Y-66167704D01*
X149761815Y-66227185D01*
X149858506Y-66306537D01*
X149968820Y-66365502D01*
X150088518Y-66401812D01*
X150213000Y-66414072D01*
X150677250Y-66411000D01*
X150836000Y-66252250D01*
X150836000Y-65278000D01*
X150816000Y-65278000D01*
X150816000Y-65024000D01*
X150836000Y-65024000D01*
X150836000Y-65004000D01*
X151090000Y-65004000D01*
X151090000Y-65024000D01*
G36*
X156663300Y-61962703D02*
G01*
X156663300Y-63325835D01*
X156489371Y-63360432D01*
X156319211Y-63430914D01*
X156166072Y-63533238D01*
X156035838Y-63663472D01*
X155933514Y-63816611D01*
X155863032Y-63986771D01*
X155827100Y-64167411D01*
X155827100Y-64351589D01*
X155863032Y-64532229D01*
X155933514Y-64702389D01*
X156002101Y-64805037D01*
X156002100Y-74463958D01*
X155959086Y-74360111D01*
X155856762Y-74206972D01*
X155726528Y-74076738D01*
X155573389Y-73974414D01*
X155403229Y-73903932D01*
X155222589Y-73868000D01*
X155038411Y-73868000D01*
X154936000Y-73888371D01*
X154936000Y-64456023D01*
X154939676Y-64418700D01*
X154936000Y-64381377D01*
X154936000Y-64381367D01*
X154925003Y-64269714D01*
X154881546Y-64126453D01*
X154810974Y-63994424D01*
X154716001Y-63878699D01*
X154687003Y-63854901D01*
X152903804Y-62071703D01*
X152983030Y-62104519D01*
X153163670Y-62140451D01*
X153347848Y-62140451D01*
X153528488Y-62104519D01*
X153698648Y-62034037D01*
X153851787Y-61931713D01*
X153982021Y-61801479D01*
X154084345Y-61648340D01*
X154154827Y-61478180D01*
X154190759Y-61297540D01*
X154190759Y-61113362D01*
X154154827Y-60932722D01*
X154084345Y-60762562D01*
X153982021Y-60609423D01*
X153851787Y-60479189D01*
X153698648Y-60376865D01*
X153528488Y-60306383D01*
X153407408Y-60282298D01*
X153160000Y-60034891D01*
X153160000Y-59553790D01*
X153253262Y-59460528D01*
X153355586Y-59307389D01*
X153426068Y-59137229D01*
X153462000Y-58956589D01*
X153462000Y-58772411D01*
X153459266Y-58758668D01*
X156663300Y-61962703D01*
X156663300Y-61962703D01*
G37*
X156663300Y-61962703D02*
X156663300Y-63325835D01*
X156489371Y-63360432D01*
X156319211Y-63430914D01*
X156166072Y-63533238D01*
X156035838Y-63663472D01*
X155933514Y-63816611D01*
X155863032Y-63986771D01*
X155827100Y-64167411D01*
X155827100Y-64351589D01*
X155863032Y-64532229D01*
X155933514Y-64702389D01*
X156002101Y-64805037D01*
X156002100Y-74463958D01*
X155959086Y-74360111D01*
X155856762Y-74206972D01*
X155726528Y-74076738D01*
X155573389Y-73974414D01*
X155403229Y-73903932D01*
X155222589Y-73868000D01*
X155038411Y-73868000D01*
X154936000Y-73888371D01*
X154936000Y-64456023D01*
X154939676Y-64418700D01*
X154936000Y-64381377D01*
X154936000Y-64381367D01*
X154925003Y-64269714D01*
X154881546Y-64126453D01*
X154810974Y-63994424D01*
X154716001Y-63878699D01*
X154687003Y-63854901D01*
X152903804Y-62071703D01*
X152983030Y-62104519D01*
X153163670Y-62140451D01*
X153347848Y-62140451D01*
X153528488Y-62104519D01*
X153698648Y-62034037D01*
X153851787Y-61931713D01*
X153982021Y-61801479D01*
X154084345Y-61648340D01*
X154154827Y-61478180D01*
X154190759Y-61297540D01*
X154190759Y-61113362D01*
X154154827Y-60932722D01*
X154084345Y-60762562D01*
X153982021Y-60609423D01*
X153851787Y-60479189D01*
X153698648Y-60376865D01*
X153528488Y-60306383D01*
X153407408Y-60282298D01*
X153160000Y-60034891D01*
X153160000Y-59553790D01*
X153253262Y-59460528D01*
X153355586Y-59307389D01*
X153426068Y-59137229D01*
X153462000Y-58956589D01*
X153462000Y-58772411D01*
X153459266Y-58758668D01*
X156663300Y-61962703D01*
G36*
X146030000Y-64897000D02*
G01*
X146050000Y-64897000D01*
X146050000Y-65151000D01*
X146030000Y-65151000D01*
X146030000Y-65171000D01*
X145776000Y-65171000D01*
X145776000Y-65151000D01*
X145756000Y-65151000D01*
X145756000Y-64897000D01*
X145776000Y-64897000D01*
X145776000Y-64877000D01*
X146030000Y-64877000D01*
X146030000Y-64897000D01*
X146030000Y-64897000D01*
G37*
X146030000Y-64897000D02*
X146050000Y-64897000D01*
X146050000Y-65151000D01*
X146030000Y-65151000D01*
X146030000Y-65171000D01*
X145776000Y-65171000D01*
X145776000Y-65151000D01*
X145756000Y-65151000D01*
X145756000Y-64897000D01*
X145776000Y-64897000D01*
X145776000Y-64877000D01*
X146030000Y-64877000D01*
X146030000Y-64897000D01*
G36*
X148630000Y-62992000D02*
G01*
X148650000Y-62992000D01*
X148650000Y-63246000D01*
X148630000Y-63246000D01*
X148630000Y-63266000D01*
X148376000Y-63266000D01*
X148376000Y-63246000D01*
X148356000Y-63246000D01*
X148356000Y-62992000D01*
X148376000Y-62992000D01*
X148376000Y-62972000D01*
X148630000Y-62972000D01*
X148630000Y-62992000D01*
X148630000Y-62992000D01*
G37*
X148630000Y-62992000D02*
X148650000Y-62992000D01*
X148650000Y-63246000D01*
X148630000Y-63246000D01*
X148630000Y-63266000D01*
X148376000Y-63266000D01*
X148376000Y-63246000D01*
X148356000Y-63246000D01*
X148356000Y-62992000D01*
X148376000Y-62992000D01*
X148376000Y-62972000D01*
X148630000Y-62972000D01*
X148630000Y-62992000D01*
G36*
X146030000Y-61087000D02*
G01*
X146050000Y-61087000D01*
X146050000Y-61341000D01*
X146030000Y-61341000D01*
X146030000Y-62992000D01*
X146050000Y-62992000D01*
X146050000Y-63246000D01*
X146030000Y-63246000D01*
X146030000Y-63266000D01*
X145776000Y-63266000D01*
X145776000Y-63246000D01*
X145756000Y-63246000D01*
X145756000Y-62992000D01*
X145776000Y-62992000D01*
X145776000Y-61341000D01*
X145756000Y-61341000D01*
X145756000Y-61087000D01*
X145776000Y-61087000D01*
X145776000Y-61067000D01*
X146030000Y-61067000D01*
X146030000Y-61087000D01*
X146030000Y-61087000D01*
G37*
X146030000Y-61087000D02*
X146050000Y-61087000D01*
X146050000Y-61341000D01*
X146030000Y-61341000D01*
X146030000Y-62992000D01*
X146050000Y-62992000D01*
X146050000Y-63246000D01*
X146030000Y-63246000D01*
X146030000Y-63266000D01*
X145776000Y-63266000D01*
X145776000Y-63246000D01*
X145756000Y-63246000D01*
X145756000Y-62992000D01*
X145776000Y-62992000D01*
X145776000Y-61341000D01*
X145756000Y-61341000D01*
X145756000Y-61087000D01*
X145776000Y-61087000D01*
X145776000Y-61067000D01*
X146030000Y-61067000D01*
X146030000Y-61087000D01*
G36*
X152377532Y-57773929D02*
G01*
X152441971Y-57929500D01*
X152434911Y-57929500D01*
X152254271Y-57965432D01*
X152250223Y-57967109D01*
X152204180Y-57942498D01*
X152084482Y-57906188D01*
X151960000Y-57893928D01*
X151659160Y-57893928D01*
X151917289Y-57635800D01*
X152350056Y-57635800D01*
X152377532Y-57773929D01*
X152377532Y-57773929D01*
G37*
X152377532Y-57773929D02*
X152441971Y-57929500D01*
X152434911Y-57929500D01*
X152254271Y-57965432D01*
X152250223Y-57967109D01*
X152204180Y-57942498D01*
X152084482Y-57906188D01*
X151960000Y-57893928D01*
X151659160Y-57893928D01*
X151917289Y-57635800D01*
X152350056Y-57635800D01*
X152377532Y-57773929D01*
M02*
