G04 #@! TF.GenerationSoftware,KiCad,Pcbnew,(5.1.2)-1*
G04 #@! TF.CreationDate,2019-08-13T14:32:56+02:00*
G04 #@! TF.ProjectId,tinyRF24,74696e79-5246-4323-942e-6b696361645f,rev?*
G04 #@! TF.SameCoordinates,Original*
G04 #@! TF.FileFunction,Soldermask,Top*
G04 #@! TF.FilePolarity,Negative*
%FSLAX46Y46*%
G04 Gerber Fmt 4.6, Leading zero omitted, Abs format (unit mm)*
G04 Created by KiCad (PCBNEW (5.1.2)-1) date 2019-08-13 14:32:56*
%MOMM*%
%LPD*%
G04 APERTURE LIST*
%ADD10C,0.150000*%
%ADD11C,0.500000*%
%ADD12C,0.010000*%
%ADD13O,0.900000X2.500000*%
%ADD14O,2.500000X0.900000*%
%ADD15R,6.000000X6.000000*%
%ADD16R,2.400000X0.400000*%
%ADD17R,1.500000X2.000000*%
%ADD18R,3.800000X2.000000*%
%ADD19R,1.500000X1.300000*%
%ADD20R,1.500000X1.250000*%
%ADD21R,0.800000X0.900000*%
%ADD22R,0.900000X1.700000*%
%ADD23R,1.250000X1.500000*%
%ADD24R,1.300000X1.500000*%
%ADD25R,1.300000X1.300000*%
%ADD26R,0.300000X0.850000*%
%ADD27R,0.850000X0.300000*%
%ADD28R,2.000000X0.400000*%
%ADD29O,0.950000X1.250000*%
%ADD30O,1.550000X1.000000*%
G04 APERTURE END LIST*
D10*
X90805000Y-87630000D02*
X91440000Y-88265000D01*
X86995000Y-87630000D02*
X90805000Y-87630000D01*
X86360000Y-86995000D02*
X86995000Y-87630000D01*
X90805000Y-89535000D02*
X91440000Y-90170000D01*
X86995000Y-89535000D02*
X90805000Y-89535000D01*
X86360000Y-88900000D02*
X86995000Y-89535000D01*
X86995000Y-91440000D02*
X86360000Y-90805000D01*
X90805000Y-91440000D02*
X86995000Y-91440000D01*
X91440000Y-92075000D02*
X90805000Y-91440000D01*
X90805000Y-99695000D02*
X91440000Y-100330000D01*
X86995000Y-99695000D02*
X90805000Y-99695000D01*
X86360000Y-99060000D02*
X86995000Y-99695000D01*
X90805000Y-97790000D02*
X91440000Y-98425000D01*
X86995000Y-97790000D02*
X90805000Y-97790000D01*
X86360000Y-97155000D02*
X86995000Y-97790000D01*
X90805000Y-93980000D02*
X91440000Y-94615000D01*
X86995000Y-93980000D02*
X90805000Y-93980000D01*
X86360000Y-93345000D02*
X86995000Y-93980000D01*
X90805000Y-95885000D02*
X91440000Y-96520000D01*
X86995000Y-95885000D02*
X90805000Y-95885000D01*
X86360000Y-95250000D02*
X86995000Y-95885000D01*
X90805000Y-85725000D02*
X91440000Y-86360000D01*
X86995000Y-85725000D02*
X90805000Y-85725000D01*
X86360000Y-85090000D02*
X86995000Y-85725000D01*
X90805000Y-83820000D02*
X91440000Y-84455000D01*
X86995000Y-83820000D02*
X90805000Y-83820000D01*
X86360000Y-83185000D02*
X86995000Y-83820000D01*
X110625357Y-75891571D02*
X110625357Y-76891571D01*
X110268214Y-75320142D02*
X109911071Y-76391571D01*
X110839642Y-76391571D01*
X111268214Y-75391571D02*
X112196785Y-75391571D01*
X111696785Y-75963000D01*
X111911071Y-75963000D01*
X112053928Y-76034428D01*
X112125357Y-76105857D01*
X112196785Y-76248714D01*
X112196785Y-76605857D01*
X112125357Y-76748714D01*
X112053928Y-76820142D01*
X111911071Y-76891571D01*
X111482499Y-76891571D01*
X111339642Y-76820142D01*
X111268214Y-76748714D01*
X113911071Y-76463000D02*
X114625357Y-76463000D01*
X113768214Y-76891571D02*
X114268214Y-75391571D01*
X114768214Y-76891571D01*
X115125357Y-75891571D02*
X115482499Y-76891571D01*
X115839642Y-75891571D01*
X116982499Y-76820142D02*
X116839642Y-76891571D01*
X116553928Y-76891571D01*
X116411071Y-76820142D01*
X116339642Y-76677285D01*
X116339642Y-76105857D01*
X116411071Y-75963000D01*
X116553928Y-75891571D01*
X116839642Y-75891571D01*
X116982499Y-75963000D01*
X117053928Y-76105857D01*
X117053928Y-76248714D01*
X116339642Y-76391571D01*
X117696785Y-75891571D02*
X117696785Y-76891571D01*
X117696785Y-76034428D02*
X117768214Y-75963000D01*
X117911071Y-75891571D01*
X118125357Y-75891571D01*
X118268214Y-75963000D01*
X118339642Y-76105857D01*
X118339642Y-76891571D01*
X119696785Y-75891571D02*
X119696785Y-76891571D01*
X119053928Y-75891571D02*
X119053928Y-76677285D01*
X119125357Y-76820142D01*
X119268214Y-76891571D01*
X119482499Y-76891571D01*
X119625357Y-76820142D01*
X119696785Y-76748714D01*
X120982499Y-76820142D02*
X120839642Y-76891571D01*
X120553928Y-76891571D01*
X120411071Y-76820142D01*
X120339642Y-76677285D01*
X120339642Y-76105857D01*
X120411071Y-75963000D01*
X120553928Y-75891571D01*
X120839642Y-75891571D01*
X120982499Y-75963000D01*
X121053928Y-76105857D01*
X121053928Y-76248714D01*
X120339642Y-76391571D01*
X123482499Y-76891571D02*
X123482499Y-75391571D01*
X123482499Y-76820142D02*
X123339642Y-76891571D01*
X123053928Y-76891571D01*
X122911071Y-76820142D01*
X122839642Y-76748714D01*
X122768214Y-76605857D01*
X122768214Y-76177285D01*
X122839642Y-76034428D01*
X122911071Y-75963000D01*
X123053928Y-75891571D01*
X123339642Y-75891571D01*
X123482499Y-75963000D01*
X124768214Y-76820142D02*
X124625357Y-76891571D01*
X124339642Y-76891571D01*
X124196785Y-76820142D01*
X124125357Y-76677285D01*
X124125357Y-76105857D01*
X124196785Y-75963000D01*
X124339642Y-75891571D01*
X124625357Y-75891571D01*
X124768214Y-75963000D01*
X124839642Y-76105857D01*
X124839642Y-76248714D01*
X124125357Y-76391571D01*
X126625357Y-76891571D02*
X126625357Y-75391571D01*
X127196785Y-75391571D01*
X127339642Y-75463000D01*
X127411071Y-75534428D01*
X127482499Y-75677285D01*
X127482499Y-75891571D01*
X127411071Y-76034428D01*
X127339642Y-76105857D01*
X127196785Y-76177285D01*
X126625357Y-76177285D01*
X128768214Y-76891571D02*
X128768214Y-76105857D01*
X128696785Y-75963000D01*
X128553928Y-75891571D01*
X128268214Y-75891571D01*
X128125357Y-75963000D01*
X128768214Y-76820142D02*
X128625357Y-76891571D01*
X128268214Y-76891571D01*
X128125357Y-76820142D01*
X128053928Y-76677285D01*
X128053928Y-76534428D01*
X128125357Y-76391571D01*
X128268214Y-76320142D01*
X128625357Y-76320142D01*
X128768214Y-76248714D01*
X129482499Y-76891571D02*
X129482499Y-75891571D01*
X129482499Y-76177285D02*
X129553928Y-76034428D01*
X129625357Y-75963000D01*
X129768214Y-75891571D01*
X129911071Y-75891571D01*
X130411071Y-76891571D02*
X130411071Y-75891571D01*
X130411071Y-75391571D02*
X130339642Y-75463000D01*
X130411071Y-75534428D01*
X130482499Y-75463000D01*
X130411071Y-75391571D01*
X130411071Y-75534428D01*
X131053928Y-76820142D02*
X131196785Y-76891571D01*
X131482499Y-76891571D01*
X131625357Y-76820142D01*
X131696785Y-76677285D01*
X131696785Y-76605857D01*
X131625357Y-76463000D01*
X131482499Y-76391571D01*
X131268214Y-76391571D01*
X131125357Y-76320142D01*
X131053928Y-76177285D01*
X131053928Y-76105857D01*
X131125357Y-75963000D01*
X131268214Y-75891571D01*
X131482499Y-75891571D01*
X131625357Y-75963000D01*
X114768214Y-78291571D02*
X114768214Y-79291571D01*
X114411071Y-77720142D02*
X114053928Y-78791571D01*
X114982500Y-78791571D01*
X116268214Y-77791571D02*
X115553928Y-77791571D01*
X115482500Y-78505857D01*
X115553928Y-78434428D01*
X115696785Y-78363000D01*
X116053928Y-78363000D01*
X116196785Y-78434428D01*
X116268214Y-78505857D01*
X116339642Y-78648714D01*
X116339642Y-79005857D01*
X116268214Y-79148714D01*
X116196785Y-79220142D01*
X116053928Y-79291571D01*
X115696785Y-79291571D01*
X115553928Y-79220142D01*
X115482500Y-79148714D01*
X117268214Y-77791571D02*
X117411071Y-77791571D01*
X117553928Y-77863000D01*
X117625357Y-77934428D01*
X117696785Y-78077285D01*
X117768214Y-78363000D01*
X117768214Y-78720142D01*
X117696785Y-79005857D01*
X117625357Y-79148714D01*
X117553928Y-79220142D01*
X117411071Y-79291571D01*
X117268214Y-79291571D01*
X117125357Y-79220142D01*
X117053928Y-79148714D01*
X116982500Y-79005857D01*
X116911071Y-78720142D01*
X116911071Y-78363000D01*
X116982500Y-78077285D01*
X117053928Y-77934428D01*
X117125357Y-77863000D01*
X117268214Y-77791571D01*
X118696785Y-77791571D02*
X118839642Y-77791571D01*
X118982500Y-77863000D01*
X119053928Y-77934428D01*
X119125357Y-78077285D01*
X119196785Y-78363000D01*
X119196785Y-78720142D01*
X119125357Y-79005857D01*
X119053928Y-79148714D01*
X118982500Y-79220142D01*
X118839642Y-79291571D01*
X118696785Y-79291571D01*
X118553928Y-79220142D01*
X118482500Y-79148714D01*
X118411071Y-79005857D01*
X118339642Y-78720142D01*
X118339642Y-78363000D01*
X118411071Y-78077285D01*
X118482500Y-77934428D01*
X118553928Y-77863000D01*
X118696785Y-77791571D01*
X120125357Y-77791571D02*
X120268214Y-77791571D01*
X120411071Y-77863000D01*
X120482500Y-77934428D01*
X120553928Y-78077285D01*
X120625357Y-78363000D01*
X120625357Y-78720142D01*
X120553928Y-79005857D01*
X120482500Y-79148714D01*
X120411071Y-79220142D01*
X120268214Y-79291571D01*
X120125357Y-79291571D01*
X119982500Y-79220142D01*
X119911071Y-79148714D01*
X119839642Y-79005857D01*
X119768214Y-78720142D01*
X119768214Y-78363000D01*
X119839642Y-78077285D01*
X119911071Y-77934428D01*
X119982500Y-77863000D01*
X120125357Y-77791571D01*
X122696785Y-77791571D02*
X122982500Y-77791571D01*
X123125357Y-77863000D01*
X123268214Y-78005857D01*
X123339642Y-78291571D01*
X123339642Y-78791571D01*
X123268214Y-79077285D01*
X123125357Y-79220142D01*
X122982500Y-79291571D01*
X122696785Y-79291571D01*
X122553928Y-79220142D01*
X122411071Y-79077285D01*
X122339642Y-78791571D01*
X122339642Y-78291571D01*
X122411071Y-78005857D01*
X122553928Y-77863000D01*
X122696785Y-77791571D01*
X124839642Y-79291571D02*
X124339642Y-78577285D01*
X123982500Y-79291571D02*
X123982500Y-77791571D01*
X124553928Y-77791571D01*
X124696785Y-77863000D01*
X124768214Y-77934428D01*
X124839642Y-78077285D01*
X124839642Y-78291571D01*
X124768214Y-78434428D01*
X124696785Y-78505857D01*
X124553928Y-78577285D01*
X123982500Y-78577285D01*
X126196785Y-79291571D02*
X125482500Y-79291571D01*
X125482500Y-77791571D01*
X126696785Y-78505857D02*
X127196785Y-78505857D01*
X127411071Y-79291571D02*
X126696785Y-79291571D01*
X126696785Y-77791571D01*
X127411071Y-77791571D01*
X127982500Y-78863000D02*
X128696785Y-78863000D01*
X127839642Y-79291571D02*
X128339642Y-77791571D01*
X128839642Y-79291571D01*
X129339642Y-79291571D02*
X129339642Y-77791571D01*
X130196785Y-79291571D01*
X130196785Y-77791571D01*
X130839642Y-79220142D02*
X131053928Y-79291571D01*
X131411071Y-79291571D01*
X131553928Y-79220142D01*
X131625357Y-79148714D01*
X131696785Y-79005857D01*
X131696785Y-78863000D01*
X131625357Y-78720142D01*
X131553928Y-78648714D01*
X131411071Y-78577285D01*
X131125357Y-78505857D01*
X130982500Y-78434428D01*
X130911071Y-78363000D01*
X130839642Y-78220142D01*
X130839642Y-78077285D01*
X130911071Y-77934428D01*
X130982500Y-77863000D01*
X131125357Y-77791571D01*
X131482500Y-77791571D01*
X131696785Y-77863000D01*
X124339642Y-80905857D02*
X123839642Y-80905857D01*
X123839642Y-81691571D02*
X123839642Y-80191571D01*
X124553928Y-80191571D01*
X125982500Y-81691571D02*
X125482500Y-80977285D01*
X125125357Y-81691571D02*
X125125357Y-80191571D01*
X125696785Y-80191571D01*
X125839642Y-80263000D01*
X125911071Y-80334428D01*
X125982500Y-80477285D01*
X125982500Y-80691571D01*
X125911071Y-80834428D01*
X125839642Y-80905857D01*
X125696785Y-80977285D01*
X125125357Y-80977285D01*
X126553928Y-81263000D02*
X127268214Y-81263000D01*
X126411071Y-81691571D02*
X126911071Y-80191571D01*
X127411071Y-81691571D01*
X127911071Y-81691571D02*
X127911071Y-80191571D01*
X128768214Y-81691571D01*
X128768214Y-80191571D01*
X130339642Y-81548714D02*
X130268214Y-81620142D01*
X130053928Y-81691571D01*
X129911071Y-81691571D01*
X129696785Y-81620142D01*
X129553928Y-81477285D01*
X129482500Y-81334428D01*
X129411071Y-81048714D01*
X129411071Y-80834428D01*
X129482500Y-80548714D01*
X129553928Y-80405857D01*
X129696785Y-80263000D01*
X129911071Y-80191571D01*
X130053928Y-80191571D01*
X130268214Y-80263000D01*
X130339642Y-80334428D01*
X130982500Y-80905857D02*
X131482500Y-80905857D01*
X131696785Y-81691571D02*
X130982500Y-81691571D01*
X130982500Y-80191571D01*
X131696785Y-80191571D01*
X96608571Y-72195571D02*
X96608571Y-73695571D01*
X96608571Y-72267000D02*
X96751428Y-72195571D01*
X97037142Y-72195571D01*
X97180000Y-72267000D01*
X97251428Y-72338428D01*
X97322857Y-72481285D01*
X97322857Y-72909857D01*
X97251428Y-73052714D01*
X97180000Y-73124142D01*
X97037142Y-73195571D01*
X96751428Y-73195571D01*
X96608571Y-73124142D01*
X98608571Y-73124142D02*
X98465714Y-73195571D01*
X98180000Y-73195571D01*
X98037142Y-73124142D01*
X97965714Y-73052714D01*
X97894285Y-72909857D01*
X97894285Y-72481285D01*
X97965714Y-72338428D01*
X98037142Y-72267000D01*
X98180000Y-72195571D01*
X98465714Y-72195571D01*
X98608571Y-72267000D01*
X99894285Y-73195571D02*
X99894285Y-72409857D01*
X99822857Y-72267000D01*
X99680000Y-72195571D01*
X99394285Y-72195571D01*
X99251428Y-72267000D01*
X99894285Y-73124142D02*
X99751428Y-73195571D01*
X99394285Y-73195571D01*
X99251428Y-73124142D01*
X99180000Y-72981285D01*
X99180000Y-72838428D01*
X99251428Y-72695571D01*
X99394285Y-72624142D01*
X99751428Y-72624142D01*
X99894285Y-72552714D01*
X101251428Y-73195571D02*
X101251428Y-71695571D01*
X101251428Y-73124142D02*
X101108571Y-73195571D01*
X100822857Y-73195571D01*
X100680000Y-73124142D01*
X100608571Y-73052714D01*
X100537142Y-72909857D01*
X100537142Y-72481285D01*
X100608571Y-72338428D01*
X100680000Y-72267000D01*
X100822857Y-72195571D01*
X101108571Y-72195571D01*
X101251428Y-72267000D01*
X101965714Y-73195571D02*
X101965714Y-72195571D01*
X101965714Y-71695571D02*
X101894285Y-71767000D01*
X101965714Y-71838428D01*
X102037142Y-71767000D01*
X101965714Y-71695571D01*
X101965714Y-71838428D01*
X103322857Y-73124142D02*
X103180000Y-73195571D01*
X102894285Y-73195571D01*
X102751428Y-73124142D01*
X102680000Y-73052714D01*
X102608571Y-72909857D01*
X102608571Y-72481285D01*
X102680000Y-72338428D01*
X102751428Y-72267000D01*
X102894285Y-72195571D01*
X103180000Y-72195571D01*
X103322857Y-72267000D01*
X104894285Y-72481285D02*
X104822857Y-72409857D01*
X104680000Y-72338428D01*
X104537142Y-72338428D01*
X104394285Y-72409857D01*
X104322857Y-72481285D01*
X104251428Y-72624142D01*
X104251428Y-72767000D01*
X104322857Y-72909857D01*
X104394285Y-72981285D01*
X104537142Y-73052714D01*
X104680000Y-73052714D01*
X104822857Y-72981285D01*
X104894285Y-72909857D01*
X104894285Y-72338428D02*
X104894285Y-72909857D01*
X104965714Y-72981285D01*
X105037142Y-72981285D01*
X105180000Y-72909857D01*
X105251428Y-72767000D01*
X105251428Y-72409857D01*
X105108571Y-72195571D01*
X104894285Y-72052714D01*
X104608571Y-71981285D01*
X104322857Y-72052714D01*
X104108571Y-72195571D01*
X103965714Y-72409857D01*
X103894285Y-72695571D01*
X103965714Y-72981285D01*
X104108571Y-73195571D01*
X104322857Y-73338428D01*
X104608571Y-73409857D01*
X104894285Y-73338428D01*
X105108571Y-73195571D01*
X106537142Y-72195571D02*
X106537142Y-73409857D01*
X106465714Y-73552714D01*
X106394285Y-73624142D01*
X106251428Y-73695571D01*
X106037142Y-73695571D01*
X105894285Y-73624142D01*
X106537142Y-73124142D02*
X106394285Y-73195571D01*
X106108571Y-73195571D01*
X105965714Y-73124142D01*
X105894285Y-73052714D01*
X105822857Y-72909857D01*
X105822857Y-72481285D01*
X105894285Y-72338428D01*
X105965714Y-72267000D01*
X106108571Y-72195571D01*
X106394285Y-72195571D01*
X106537142Y-72267000D01*
X107251428Y-73195571D02*
X107251428Y-72195571D01*
X107251428Y-72338428D02*
X107322857Y-72267000D01*
X107465714Y-72195571D01*
X107680000Y-72195571D01*
X107822857Y-72267000D01*
X107894285Y-72409857D01*
X107894285Y-73195571D01*
X107894285Y-72409857D02*
X107965714Y-72267000D01*
X108108571Y-72195571D01*
X108322857Y-72195571D01*
X108465714Y-72267000D01*
X108537142Y-72409857D01*
X108537142Y-73195571D01*
X109894285Y-73195571D02*
X109894285Y-72409857D01*
X109822857Y-72267000D01*
X109680000Y-72195571D01*
X109394285Y-72195571D01*
X109251428Y-72267000D01*
X109894285Y-73124142D02*
X109751428Y-73195571D01*
X109394285Y-73195571D01*
X109251428Y-73124142D01*
X109180000Y-72981285D01*
X109180000Y-72838428D01*
X109251428Y-72695571D01*
X109394285Y-72624142D01*
X109751428Y-72624142D01*
X109894285Y-72552714D01*
X110608571Y-73195571D02*
X110608571Y-72195571D01*
X110608571Y-71695571D02*
X110537142Y-71767000D01*
X110608571Y-71838428D01*
X110680000Y-71767000D01*
X110608571Y-71695571D01*
X110608571Y-71838428D01*
X111537142Y-73195571D02*
X111394285Y-73124142D01*
X111322857Y-72981285D01*
X111322857Y-71695571D01*
X112108571Y-73052714D02*
X112180000Y-73124142D01*
X112108571Y-73195571D01*
X112037142Y-73124142D01*
X112108571Y-73052714D01*
X112108571Y-73195571D01*
X113465714Y-73124142D02*
X113322857Y-73195571D01*
X113037142Y-73195571D01*
X112894285Y-73124142D01*
X112822857Y-73052714D01*
X112751428Y-72909857D01*
X112751428Y-72481285D01*
X112822857Y-72338428D01*
X112894285Y-72267000D01*
X113037142Y-72195571D01*
X113322857Y-72195571D01*
X113465714Y-72267000D01*
X114322857Y-73195571D02*
X114180000Y-73124142D01*
X114108571Y-73052714D01*
X114037142Y-72909857D01*
X114037142Y-72481285D01*
X114108571Y-72338428D01*
X114180000Y-72267000D01*
X114322857Y-72195571D01*
X114537142Y-72195571D01*
X114680000Y-72267000D01*
X114751428Y-72338428D01*
X114822857Y-72481285D01*
X114822857Y-72909857D01*
X114751428Y-73052714D01*
X114680000Y-73124142D01*
X114537142Y-73195571D01*
X114322857Y-73195571D01*
X115465714Y-73195571D02*
X115465714Y-72195571D01*
X115465714Y-72338428D02*
X115537142Y-72267000D01*
X115680000Y-72195571D01*
X115894285Y-72195571D01*
X116037142Y-72267000D01*
X116108571Y-72409857D01*
X116108571Y-73195571D01*
X116108571Y-72409857D02*
X116180000Y-72267000D01*
X116322857Y-72195571D01*
X116537142Y-72195571D01*
X116680000Y-72267000D01*
X116751428Y-72409857D01*
X116751428Y-73195571D01*
X117260000Y-84540714D02*
X118174285Y-84540714D01*
X117717142Y-84997857D02*
X117717142Y-84083571D01*
X118631428Y-83797857D02*
X119374285Y-83797857D01*
X118974285Y-84255000D01*
X119145714Y-84255000D01*
X119260000Y-84312142D01*
X119317142Y-84369285D01*
X119374285Y-84483571D01*
X119374285Y-84769285D01*
X119317142Y-84883571D01*
X119260000Y-84940714D01*
X119145714Y-84997857D01*
X118802857Y-84997857D01*
X118688571Y-84940714D01*
X118631428Y-84883571D01*
X119774285Y-83797857D02*
X120517142Y-83797857D01*
X120117142Y-84255000D01*
X120288571Y-84255000D01*
X120402857Y-84312142D01*
X120460000Y-84369285D01*
X120517142Y-84483571D01*
X120517142Y-84769285D01*
X120460000Y-84883571D01*
X120402857Y-84940714D01*
X120288571Y-84997857D01*
X119945714Y-84997857D01*
X119831428Y-84940714D01*
X119774285Y-84883571D01*
X122460000Y-83797857D02*
X122231428Y-83797857D01*
X122117142Y-83855000D01*
X122060000Y-83912142D01*
X121945714Y-84083571D01*
X121888571Y-84312142D01*
X121888571Y-84769285D01*
X121945714Y-84883571D01*
X122002857Y-84940714D01*
X122117142Y-84997857D01*
X122345714Y-84997857D01*
X122460000Y-84940714D01*
X122517142Y-84883571D01*
X122574285Y-84769285D01*
X122574285Y-84483571D01*
X122517142Y-84369285D01*
X122460000Y-84312142D01*
X122345714Y-84255000D01*
X122117142Y-84255000D01*
X122002857Y-84312142D01*
X121945714Y-84369285D01*
X121888571Y-84483571D01*
X123031428Y-83912142D02*
X123088571Y-83855000D01*
X123202857Y-83797857D01*
X123488571Y-83797857D01*
X123602857Y-83855000D01*
X123660000Y-83912142D01*
X123717142Y-84026428D01*
X123717142Y-84140714D01*
X123660000Y-84312142D01*
X122974285Y-84997857D01*
X123717142Y-84997857D01*
X124745714Y-84197857D02*
X124745714Y-84997857D01*
X124460000Y-83740714D02*
X124174285Y-84597857D01*
X124917142Y-84597857D01*
X125888571Y-83797857D02*
X125660000Y-83797857D01*
X125545714Y-83855000D01*
X125488571Y-83912142D01*
X125374285Y-84083571D01*
X125317142Y-84312142D01*
X125317142Y-84769285D01*
X125374285Y-84883571D01*
X125431428Y-84940714D01*
X125545714Y-84997857D01*
X125774285Y-84997857D01*
X125888571Y-84940714D01*
X125945714Y-84883571D01*
X126002857Y-84769285D01*
X126002857Y-84483571D01*
X125945714Y-84369285D01*
X125888571Y-84312142D01*
X125774285Y-84255000D01*
X125545714Y-84255000D01*
X125431428Y-84312142D01*
X125374285Y-84369285D01*
X125317142Y-84483571D01*
X126460000Y-83912142D02*
X126517142Y-83855000D01*
X126631428Y-83797857D01*
X126917142Y-83797857D01*
X127031428Y-83855000D01*
X127088571Y-83912142D01*
X127145714Y-84026428D01*
X127145714Y-84140714D01*
X127088571Y-84312142D01*
X126402857Y-84997857D01*
X127145714Y-84997857D01*
X127602857Y-83912142D02*
X127660000Y-83855000D01*
X127774285Y-83797857D01*
X128060000Y-83797857D01*
X128174285Y-83855000D01*
X128231428Y-83912142D01*
X128288571Y-84026428D01*
X128288571Y-84140714D01*
X128231428Y-84312142D01*
X127545714Y-84997857D01*
X128288571Y-84997857D01*
X129317142Y-83797857D02*
X129088571Y-83797857D01*
X128974285Y-83855000D01*
X128917142Y-83912142D01*
X128802857Y-84083571D01*
X128745714Y-84312142D01*
X128745714Y-84769285D01*
X128802857Y-84883571D01*
X128860000Y-84940714D01*
X128974285Y-84997857D01*
X129202857Y-84997857D01*
X129317142Y-84940714D01*
X129374285Y-84883571D01*
X129431428Y-84769285D01*
X129431428Y-84483571D01*
X129374285Y-84369285D01*
X129317142Y-84312142D01*
X129202857Y-84255000D01*
X128974285Y-84255000D01*
X128860000Y-84312142D01*
X128802857Y-84369285D01*
X128745714Y-84483571D01*
X129831428Y-83797857D02*
X130631428Y-83797857D01*
X130117142Y-84997857D01*
X131260000Y-84312142D02*
X131145714Y-84255000D01*
X131088571Y-84197857D01*
X131031428Y-84083571D01*
X131031428Y-84026428D01*
X131088571Y-83912142D01*
X131145714Y-83855000D01*
X131260000Y-83797857D01*
X131488571Y-83797857D01*
X131602857Y-83855000D01*
X131660000Y-83912142D01*
X131717142Y-84026428D01*
X131717142Y-84083571D01*
X131660000Y-84197857D01*
X131602857Y-84255000D01*
X131488571Y-84312142D01*
X131260000Y-84312142D01*
X131145714Y-84369285D01*
X131088571Y-84426428D01*
X131031428Y-84540714D01*
X131031428Y-84769285D01*
X131088571Y-84883571D01*
X131145714Y-84940714D01*
X131260000Y-84997857D01*
X131488571Y-84997857D01*
X131602857Y-84940714D01*
X131660000Y-84883571D01*
X131717142Y-84769285D01*
X131717142Y-84540714D01*
X131660000Y-84426428D01*
X131602857Y-84369285D01*
X131488571Y-84312142D01*
X120662571Y-72481285D02*
X120591142Y-72409857D01*
X120448285Y-72338428D01*
X120305428Y-72338428D01*
X120162571Y-72409857D01*
X120091142Y-72481285D01*
X120019714Y-72624142D01*
X120019714Y-72767000D01*
X120091142Y-72909857D01*
X120162571Y-72981285D01*
X120305428Y-73052714D01*
X120448285Y-73052714D01*
X120591142Y-72981285D01*
X120662571Y-72909857D01*
X120662571Y-72338428D02*
X120662571Y-72909857D01*
X120734000Y-72981285D01*
X120805428Y-72981285D01*
X120948285Y-72909857D01*
X121019714Y-72767000D01*
X121019714Y-72409857D01*
X120876857Y-72195571D01*
X120662571Y-72052714D01*
X120376857Y-71981285D01*
X120091142Y-72052714D01*
X119876857Y-72195571D01*
X119734000Y-72409857D01*
X119662571Y-72695571D01*
X119734000Y-72981285D01*
X119876857Y-73195571D01*
X120091142Y-73338428D01*
X120376857Y-73409857D01*
X120662571Y-73338428D01*
X120876857Y-73195571D01*
X121662571Y-72195571D02*
X121662571Y-73695571D01*
X121662571Y-72267000D02*
X121805428Y-72195571D01*
X122091142Y-72195571D01*
X122234000Y-72267000D01*
X122305428Y-72338428D01*
X122376857Y-72481285D01*
X122376857Y-72909857D01*
X122305428Y-73052714D01*
X122234000Y-73124142D01*
X122091142Y-73195571D01*
X121805428Y-73195571D01*
X121662571Y-73124142D01*
X122876857Y-72195571D02*
X123162571Y-73195571D01*
X123448285Y-72481285D01*
X123734000Y-73195571D01*
X124019714Y-72195571D01*
X125234000Y-73195571D02*
X125234000Y-72409857D01*
X125162571Y-72267000D01*
X125019714Y-72195571D01*
X124734000Y-72195571D01*
X124591142Y-72267000D01*
X125234000Y-73124142D02*
X125091142Y-73195571D01*
X124734000Y-73195571D01*
X124591142Y-73124142D01*
X124519714Y-72981285D01*
X124519714Y-72838428D01*
X124591142Y-72695571D01*
X124734000Y-72624142D01*
X125091142Y-72624142D01*
X125234000Y-72552714D01*
X125805428Y-72195571D02*
X126162571Y-73195571D01*
X126519714Y-72195571D01*
X127091142Y-73195571D02*
X127091142Y-72195571D01*
X127091142Y-72481285D02*
X127162571Y-72338428D01*
X127234000Y-72267000D01*
X127376857Y-72195571D01*
X127519714Y-72195571D01*
X128234000Y-73195571D02*
X128091142Y-73124142D01*
X128019714Y-73052714D01*
X127948285Y-72909857D01*
X127948285Y-72481285D01*
X128019714Y-72338428D01*
X128091142Y-72267000D01*
X128234000Y-72195571D01*
X128448285Y-72195571D01*
X128591142Y-72267000D01*
X128662571Y-72338428D01*
X128734000Y-72481285D01*
X128734000Y-72909857D01*
X128662571Y-73052714D01*
X128591142Y-73124142D01*
X128448285Y-73195571D01*
X128234000Y-73195571D01*
X129376857Y-73195571D02*
X129376857Y-71695571D01*
X129376857Y-72267000D02*
X129519714Y-72195571D01*
X129805428Y-72195571D01*
X129948285Y-72267000D01*
X130019714Y-72338428D01*
X130091142Y-72481285D01*
X130091142Y-72909857D01*
X130019714Y-73052714D01*
X129948285Y-73124142D01*
X129805428Y-73195571D01*
X129519714Y-73195571D01*
X129376857Y-73124142D01*
X130948285Y-73195571D02*
X130805428Y-73124142D01*
X130734000Y-73052714D01*
X130662571Y-72909857D01*
X130662571Y-72481285D01*
X130734000Y-72338428D01*
X130805428Y-72267000D01*
X130948285Y-72195571D01*
X131162571Y-72195571D01*
X131305428Y-72267000D01*
X131376857Y-72338428D01*
X131448285Y-72481285D01*
X131448285Y-72909857D01*
X131376857Y-73052714D01*
X131305428Y-73124142D01*
X131162571Y-73195571D01*
X130948285Y-73195571D01*
X131876857Y-72195571D02*
X132448285Y-72195571D01*
X132091142Y-71695571D02*
X132091142Y-72981285D01*
X132162571Y-73124142D01*
X132305428Y-73195571D01*
X132448285Y-73195571D01*
D11*
X92950571Y-69937142D02*
X92950571Y-66937142D01*
X93664857Y-66937142D01*
X94093428Y-67080000D01*
X94379142Y-67365714D01*
X94522000Y-67651428D01*
X94664857Y-68222857D01*
X94664857Y-68651428D01*
X94522000Y-69222857D01*
X94379142Y-69508571D01*
X94093428Y-69794285D01*
X93664857Y-69937142D01*
X92950571Y-69937142D01*
X95950571Y-69937142D02*
X95950571Y-67937142D01*
X95950571Y-68508571D02*
X96093428Y-68222857D01*
X96236285Y-68080000D01*
X96522000Y-67937142D01*
X96807714Y-67937142D01*
X101807714Y-69651428D02*
X101664857Y-69794285D01*
X101236285Y-69937142D01*
X100950571Y-69937142D01*
X100522000Y-69794285D01*
X100236285Y-69508571D01*
X100093428Y-69222857D01*
X99950571Y-68651428D01*
X99950571Y-68222857D01*
X100093428Y-67651428D01*
X100236285Y-67365714D01*
X100522000Y-67080000D01*
X100950571Y-66937142D01*
X101236285Y-66937142D01*
X101664857Y-67080000D01*
X101807714Y-67222857D01*
X102950571Y-69080000D02*
X104379142Y-69080000D01*
X102664857Y-69937142D02*
X103664857Y-66937142D01*
X104664857Y-69937142D01*
X105664857Y-69937142D02*
X105664857Y-66937142D01*
X106379142Y-66937142D01*
X106807714Y-67080000D01*
X107093428Y-67365714D01*
X107236285Y-67651428D01*
X107379142Y-68222857D01*
X107379142Y-68651428D01*
X107236285Y-69222857D01*
X107093428Y-69508571D01*
X106807714Y-69794285D01*
X106379142Y-69937142D01*
X105664857Y-69937142D01*
X108664857Y-69937142D02*
X108664857Y-66937142D01*
X111807714Y-69651428D02*
X111664857Y-69794285D01*
X111236285Y-69937142D01*
X110950571Y-69937142D01*
X110522000Y-69794285D01*
X110236285Y-69508571D01*
X110093428Y-69222857D01*
X109950571Y-68651428D01*
X109950571Y-68222857D01*
X110093428Y-67651428D01*
X110236285Y-67365714D01*
X110522000Y-67080000D01*
X110950571Y-66937142D01*
X111236285Y-66937142D01*
X111664857Y-67080000D01*
X111807714Y-67222857D01*
X115379142Y-69937142D02*
X115379142Y-66937142D01*
X116522000Y-66937142D01*
X116807714Y-67080000D01*
X116950571Y-67222857D01*
X117093428Y-67508571D01*
X117093428Y-67937142D01*
X116950571Y-68222857D01*
X116807714Y-68365714D01*
X116522000Y-68508571D01*
X115379142Y-68508571D01*
X118379142Y-69937142D02*
X118379142Y-66937142D01*
X119664857Y-69937142D02*
X119664857Y-68365714D01*
X119522000Y-68080000D01*
X119236285Y-67937142D01*
X118807714Y-67937142D01*
X118522000Y-68080000D01*
X118379142Y-68222857D01*
X121093428Y-69937142D02*
X121093428Y-67937142D01*
X121093428Y-66937142D02*
X120950571Y-67080000D01*
X121093428Y-67222857D01*
X121236285Y-67080000D01*
X121093428Y-66937142D01*
X121093428Y-67222857D01*
X122950571Y-69937142D02*
X122664857Y-69794285D01*
X122522000Y-69508571D01*
X122522000Y-66937142D01*
X124093428Y-69937142D02*
X124093428Y-67937142D01*
X124093428Y-66937142D02*
X123950571Y-67080000D01*
X124093428Y-67222857D01*
X124236285Y-67080000D01*
X124093428Y-66937142D01*
X124093428Y-67222857D01*
X125522000Y-67937142D02*
X125522000Y-70937142D01*
X125522000Y-68080000D02*
X125807714Y-67937142D01*
X126379142Y-67937142D01*
X126664857Y-68080000D01*
X126807714Y-68222857D01*
X126950571Y-68508571D01*
X126950571Y-69365714D01*
X126807714Y-69651428D01*
X126664857Y-69794285D01*
X126379142Y-69937142D01*
X125807714Y-69937142D01*
X125522000Y-69794285D01*
X128236285Y-67937142D02*
X128236285Y-70937142D01*
X128236285Y-68080000D02*
X128522000Y-67937142D01*
X129093428Y-67937142D01*
X129379142Y-68080000D01*
X129522000Y-68222857D01*
X129664857Y-68508571D01*
X129664857Y-69365714D01*
X129522000Y-69651428D01*
X129379142Y-69794285D01*
X129093428Y-69937142D01*
X128522000Y-69937142D01*
X128236285Y-69794285D01*
X132093428Y-69794285D02*
X131807714Y-69937142D01*
X131236285Y-69937142D01*
X130950571Y-69794285D01*
X130807714Y-69508571D01*
X130807714Y-68365714D01*
X130950571Y-68080000D01*
X131236285Y-67937142D01*
X131807714Y-67937142D01*
X132093428Y-68080000D01*
X132236285Y-68365714D01*
X132236285Y-68651428D01*
X130807714Y-68937142D01*
D12*
G36*
X114342333Y-94882122D02*
G01*
X114478002Y-95005743D01*
X114532833Y-95072622D01*
X114494077Y-95093952D01*
X114372993Y-94980165D01*
X114313122Y-94911333D01*
X114151833Y-94720833D01*
X114342333Y-94882122D01*
X114342333Y-94882122D01*
G37*
X114342333Y-94882122D02*
X114478002Y-95005743D01*
X114532833Y-95072622D01*
X114494077Y-95093952D01*
X114372993Y-94980165D01*
X114313122Y-94911333D01*
X114151833Y-94720833D01*
X114342333Y-94882122D01*
G36*
X114363500Y-95144167D02*
G01*
X114321166Y-95186500D01*
X114278833Y-95144167D01*
X114321166Y-95101833D01*
X114363500Y-95144167D01*
X114363500Y-95144167D01*
G37*
X114363500Y-95144167D02*
X114321166Y-95186500D01*
X114278833Y-95144167D01*
X114321166Y-95101833D01*
X114363500Y-95144167D01*
G36*
X114194166Y-95144167D02*
G01*
X114151833Y-95186500D01*
X114109500Y-95144167D01*
X114151833Y-95101833D01*
X114194166Y-95144167D01*
X114194166Y-95144167D01*
G37*
X114194166Y-95144167D02*
X114151833Y-95186500D01*
X114109500Y-95144167D01*
X114151833Y-95101833D01*
X114194166Y-95144167D01*
G36*
X116734166Y-95228833D02*
G01*
X116691833Y-95271167D01*
X116649500Y-95228833D01*
X116691833Y-95186500D01*
X116734166Y-95228833D01*
X116734166Y-95228833D01*
G37*
X116734166Y-95228833D02*
X116691833Y-95271167D01*
X116649500Y-95228833D01*
X116691833Y-95186500D01*
X116734166Y-95228833D01*
G36*
X117695028Y-92935545D02*
G01*
X117737387Y-93087175D01*
X117745755Y-93366782D01*
X117742705Y-93518398D01*
X117726351Y-94136296D01*
X117463092Y-94159828D01*
X117174502Y-94190835D01*
X116945833Y-94220950D01*
X116710085Y-94254051D01*
X116543666Y-94274996D01*
X116417734Y-94312384D01*
X116395500Y-94340743D01*
X116325921Y-94379918D01*
X116167002Y-94381420D01*
X115993466Y-94349492D01*
X115908666Y-94313106D01*
X115816018Y-94298278D01*
X115802833Y-94334836D01*
X115733992Y-94413499D01*
X115670836Y-94424500D01*
X115576299Y-94455964D01*
X115577810Y-94488000D01*
X115530392Y-94525128D01*
X115367512Y-94545555D01*
X115142181Y-94549635D01*
X114907408Y-94537724D01*
X114716205Y-94510174D01*
X114636568Y-94481707D01*
X114553756Y-94465943D01*
X114551902Y-94521353D01*
X114487284Y-94606635D01*
X114259876Y-94682635D01*
X114118547Y-94710906D01*
X113846332Y-94750817D01*
X113685631Y-94744241D01*
X113583174Y-94683687D01*
X113535656Y-94628926D01*
X113449363Y-94528113D01*
X113443479Y-94562572D01*
X113459956Y-94613708D01*
X113443232Y-94767880D01*
X113274819Y-94865580D01*
X112964207Y-94902256D01*
X112860595Y-94901212D01*
X112635206Y-94906241D01*
X112496990Y-94932001D01*
X112479595Y-94945879D01*
X112383990Y-94994861D01*
X112150163Y-95051282D01*
X111808652Y-95108623D01*
X111569500Y-95140187D01*
X111334487Y-95173370D01*
X111064206Y-95217689D01*
X111061500Y-95218168D01*
X110838478Y-95236933D01*
X110685011Y-95213389D01*
X110674670Y-95207418D01*
X110582198Y-95082526D01*
X110530593Y-94974833D01*
X111400166Y-94974833D01*
X111442500Y-95017167D01*
X111484833Y-94974833D01*
X111442500Y-94932500D01*
X111400166Y-94974833D01*
X110530593Y-94974833D01*
X110474045Y-94856827D01*
X110416197Y-94702769D01*
X111329147Y-94702769D01*
X111349748Y-94750085D01*
X111434998Y-94840978D01*
X111484009Y-94822333D01*
X111484833Y-94810497D01*
X111424696Y-94738884D01*
X111387084Y-94712748D01*
X111329147Y-94702769D01*
X110416197Y-94702769D01*
X110384405Y-94618102D01*
X112429814Y-94618102D01*
X112450415Y-94665418D01*
X112535665Y-94756312D01*
X112584675Y-94737666D01*
X112585500Y-94725830D01*
X112525363Y-94654217D01*
X112487751Y-94628082D01*
X112429814Y-94618102D01*
X110384405Y-94618102D01*
X110375303Y-94593865D01*
X110363805Y-94551500D01*
X111315500Y-94551500D01*
X111357833Y-94593833D01*
X111400166Y-94551500D01*
X111357833Y-94509167D01*
X111315500Y-94551500D01*
X110363805Y-94551500D01*
X110340825Y-94466833D01*
X112416166Y-94466833D01*
X112458500Y-94509167D01*
X112500833Y-94466833D01*
X112458500Y-94424500D01*
X112416166Y-94466833D01*
X110340825Y-94466833D01*
X110317844Y-94382167D01*
X111315500Y-94382167D01*
X111357833Y-94424500D01*
X111400166Y-94382167D01*
X111357833Y-94339833D01*
X111315500Y-94382167D01*
X110317844Y-94382167D01*
X110311063Y-94357184D01*
X110299500Y-94257290D01*
X110346622Y-94135047D01*
X110512121Y-94061379D01*
X110617000Y-94040403D01*
X110846208Y-93999551D01*
X111003577Y-93967029D01*
X111019166Y-93962948D01*
X111142402Y-93993785D01*
X111255643Y-94070967D01*
X111363987Y-94157322D01*
X111376559Y-94127245D01*
X111364907Y-94094418D01*
X112355484Y-94094418D01*
X112373249Y-94179255D01*
X112379276Y-94195318D01*
X112446349Y-94298996D01*
X112484481Y-94299740D01*
X112483496Y-94290444D01*
X113438850Y-94290444D01*
X113454417Y-94400258D01*
X113483319Y-94401569D01*
X113503530Y-94288252D01*
X113490003Y-94239292D01*
X113486044Y-94235914D01*
X114482998Y-94235914D01*
X114494115Y-94261017D01*
X114563614Y-94334956D01*
X114588774Y-94247842D01*
X114589277Y-94216558D01*
X114566585Y-94164987D01*
X115738925Y-94164987D01*
X115750506Y-94170500D01*
X115827771Y-94110896D01*
X115845166Y-94085833D01*
X115866741Y-94006679D01*
X115855160Y-94001167D01*
X115777894Y-94060770D01*
X115760500Y-94085833D01*
X115738925Y-94164987D01*
X114566585Y-94164987D01*
X114551914Y-94131645D01*
X114517341Y-94137741D01*
X114482998Y-94235914D01*
X113486044Y-94235914D01*
X113452408Y-94207221D01*
X113438850Y-94290444D01*
X112483496Y-94290444D01*
X112474984Y-94210175D01*
X112426672Y-94147922D01*
X112355484Y-94094418D01*
X111364907Y-94094418D01*
X111355651Y-94068346D01*
X111361478Y-94043500D01*
X113347500Y-94043500D01*
X113389833Y-94085833D01*
X113432166Y-94043500D01*
X113389833Y-94001167D01*
X113347500Y-94043500D01*
X111361478Y-94043500D01*
X111377152Y-93976675D01*
X111412404Y-93958833D01*
X112331500Y-93958833D01*
X112373833Y-94001167D01*
X112416166Y-93958833D01*
X114448166Y-93958833D01*
X114490500Y-94001167D01*
X114532833Y-93958833D01*
X114514769Y-93940769D01*
X116832481Y-93940769D01*
X116853081Y-93988085D01*
X116938332Y-94078978D01*
X116987342Y-94060333D01*
X116988166Y-94048497D01*
X116928029Y-93976884D01*
X116890418Y-93950748D01*
X116832481Y-93940769D01*
X114514769Y-93940769D01*
X114490500Y-93916500D01*
X114448166Y-93958833D01*
X112416166Y-93958833D01*
X112373833Y-93916500D01*
X112331500Y-93958833D01*
X111412404Y-93958833D01*
X111528029Y-93900313D01*
X111645388Y-93874167D01*
X113347500Y-93874167D01*
X113389833Y-93916500D01*
X113432166Y-93874167D01*
X113389833Y-93831833D01*
X115718166Y-93831833D01*
X115749144Y-93901523D01*
X115774611Y-93888278D01*
X115784744Y-93787798D01*
X115774611Y-93775389D01*
X115724276Y-93787011D01*
X115718166Y-93831833D01*
X113389833Y-93831833D01*
X113347500Y-93874167D01*
X111645388Y-93874167D01*
X111821809Y-93834863D01*
X112246833Y-93778650D01*
X112459277Y-93748915D01*
X112469756Y-93747167D01*
X114448166Y-93747167D01*
X114479144Y-93816857D01*
X114504611Y-93803611D01*
X114514744Y-93703131D01*
X114504611Y-93690722D01*
X114454276Y-93702344D01*
X114448166Y-93747167D01*
X112469756Y-93747167D01*
X112745606Y-93701156D01*
X112863682Y-93679663D01*
X113142273Y-93645828D01*
X113299736Y-93667419D01*
X113318766Y-93684504D01*
X113395556Y-93699299D01*
X113406851Y-93686769D01*
X116747814Y-93686769D01*
X116768415Y-93734085D01*
X116853665Y-93824978D01*
X116902675Y-93806333D01*
X116903500Y-93794497D01*
X116843363Y-93722884D01*
X116805751Y-93696748D01*
X116747814Y-93686769D01*
X113406851Y-93686769D01*
X113439661Y-93650372D01*
X113468463Y-93620167D01*
X115633500Y-93620167D01*
X115675833Y-93662500D01*
X115718166Y-93620167D01*
X115675833Y-93577833D01*
X115633500Y-93620167D01*
X113468463Y-93620167D01*
X113539097Y-93546095D01*
X113577245Y-93531680D01*
X113697029Y-93513864D01*
X113910016Y-93474529D01*
X113967751Y-93463140D01*
X114257672Y-93441706D01*
X114428503Y-93509293D01*
X114516449Y-93564244D01*
X114505523Y-93520429D01*
X114513484Y-93450833D01*
X115633500Y-93450833D01*
X115675833Y-93493167D01*
X115718166Y-93450833D01*
X116734166Y-93450833D01*
X116776500Y-93493167D01*
X116818833Y-93450833D01*
X116776500Y-93408500D01*
X116734166Y-93450833D01*
X115718166Y-93450833D01*
X115675833Y-93408500D01*
X115633500Y-93450833D01*
X114513484Y-93450833D01*
X114516489Y-93424569D01*
X114682438Y-93351916D01*
X115008598Y-93300799D01*
X115253563Y-93281541D01*
X115254023Y-93281500D01*
X116734166Y-93281500D01*
X116776500Y-93323833D01*
X116818833Y-93281500D01*
X116776500Y-93239167D01*
X116734166Y-93281500D01*
X115254023Y-93281500D01*
X115523838Y-93257471D01*
X115724687Y-93225772D01*
X115789337Y-93205174D01*
X115918451Y-93161403D01*
X116138878Y-93114319D01*
X116195120Y-93104903D01*
X116419301Y-93063238D01*
X116564490Y-93024928D01*
X116580149Y-93017746D01*
X116668705Y-93042887D01*
X116696566Y-93077491D01*
X116775136Y-93121890D01*
X116808250Y-93087218D01*
X116922816Y-93013616D01*
X117115166Y-92960142D01*
X117324250Y-92924236D01*
X117453833Y-92899436D01*
X117605051Y-92882697D01*
X117695028Y-92935545D01*
X117695028Y-92935545D01*
G37*
X117695028Y-92935545D02*
X117737387Y-93087175D01*
X117745755Y-93366782D01*
X117742705Y-93518398D01*
X117726351Y-94136296D01*
X117463092Y-94159828D01*
X117174502Y-94190835D01*
X116945833Y-94220950D01*
X116710085Y-94254051D01*
X116543666Y-94274996D01*
X116417734Y-94312384D01*
X116395500Y-94340743D01*
X116325921Y-94379918D01*
X116167002Y-94381420D01*
X115993466Y-94349492D01*
X115908666Y-94313106D01*
X115816018Y-94298278D01*
X115802833Y-94334836D01*
X115733992Y-94413499D01*
X115670836Y-94424500D01*
X115576299Y-94455964D01*
X115577810Y-94488000D01*
X115530392Y-94525128D01*
X115367512Y-94545555D01*
X115142181Y-94549635D01*
X114907408Y-94537724D01*
X114716205Y-94510174D01*
X114636568Y-94481707D01*
X114553756Y-94465943D01*
X114551902Y-94521353D01*
X114487284Y-94606635D01*
X114259876Y-94682635D01*
X114118547Y-94710906D01*
X113846332Y-94750817D01*
X113685631Y-94744241D01*
X113583174Y-94683687D01*
X113535656Y-94628926D01*
X113449363Y-94528113D01*
X113443479Y-94562572D01*
X113459956Y-94613708D01*
X113443232Y-94767880D01*
X113274819Y-94865580D01*
X112964207Y-94902256D01*
X112860595Y-94901212D01*
X112635206Y-94906241D01*
X112496990Y-94932001D01*
X112479595Y-94945879D01*
X112383990Y-94994861D01*
X112150163Y-95051282D01*
X111808652Y-95108623D01*
X111569500Y-95140187D01*
X111334487Y-95173370D01*
X111064206Y-95217689D01*
X111061500Y-95218168D01*
X110838478Y-95236933D01*
X110685011Y-95213389D01*
X110674670Y-95207418D01*
X110582198Y-95082526D01*
X110530593Y-94974833D01*
X111400166Y-94974833D01*
X111442500Y-95017167D01*
X111484833Y-94974833D01*
X111442500Y-94932500D01*
X111400166Y-94974833D01*
X110530593Y-94974833D01*
X110474045Y-94856827D01*
X110416197Y-94702769D01*
X111329147Y-94702769D01*
X111349748Y-94750085D01*
X111434998Y-94840978D01*
X111484009Y-94822333D01*
X111484833Y-94810497D01*
X111424696Y-94738884D01*
X111387084Y-94712748D01*
X111329147Y-94702769D01*
X110416197Y-94702769D01*
X110384405Y-94618102D01*
X112429814Y-94618102D01*
X112450415Y-94665418D01*
X112535665Y-94756312D01*
X112584675Y-94737666D01*
X112585500Y-94725830D01*
X112525363Y-94654217D01*
X112487751Y-94628082D01*
X112429814Y-94618102D01*
X110384405Y-94618102D01*
X110375303Y-94593865D01*
X110363805Y-94551500D01*
X111315500Y-94551500D01*
X111357833Y-94593833D01*
X111400166Y-94551500D01*
X111357833Y-94509167D01*
X111315500Y-94551500D01*
X110363805Y-94551500D01*
X110340825Y-94466833D01*
X112416166Y-94466833D01*
X112458500Y-94509167D01*
X112500833Y-94466833D01*
X112458500Y-94424500D01*
X112416166Y-94466833D01*
X110340825Y-94466833D01*
X110317844Y-94382167D01*
X111315500Y-94382167D01*
X111357833Y-94424500D01*
X111400166Y-94382167D01*
X111357833Y-94339833D01*
X111315500Y-94382167D01*
X110317844Y-94382167D01*
X110311063Y-94357184D01*
X110299500Y-94257290D01*
X110346622Y-94135047D01*
X110512121Y-94061379D01*
X110617000Y-94040403D01*
X110846208Y-93999551D01*
X111003577Y-93967029D01*
X111019166Y-93962948D01*
X111142402Y-93993785D01*
X111255643Y-94070967D01*
X111363987Y-94157322D01*
X111376559Y-94127245D01*
X111364907Y-94094418D01*
X112355484Y-94094418D01*
X112373249Y-94179255D01*
X112379276Y-94195318D01*
X112446349Y-94298996D01*
X112484481Y-94299740D01*
X112483496Y-94290444D01*
X113438850Y-94290444D01*
X113454417Y-94400258D01*
X113483319Y-94401569D01*
X113503530Y-94288252D01*
X113490003Y-94239292D01*
X113486044Y-94235914D01*
X114482998Y-94235914D01*
X114494115Y-94261017D01*
X114563614Y-94334956D01*
X114588774Y-94247842D01*
X114589277Y-94216558D01*
X114566585Y-94164987D01*
X115738925Y-94164987D01*
X115750506Y-94170500D01*
X115827771Y-94110896D01*
X115845166Y-94085833D01*
X115866741Y-94006679D01*
X115855160Y-94001167D01*
X115777894Y-94060770D01*
X115760500Y-94085833D01*
X115738925Y-94164987D01*
X114566585Y-94164987D01*
X114551914Y-94131645D01*
X114517341Y-94137741D01*
X114482998Y-94235914D01*
X113486044Y-94235914D01*
X113452408Y-94207221D01*
X113438850Y-94290444D01*
X112483496Y-94290444D01*
X112474984Y-94210175D01*
X112426672Y-94147922D01*
X112355484Y-94094418D01*
X111364907Y-94094418D01*
X111355651Y-94068346D01*
X111361478Y-94043500D01*
X113347500Y-94043500D01*
X113389833Y-94085833D01*
X113432166Y-94043500D01*
X113389833Y-94001167D01*
X113347500Y-94043500D01*
X111361478Y-94043500D01*
X111377152Y-93976675D01*
X111412404Y-93958833D01*
X112331500Y-93958833D01*
X112373833Y-94001167D01*
X112416166Y-93958833D01*
X114448166Y-93958833D01*
X114490500Y-94001167D01*
X114532833Y-93958833D01*
X114514769Y-93940769D01*
X116832481Y-93940769D01*
X116853081Y-93988085D01*
X116938332Y-94078978D01*
X116987342Y-94060333D01*
X116988166Y-94048497D01*
X116928029Y-93976884D01*
X116890418Y-93950748D01*
X116832481Y-93940769D01*
X114514769Y-93940769D01*
X114490500Y-93916500D01*
X114448166Y-93958833D01*
X112416166Y-93958833D01*
X112373833Y-93916500D01*
X112331500Y-93958833D01*
X111412404Y-93958833D01*
X111528029Y-93900313D01*
X111645388Y-93874167D01*
X113347500Y-93874167D01*
X113389833Y-93916500D01*
X113432166Y-93874167D01*
X113389833Y-93831833D01*
X115718166Y-93831833D01*
X115749144Y-93901523D01*
X115774611Y-93888278D01*
X115784744Y-93787798D01*
X115774611Y-93775389D01*
X115724276Y-93787011D01*
X115718166Y-93831833D01*
X113389833Y-93831833D01*
X113347500Y-93874167D01*
X111645388Y-93874167D01*
X111821809Y-93834863D01*
X112246833Y-93778650D01*
X112459277Y-93748915D01*
X112469756Y-93747167D01*
X114448166Y-93747167D01*
X114479144Y-93816857D01*
X114504611Y-93803611D01*
X114514744Y-93703131D01*
X114504611Y-93690722D01*
X114454276Y-93702344D01*
X114448166Y-93747167D01*
X112469756Y-93747167D01*
X112745606Y-93701156D01*
X112863682Y-93679663D01*
X113142273Y-93645828D01*
X113299736Y-93667419D01*
X113318766Y-93684504D01*
X113395556Y-93699299D01*
X113406851Y-93686769D01*
X116747814Y-93686769D01*
X116768415Y-93734085D01*
X116853665Y-93824978D01*
X116902675Y-93806333D01*
X116903500Y-93794497D01*
X116843363Y-93722884D01*
X116805751Y-93696748D01*
X116747814Y-93686769D01*
X113406851Y-93686769D01*
X113439661Y-93650372D01*
X113468463Y-93620167D01*
X115633500Y-93620167D01*
X115675833Y-93662500D01*
X115718166Y-93620167D01*
X115675833Y-93577833D01*
X115633500Y-93620167D01*
X113468463Y-93620167D01*
X113539097Y-93546095D01*
X113577245Y-93531680D01*
X113697029Y-93513864D01*
X113910016Y-93474529D01*
X113967751Y-93463140D01*
X114257672Y-93441706D01*
X114428503Y-93509293D01*
X114516449Y-93564244D01*
X114505523Y-93520429D01*
X114513484Y-93450833D01*
X115633500Y-93450833D01*
X115675833Y-93493167D01*
X115718166Y-93450833D01*
X116734166Y-93450833D01*
X116776500Y-93493167D01*
X116818833Y-93450833D01*
X116776500Y-93408500D01*
X116734166Y-93450833D01*
X115718166Y-93450833D01*
X115675833Y-93408500D01*
X115633500Y-93450833D01*
X114513484Y-93450833D01*
X114516489Y-93424569D01*
X114682438Y-93351916D01*
X115008598Y-93300799D01*
X115253563Y-93281541D01*
X115254023Y-93281500D01*
X116734166Y-93281500D01*
X116776500Y-93323833D01*
X116818833Y-93281500D01*
X116776500Y-93239167D01*
X116734166Y-93281500D01*
X115254023Y-93281500D01*
X115523838Y-93257471D01*
X115724687Y-93225772D01*
X115789337Y-93205174D01*
X115918451Y-93161403D01*
X116138878Y-93114319D01*
X116195120Y-93104903D01*
X116419301Y-93063238D01*
X116564490Y-93024928D01*
X116580149Y-93017746D01*
X116668705Y-93042887D01*
X116696566Y-93077491D01*
X116775136Y-93121890D01*
X116808250Y-93087218D01*
X116922816Y-93013616D01*
X117115166Y-92960142D01*
X117324250Y-92924236D01*
X117453833Y-92899436D01*
X117605051Y-92882697D01*
X117695028Y-92935545D01*
G36*
X114604418Y-95220748D02*
G01*
X114695311Y-95305999D01*
X114676666Y-95355009D01*
X114664830Y-95355833D01*
X114593217Y-95295696D01*
X114567081Y-95258085D01*
X114557102Y-95200148D01*
X114604418Y-95220748D01*
X114604418Y-95220748D01*
G37*
X114604418Y-95220748D02*
X114695311Y-95305999D01*
X114676666Y-95355009D01*
X114664830Y-95355833D01*
X114593217Y-95295696D01*
X114567081Y-95258085D01*
X114557102Y-95200148D01*
X114604418Y-95220748D01*
G36*
X117411500Y-95398167D02*
G01*
X117369166Y-95440500D01*
X117326833Y-95398167D01*
X117369166Y-95355833D01*
X117411500Y-95398167D01*
X117411500Y-95398167D01*
G37*
X117411500Y-95398167D02*
X117369166Y-95440500D01*
X117326833Y-95398167D01*
X117369166Y-95355833D01*
X117411500Y-95398167D01*
G36*
X114448166Y-95398167D02*
G01*
X114405833Y-95440500D01*
X114363500Y-95398167D01*
X114405833Y-95355833D01*
X114448166Y-95398167D01*
X114448166Y-95398167D01*
G37*
X114448166Y-95398167D02*
X114405833Y-95440500D01*
X114363500Y-95398167D01*
X114405833Y-95355833D01*
X114448166Y-95398167D01*
G36*
X114181084Y-95305415D02*
G01*
X114271978Y-95390665D01*
X114253332Y-95439676D01*
X114241496Y-95440500D01*
X114169884Y-95380363D01*
X114143748Y-95342751D01*
X114133769Y-95284814D01*
X114181084Y-95305415D01*
X114181084Y-95305415D01*
G37*
X114181084Y-95305415D02*
X114271978Y-95390665D01*
X114253332Y-95439676D01*
X114241496Y-95440500D01*
X114169884Y-95380363D01*
X114143748Y-95342751D01*
X114133769Y-95284814D01*
X114181084Y-95305415D01*
G36*
X117157500Y-95482833D02*
G01*
X117115166Y-95525167D01*
X117072833Y-95482833D01*
X117115166Y-95440500D01*
X117157500Y-95482833D01*
X117157500Y-95482833D01*
G37*
X117157500Y-95482833D02*
X117115166Y-95525167D01*
X117072833Y-95482833D01*
X117115166Y-95440500D01*
X117157500Y-95482833D01*
G36*
X114702166Y-95482833D02*
G01*
X114659833Y-95525167D01*
X114617500Y-95482833D01*
X114659833Y-95440500D01*
X114702166Y-95482833D01*
X114702166Y-95482833D01*
G37*
X114702166Y-95482833D02*
X114659833Y-95525167D01*
X114617500Y-95482833D01*
X114659833Y-95440500D01*
X114702166Y-95482833D01*
G36*
X112754833Y-95482833D02*
G01*
X112712500Y-95525167D01*
X112670166Y-95482833D01*
X112712500Y-95440500D01*
X112754833Y-95482833D01*
X112754833Y-95482833D01*
G37*
X112754833Y-95482833D02*
X112712500Y-95525167D01*
X112670166Y-95482833D01*
X112712500Y-95440500D01*
X112754833Y-95482833D01*
G36*
X114532833Y-95567500D02*
G01*
X114490500Y-95609833D01*
X114448166Y-95567500D01*
X114490500Y-95525167D01*
X114532833Y-95567500D01*
X114532833Y-95567500D01*
G37*
X114532833Y-95567500D02*
X114490500Y-95609833D01*
X114448166Y-95567500D01*
X114490500Y-95525167D01*
X114532833Y-95567500D01*
G36*
X115548833Y-95567500D02*
G01*
X115605143Y-95670219D01*
X115626608Y-95616799D01*
X115627549Y-95599648D01*
X115664799Y-95516346D01*
X115792773Y-95483090D01*
X116035666Y-95488306D01*
X116488238Y-95529979D01*
X116806225Y-95591361D01*
X117023896Y-95679417D01*
X117047966Y-95694048D01*
X117137074Y-95759588D01*
X117082886Y-95764998D01*
X116988166Y-95746870D01*
X116847756Y-95724645D01*
X116856060Y-95759767D01*
X116923359Y-95812922D01*
X116991141Y-95882265D01*
X116984502Y-95963501D01*
X116886257Y-96089495D01*
X116679220Y-96293108D01*
X116665383Y-96306220D01*
X116198172Y-96688087D01*
X115701459Y-96958920D01*
X115109018Y-97154435D01*
X115078088Y-97162275D01*
X114438950Y-97291439D01*
X113871744Y-97332232D01*
X113316835Y-97291068D01*
X112619651Y-97113013D01*
X111971454Y-96789314D01*
X111529674Y-96449772D01*
X111307705Y-96227012D01*
X111223110Y-96068988D01*
X111260321Y-95990833D01*
X111315500Y-95990833D01*
X111357833Y-96033167D01*
X111400166Y-95990833D01*
X111357833Y-95948500D01*
X111315500Y-95990833D01*
X111260321Y-95990833D01*
X111282775Y-95943674D01*
X111346218Y-95906167D01*
X111484833Y-95906167D01*
X111527166Y-95948500D01*
X111569500Y-95906167D01*
X111527166Y-95863833D01*
X111484833Y-95906167D01*
X111346218Y-95906167D01*
X111493583Y-95819047D01*
X111520322Y-95807389D01*
X111682388Y-95807389D01*
X111694011Y-95857723D01*
X111738833Y-95863833D01*
X111808523Y-95832855D01*
X111795277Y-95807389D01*
X111694798Y-95797256D01*
X111682388Y-95807389D01*
X111520322Y-95807389D01*
X111683016Y-95736456D01*
X111886637Y-95662296D01*
X111961934Y-95667078D01*
X111951904Y-95711320D01*
X111952387Y-95740071D01*
X112028888Y-95657151D01*
X112129243Y-95558940D01*
X112163123Y-95603584D01*
X112163463Y-95614818D01*
X112189887Y-95682194D01*
X112220638Y-95652167D01*
X112331500Y-95652167D01*
X112373833Y-95694500D01*
X112378830Y-95689503D01*
X113770833Y-95689503D01*
X113832293Y-95775721D01*
X113855500Y-95779167D01*
X113937965Y-95750280D01*
X113940166Y-95741830D01*
X113939123Y-95740558D01*
X114053055Y-95740558D01*
X114071524Y-95855595D01*
X114132824Y-95808875D01*
X114148217Y-95785017D01*
X114143954Y-95678278D01*
X114124992Y-95661741D01*
X114061967Y-95686817D01*
X114053055Y-95740558D01*
X113939123Y-95740558D01*
X113880837Y-95669544D01*
X113855500Y-95652167D01*
X113777481Y-95658879D01*
X113770833Y-95689503D01*
X112378830Y-95689503D01*
X112416166Y-95652167D01*
X112373833Y-95609833D01*
X112331500Y-95652167D01*
X112220638Y-95652167D01*
X112226963Y-95645991D01*
X112324805Y-95567500D01*
X112500833Y-95567500D01*
X112543166Y-95609833D01*
X112563408Y-95589591D01*
X112960888Y-95589591D01*
X113044111Y-95603149D01*
X113153925Y-95587582D01*
X113155236Y-95558680D01*
X113041919Y-95538469D01*
X112992958Y-95551996D01*
X112960888Y-95589591D01*
X112563408Y-95589591D01*
X112585500Y-95567500D01*
X112543166Y-95525167D01*
X112500833Y-95567500D01*
X112324805Y-95567500D01*
X112376807Y-95525783D01*
X112554258Y-95495608D01*
X112650293Y-95539160D01*
X112753547Y-95573456D01*
X112792607Y-95532544D01*
X112918299Y-95449026D01*
X113089383Y-95443610D01*
X113229676Y-95507315D01*
X113268784Y-95588667D01*
X113281976Y-95687441D01*
X113323351Y-95621624D01*
X113332284Y-95600762D01*
X113337901Y-95594341D01*
X113484074Y-95594341D01*
X113509150Y-95657366D01*
X113562891Y-95666278D01*
X113673474Y-95653286D01*
X113686166Y-95643052D01*
X113623104Y-95576968D01*
X113514670Y-95570917D01*
X113484074Y-95594341D01*
X113337901Y-95594341D01*
X113413905Y-95507462D01*
X113569838Y-95495279D01*
X113837531Y-95561837D01*
X113855634Y-95567542D01*
X113986526Y-95592816D01*
X113988141Y-95532987D01*
X113976850Y-95513071D01*
X113957255Y-95452479D01*
X114047501Y-95506440D01*
X114072080Y-95525167D01*
X114261418Y-95695653D01*
X114309623Y-95814882D01*
X114253197Y-95889211D01*
X114208807Y-95936727D01*
X114278833Y-95923196D01*
X114378166Y-95836512D01*
X114382539Y-95783369D01*
X114422810Y-95719286D01*
X114541309Y-95739523D01*
X114668641Y-95758207D01*
X114665439Y-95703571D01*
X114677247Y-95622272D01*
X114732447Y-95609833D01*
X114870802Y-95671499D01*
X114900093Y-95715667D01*
X114936323Y-95734705D01*
X114950778Y-95652167D01*
X114969586Y-95540680D01*
X115025001Y-95586007D01*
X115040833Y-95609833D01*
X115109294Y-95678721D01*
X115117590Y-95652167D01*
X115210166Y-95652167D01*
X115252500Y-95694500D01*
X115258013Y-95688987D01*
X115738925Y-95688987D01*
X115750506Y-95694500D01*
X115827771Y-95634896D01*
X115839664Y-95617760D01*
X115972166Y-95617760D01*
X116043149Y-95680133D01*
X116141500Y-95694500D01*
X116279322Y-95680842D01*
X116310833Y-95662041D01*
X116287795Y-95647364D01*
X116422688Y-95647364D01*
X116480166Y-95694500D01*
X116634515Y-95766144D01*
X116691833Y-95776574D01*
X116706978Y-95741636D01*
X116649500Y-95694500D01*
X116495151Y-95622856D01*
X116437833Y-95612426D01*
X116422688Y-95647364D01*
X116287795Y-95647364D01*
X116241023Y-95617567D01*
X116141500Y-95585301D01*
X116006492Y-95580553D01*
X115972166Y-95617760D01*
X115839664Y-95617760D01*
X115845166Y-95609833D01*
X115866741Y-95530679D01*
X115855160Y-95525167D01*
X115777894Y-95584770D01*
X115760500Y-95609833D01*
X115738925Y-95688987D01*
X115258013Y-95688987D01*
X115294833Y-95652167D01*
X115252500Y-95609833D01*
X115210166Y-95652167D01*
X115117590Y-95652167D01*
X115124203Y-95631000D01*
X115193164Y-95535759D01*
X115245444Y-95525167D01*
X115381402Y-95589182D01*
X115408093Y-95631000D01*
X115446063Y-95650099D01*
X115463433Y-95567500D01*
X115476068Y-95398167D01*
X115548833Y-95567500D01*
X115548833Y-95567500D01*
G37*
X115548833Y-95567500D02*
X115605143Y-95670219D01*
X115626608Y-95616799D01*
X115627549Y-95599648D01*
X115664799Y-95516346D01*
X115792773Y-95483090D01*
X116035666Y-95488306D01*
X116488238Y-95529979D01*
X116806225Y-95591361D01*
X117023896Y-95679417D01*
X117047966Y-95694048D01*
X117137074Y-95759588D01*
X117082886Y-95764998D01*
X116988166Y-95746870D01*
X116847756Y-95724645D01*
X116856060Y-95759767D01*
X116923359Y-95812922D01*
X116991141Y-95882265D01*
X116984502Y-95963501D01*
X116886257Y-96089495D01*
X116679220Y-96293108D01*
X116665383Y-96306220D01*
X116198172Y-96688087D01*
X115701459Y-96958920D01*
X115109018Y-97154435D01*
X115078088Y-97162275D01*
X114438950Y-97291439D01*
X113871744Y-97332232D01*
X113316835Y-97291068D01*
X112619651Y-97113013D01*
X111971454Y-96789314D01*
X111529674Y-96449772D01*
X111307705Y-96227012D01*
X111223110Y-96068988D01*
X111260321Y-95990833D01*
X111315500Y-95990833D01*
X111357833Y-96033167D01*
X111400166Y-95990833D01*
X111357833Y-95948500D01*
X111315500Y-95990833D01*
X111260321Y-95990833D01*
X111282775Y-95943674D01*
X111346218Y-95906167D01*
X111484833Y-95906167D01*
X111527166Y-95948500D01*
X111569500Y-95906167D01*
X111527166Y-95863833D01*
X111484833Y-95906167D01*
X111346218Y-95906167D01*
X111493583Y-95819047D01*
X111520322Y-95807389D01*
X111682388Y-95807389D01*
X111694011Y-95857723D01*
X111738833Y-95863833D01*
X111808523Y-95832855D01*
X111795277Y-95807389D01*
X111694798Y-95797256D01*
X111682388Y-95807389D01*
X111520322Y-95807389D01*
X111683016Y-95736456D01*
X111886637Y-95662296D01*
X111961934Y-95667078D01*
X111951904Y-95711320D01*
X111952387Y-95740071D01*
X112028888Y-95657151D01*
X112129243Y-95558940D01*
X112163123Y-95603584D01*
X112163463Y-95614818D01*
X112189887Y-95682194D01*
X112220638Y-95652167D01*
X112331500Y-95652167D01*
X112373833Y-95694500D01*
X112378830Y-95689503D01*
X113770833Y-95689503D01*
X113832293Y-95775721D01*
X113855500Y-95779167D01*
X113937965Y-95750280D01*
X113940166Y-95741830D01*
X113939123Y-95740558D01*
X114053055Y-95740558D01*
X114071524Y-95855595D01*
X114132824Y-95808875D01*
X114148217Y-95785017D01*
X114143954Y-95678278D01*
X114124992Y-95661741D01*
X114061967Y-95686817D01*
X114053055Y-95740558D01*
X113939123Y-95740558D01*
X113880837Y-95669544D01*
X113855500Y-95652167D01*
X113777481Y-95658879D01*
X113770833Y-95689503D01*
X112378830Y-95689503D01*
X112416166Y-95652167D01*
X112373833Y-95609833D01*
X112331500Y-95652167D01*
X112220638Y-95652167D01*
X112226963Y-95645991D01*
X112324805Y-95567500D01*
X112500833Y-95567500D01*
X112543166Y-95609833D01*
X112563408Y-95589591D01*
X112960888Y-95589591D01*
X113044111Y-95603149D01*
X113153925Y-95587582D01*
X113155236Y-95558680D01*
X113041919Y-95538469D01*
X112992958Y-95551996D01*
X112960888Y-95589591D01*
X112563408Y-95589591D01*
X112585500Y-95567500D01*
X112543166Y-95525167D01*
X112500833Y-95567500D01*
X112324805Y-95567500D01*
X112376807Y-95525783D01*
X112554258Y-95495608D01*
X112650293Y-95539160D01*
X112753547Y-95573456D01*
X112792607Y-95532544D01*
X112918299Y-95449026D01*
X113089383Y-95443610D01*
X113229676Y-95507315D01*
X113268784Y-95588667D01*
X113281976Y-95687441D01*
X113323351Y-95621624D01*
X113332284Y-95600762D01*
X113337901Y-95594341D01*
X113484074Y-95594341D01*
X113509150Y-95657366D01*
X113562891Y-95666278D01*
X113673474Y-95653286D01*
X113686166Y-95643052D01*
X113623104Y-95576968D01*
X113514670Y-95570917D01*
X113484074Y-95594341D01*
X113337901Y-95594341D01*
X113413905Y-95507462D01*
X113569838Y-95495279D01*
X113837531Y-95561837D01*
X113855634Y-95567542D01*
X113986526Y-95592816D01*
X113988141Y-95532987D01*
X113976850Y-95513071D01*
X113957255Y-95452479D01*
X114047501Y-95506440D01*
X114072080Y-95525167D01*
X114261418Y-95695653D01*
X114309623Y-95814882D01*
X114253197Y-95889211D01*
X114208807Y-95936727D01*
X114278833Y-95923196D01*
X114378166Y-95836512D01*
X114382539Y-95783369D01*
X114422810Y-95719286D01*
X114541309Y-95739523D01*
X114668641Y-95758207D01*
X114665439Y-95703571D01*
X114677247Y-95622272D01*
X114732447Y-95609833D01*
X114870802Y-95671499D01*
X114900093Y-95715667D01*
X114936323Y-95734705D01*
X114950778Y-95652167D01*
X114969586Y-95540680D01*
X115025001Y-95586007D01*
X115040833Y-95609833D01*
X115109294Y-95678721D01*
X115117590Y-95652167D01*
X115210166Y-95652167D01*
X115252500Y-95694500D01*
X115258013Y-95688987D01*
X115738925Y-95688987D01*
X115750506Y-95694500D01*
X115827771Y-95634896D01*
X115839664Y-95617760D01*
X115972166Y-95617760D01*
X116043149Y-95680133D01*
X116141500Y-95694500D01*
X116279322Y-95680842D01*
X116310833Y-95662041D01*
X116287795Y-95647364D01*
X116422688Y-95647364D01*
X116480166Y-95694500D01*
X116634515Y-95766144D01*
X116691833Y-95776574D01*
X116706978Y-95741636D01*
X116649500Y-95694500D01*
X116495151Y-95622856D01*
X116437833Y-95612426D01*
X116422688Y-95647364D01*
X116287795Y-95647364D01*
X116241023Y-95617567D01*
X116141500Y-95585301D01*
X116006492Y-95580553D01*
X115972166Y-95617760D01*
X115839664Y-95617760D01*
X115845166Y-95609833D01*
X115866741Y-95530679D01*
X115855160Y-95525167D01*
X115777894Y-95584770D01*
X115760500Y-95609833D01*
X115738925Y-95688987D01*
X115258013Y-95688987D01*
X115294833Y-95652167D01*
X115252500Y-95609833D01*
X115210166Y-95652167D01*
X115117590Y-95652167D01*
X115124203Y-95631000D01*
X115193164Y-95535759D01*
X115245444Y-95525167D01*
X115381402Y-95589182D01*
X115408093Y-95631000D01*
X115446063Y-95650099D01*
X115463433Y-95567500D01*
X115476068Y-95398167D01*
X115548833Y-95567500D01*
G36*
X113601500Y-97430167D02*
G01*
X113559166Y-97472500D01*
X113516833Y-97430167D01*
X113559166Y-97387833D01*
X113601500Y-97430167D01*
X113601500Y-97430167D01*
G37*
X113601500Y-97430167D02*
X113559166Y-97472500D01*
X113516833Y-97430167D01*
X113559166Y-97387833D01*
X113601500Y-97430167D01*
G36*
X116909714Y-89204020D02*
G01*
X116948859Y-89342632D01*
X116906076Y-89469489D01*
X116804683Y-89513833D01*
X116679082Y-89453510D01*
X116649500Y-89309658D01*
X116688722Y-89152474D01*
X116791173Y-89126276D01*
X116909714Y-89204020D01*
X116909714Y-89204020D01*
G37*
X116909714Y-89204020D02*
X116948859Y-89342632D01*
X116906076Y-89469489D01*
X116804683Y-89513833D01*
X116679082Y-89453510D01*
X116649500Y-89309658D01*
X116688722Y-89152474D01*
X116791173Y-89126276D01*
X116909714Y-89204020D01*
G36*
X115907625Y-89274770D02*
G01*
X115929833Y-89344500D01*
X115859448Y-89464048D01*
X115781666Y-89497715D01*
X115661655Y-89468263D01*
X115633500Y-89344500D01*
X115676351Y-89205539D01*
X115781666Y-89191285D01*
X115907625Y-89274770D01*
X115907625Y-89274770D01*
G37*
X115907625Y-89274770D02*
X115929833Y-89344500D01*
X115859448Y-89464048D01*
X115781666Y-89497715D01*
X115661655Y-89468263D01*
X115633500Y-89344500D01*
X115676351Y-89205539D01*
X115781666Y-89191285D01*
X115907625Y-89274770D01*
G36*
X111450659Y-89232679D02*
G01*
X111483609Y-89354061D01*
X111416615Y-89462580D01*
X111333021Y-89489234D01*
X111199315Y-89431521D01*
X111168950Y-89337918D01*
X111216325Y-89202015D01*
X111320761Y-89175167D01*
X111450659Y-89232679D01*
X111450659Y-89232679D01*
G37*
X111450659Y-89232679D02*
X111483609Y-89354061D01*
X111416615Y-89462580D01*
X111333021Y-89489234D01*
X111199315Y-89431521D01*
X111168950Y-89337918D01*
X111216325Y-89202015D01*
X111320761Y-89175167D01*
X111450659Y-89232679D01*
G36*
X115416528Y-89124087D02*
G01*
X115451262Y-89255745D01*
X115447502Y-89344500D01*
X115392946Y-89540342D01*
X115285443Y-89600595D01*
X115181944Y-89542055D01*
X115137394Y-89420906D01*
X115125500Y-89288055D01*
X115171032Y-89129669D01*
X115296178Y-89090500D01*
X115416528Y-89124087D01*
X115416528Y-89124087D01*
G37*
X115416528Y-89124087D02*
X115451262Y-89255745D01*
X115447502Y-89344500D01*
X115392946Y-89540342D01*
X115285443Y-89600595D01*
X115181944Y-89542055D01*
X115137394Y-89420906D01*
X115125500Y-89288055D01*
X115171032Y-89129669D01*
X115296178Y-89090500D01*
X115416528Y-89124087D01*
G36*
X112944700Y-89131480D02*
G01*
X112979695Y-89282097D01*
X112978674Y-89344500D01*
X112937425Y-89537873D01*
X112824177Y-89598447D01*
X112819230Y-89598500D01*
X112707273Y-89546935D01*
X112670449Y-89370637D01*
X112670166Y-89344500D01*
X112698315Y-89156590D01*
X112799077Y-89092038D01*
X112829610Y-89090500D01*
X112944700Y-89131480D01*
X112944700Y-89131480D01*
G37*
X112944700Y-89131480D02*
X112979695Y-89282097D01*
X112978674Y-89344500D01*
X112937425Y-89537873D01*
X112824177Y-89598447D01*
X112819230Y-89598500D01*
X112707273Y-89546935D01*
X112670449Y-89370637D01*
X112670166Y-89344500D01*
X112698315Y-89156590D01*
X112799077Y-89092038D01*
X112829610Y-89090500D01*
X112944700Y-89131480D01*
G36*
X111950217Y-89133293D02*
G01*
X111992061Y-89289226D01*
X111992833Y-89330389D01*
X111943247Y-89510473D01*
X111825985Y-89583964D01*
X111696500Y-89527944D01*
X111663271Y-89419209D01*
X111654166Y-89288055D01*
X111699939Y-89129431D01*
X111823500Y-89090500D01*
X111950217Y-89133293D01*
X111950217Y-89133293D01*
G37*
X111950217Y-89133293D02*
X111992061Y-89289226D01*
X111992833Y-89330389D01*
X111943247Y-89510473D01*
X111825985Y-89583964D01*
X111696500Y-89527944D01*
X111663271Y-89419209D01*
X111654166Y-89288055D01*
X111699939Y-89129431D01*
X111823500Y-89090500D01*
X111950217Y-89133293D01*
G36*
X116410149Y-89040263D02*
G01*
X116437011Y-89173418D01*
X116435588Y-89192259D01*
X116449091Y-89404197D01*
X116483386Y-89513833D01*
X116490427Y-89613803D01*
X116355911Y-89652311D01*
X116344781Y-89653043D01*
X116186522Y-89650443D01*
X116133803Y-89631877D01*
X116126275Y-89532821D01*
X116118484Y-89337902D01*
X116118048Y-89323333D01*
X116137398Y-89121571D01*
X116228934Y-89034780D01*
X116281229Y-89022926D01*
X116410149Y-89040263D01*
X116410149Y-89040263D01*
G37*
X116410149Y-89040263D02*
X116437011Y-89173418D01*
X116435588Y-89192259D01*
X116449091Y-89404197D01*
X116483386Y-89513833D01*
X116490427Y-89613803D01*
X116355911Y-89652311D01*
X116344781Y-89653043D01*
X116186522Y-89650443D01*
X116133803Y-89631877D01*
X116126275Y-89532821D01*
X116118484Y-89337902D01*
X116118048Y-89323333D01*
X116137398Y-89121571D01*
X116228934Y-89034780D01*
X116281229Y-89022926D01*
X116410149Y-89040263D01*
G36*
X114904434Y-89039704D02*
G01*
X114951339Y-89171423D01*
X114956166Y-89293108D01*
X114921007Y-89484914D01*
X114838141Y-89623862D01*
X114741487Y-89670682D01*
X114677307Y-89615969D01*
X114651733Y-89496811D01*
X114631507Y-89290790D01*
X114630917Y-89281000D01*
X114639193Y-89088050D01*
X114712751Y-89013363D01*
X114785488Y-89005833D01*
X114904434Y-89039704D01*
X114904434Y-89039704D01*
G37*
X114904434Y-89039704D02*
X114951339Y-89171423D01*
X114956166Y-89293108D01*
X114921007Y-89484914D01*
X114838141Y-89623862D01*
X114741487Y-89670682D01*
X114677307Y-89615969D01*
X114651733Y-89496811D01*
X114631507Y-89290790D01*
X114630917Y-89281000D01*
X114639193Y-89088050D01*
X114712751Y-89013363D01*
X114785488Y-89005833D01*
X114904434Y-89039704D01*
G36*
X112409999Y-88958605D02*
G01*
X112460642Y-89096556D01*
X112477908Y-89294319D01*
X112462950Y-89579553D01*
X112385413Y-89709038D01*
X112378955Y-89711819D01*
X112244683Y-89722656D01*
X112212777Y-89705555D01*
X112181705Y-89596685D01*
X112163850Y-89383443D01*
X112162166Y-89288055D01*
X112176096Y-89051674D01*
X112228783Y-88943042D01*
X112311731Y-88921167D01*
X112409999Y-88958605D01*
X112409999Y-88958605D01*
G37*
X112409999Y-88958605D02*
X112460642Y-89096556D01*
X112477908Y-89294319D01*
X112462950Y-89579553D01*
X112385413Y-89709038D01*
X112378955Y-89711819D01*
X112244683Y-89722656D01*
X112212777Y-89705555D01*
X112181705Y-89596685D01*
X112163850Y-89383443D01*
X112162166Y-89288055D01*
X112176096Y-89051674D01*
X112228783Y-88943042D01*
X112311731Y-88921167D01*
X112409999Y-88958605D01*
G36*
X114374751Y-88771661D02*
G01*
X114422372Y-88855136D01*
X114443578Y-89038243D01*
X114448166Y-89330389D01*
X114440385Y-89647999D01*
X114412461Y-89828100D01*
X114357523Y-89901996D01*
X114321166Y-89908944D01*
X114201606Y-89905033D01*
X114183437Y-89901889D01*
X114175410Y-89820786D01*
X114164615Y-89614747D01*
X114153369Y-89328091D01*
X114153207Y-89323333D01*
X114147822Y-89018148D01*
X114163690Y-88845437D01*
X114209583Y-88768802D01*
X114290936Y-88751833D01*
X114374751Y-88771661D01*
X114374751Y-88771661D01*
G37*
X114374751Y-88771661D02*
X114422372Y-88855136D01*
X114443578Y-89038243D01*
X114448166Y-89330389D01*
X114440385Y-89647999D01*
X114412461Y-89828100D01*
X114357523Y-89901996D01*
X114321166Y-89908944D01*
X114201606Y-89905033D01*
X114183437Y-89901889D01*
X114175410Y-89820786D01*
X114164615Y-89614747D01*
X114153369Y-89328091D01*
X114153207Y-89323333D01*
X114147822Y-89018148D01*
X114163690Y-88845437D01*
X114209583Y-88768802D01*
X114290936Y-88751833D01*
X114374751Y-88771661D01*
G36*
X113430427Y-88783764D02*
G01*
X113440945Y-88815333D01*
X113465550Y-89111249D01*
X113465369Y-89415547D01*
X113443541Y-89678642D01*
X113403204Y-89850945D01*
X113372965Y-89889590D01*
X113239965Y-89867656D01*
X113208883Y-89833704D01*
X113171039Y-89676110D01*
X113155957Y-89382444D01*
X113164983Y-88984605D01*
X113169527Y-88900000D01*
X113229144Y-88793669D01*
X113341758Y-88746923D01*
X113430427Y-88783764D01*
X113430427Y-88783764D01*
G37*
X113430427Y-88783764D02*
X113440945Y-88815333D01*
X113465550Y-89111249D01*
X113465369Y-89415547D01*
X113443541Y-89678642D01*
X113403204Y-89850945D01*
X113372965Y-89889590D01*
X113239965Y-89867656D01*
X113208883Y-89833704D01*
X113171039Y-89676110D01*
X113155957Y-89382444D01*
X113164983Y-88984605D01*
X113169527Y-88900000D01*
X113229144Y-88793669D01*
X113341758Y-88746923D01*
X113430427Y-88783764D01*
G36*
X113857444Y-88433804D02*
G01*
X113939523Y-88525405D01*
X113946387Y-88561333D01*
X113950334Y-88741647D01*
X113952883Y-89025766D01*
X113953978Y-89359275D01*
X113953566Y-89687762D01*
X113951594Y-89956815D01*
X113948007Y-90112020D01*
X113947920Y-90113555D01*
X113880679Y-90222959D01*
X113756074Y-90241586D01*
X113663701Y-90156093D01*
X113663634Y-90155889D01*
X113654709Y-90044789D01*
X113650020Y-89811670D01*
X113649210Y-89503782D01*
X113651921Y-89168375D01*
X113657795Y-88852702D01*
X113666472Y-88604012D01*
X113676361Y-88476667D01*
X113743894Y-88409460D01*
X113857444Y-88433804D01*
X113857444Y-88433804D01*
G37*
X113857444Y-88433804D02*
X113939523Y-88525405D01*
X113946387Y-88561333D01*
X113950334Y-88741647D01*
X113952883Y-89025766D01*
X113953978Y-89359275D01*
X113953566Y-89687762D01*
X113951594Y-89956815D01*
X113948007Y-90112020D01*
X113947920Y-90113555D01*
X113880679Y-90222959D01*
X113756074Y-90241586D01*
X113663701Y-90156093D01*
X113663634Y-90155889D01*
X113654709Y-90044789D01*
X113650020Y-89811670D01*
X113649210Y-89503782D01*
X113651921Y-89168375D01*
X113657795Y-88852702D01*
X113666472Y-88604012D01*
X113676361Y-88476667D01*
X113743894Y-88409460D01*
X113857444Y-88433804D01*
G36*
X107207225Y-90863133D02*
G01*
X107540405Y-90870596D01*
X107839790Y-90880846D01*
X108050540Y-90892514D01*
X108103494Y-90898116D01*
X108236732Y-90940306D01*
X108382787Y-91011778D01*
X108487865Y-91081655D01*
X108498168Y-91119064D01*
X108489966Y-91119925D01*
X108470283Y-91172820D01*
X108508894Y-91234311D01*
X108548751Y-91368048D01*
X108574159Y-91627431D01*
X108585934Y-91970889D01*
X108584892Y-92356854D01*
X108571849Y-92743756D01*
X108547621Y-93090025D01*
X108513024Y-93354093D01*
X108468874Y-93494389D01*
X108464425Y-93499559D01*
X108329938Y-93562604D01*
X108087238Y-93621116D01*
X107877307Y-93651841D01*
X107389596Y-93704833D01*
X107405309Y-94403333D01*
X107410475Y-94745975D01*
X107401341Y-94953673D01*
X107369411Y-95060721D01*
X107306188Y-95101408D01*
X107230428Y-95109108D01*
X107005748Y-95120716D01*
X106764666Y-95136545D01*
X106489500Y-95156707D01*
X106485563Y-94346103D01*
X106482942Y-93959091D01*
X106478484Y-93459846D01*
X106472752Y-92905449D01*
X106467529Y-92457555D01*
X107402913Y-92457555D01*
X107403230Y-92724108D01*
X107411382Y-92907849D01*
X107412920Y-92921667D01*
X107489689Y-92978295D01*
X107547833Y-92985167D01*
X107613202Y-92953113D01*
X107652336Y-92836866D01*
X107670926Y-92606289D01*
X107674833Y-92312830D01*
X107658359Y-91916156D01*
X107611184Y-91655341D01*
X107536678Y-91541558D01*
X107451313Y-91571798D01*
X107434631Y-91665311D01*
X107420048Y-91877728D01*
X107408997Y-92158619D01*
X107402913Y-92457555D01*
X106467529Y-92457555D01*
X106466309Y-92352985D01*
X106464397Y-92201969D01*
X106447166Y-90868438D01*
X106658833Y-90862045D01*
X106895088Y-90859826D01*
X107207225Y-90863133D01*
X107207225Y-90863133D01*
G37*
X107207225Y-90863133D02*
X107540405Y-90870596D01*
X107839790Y-90880846D01*
X108050540Y-90892514D01*
X108103494Y-90898116D01*
X108236732Y-90940306D01*
X108382787Y-91011778D01*
X108487865Y-91081655D01*
X108498168Y-91119064D01*
X108489966Y-91119925D01*
X108470283Y-91172820D01*
X108508894Y-91234311D01*
X108548751Y-91368048D01*
X108574159Y-91627431D01*
X108585934Y-91970889D01*
X108584892Y-92356854D01*
X108571849Y-92743756D01*
X108547621Y-93090025D01*
X108513024Y-93354093D01*
X108468874Y-93494389D01*
X108464425Y-93499559D01*
X108329938Y-93562604D01*
X108087238Y-93621116D01*
X107877307Y-93651841D01*
X107389596Y-93704833D01*
X107405309Y-94403333D01*
X107410475Y-94745975D01*
X107401341Y-94953673D01*
X107369411Y-95060721D01*
X107306188Y-95101408D01*
X107230428Y-95109108D01*
X107005748Y-95120716D01*
X106764666Y-95136545D01*
X106489500Y-95156707D01*
X106485563Y-94346103D01*
X106482942Y-93959091D01*
X106478484Y-93459846D01*
X106472752Y-92905449D01*
X106467529Y-92457555D01*
X107402913Y-92457555D01*
X107403230Y-92724108D01*
X107411382Y-92907849D01*
X107412920Y-92921667D01*
X107489689Y-92978295D01*
X107547833Y-92985167D01*
X107613202Y-92953113D01*
X107652336Y-92836866D01*
X107670926Y-92606289D01*
X107674833Y-92312830D01*
X107658359Y-91916156D01*
X107611184Y-91655341D01*
X107536678Y-91541558D01*
X107451313Y-91571798D01*
X107434631Y-91665311D01*
X107420048Y-91877728D01*
X107408997Y-92158619D01*
X107402913Y-92457555D01*
X106467529Y-92457555D01*
X106466309Y-92352985D01*
X106464397Y-92201969D01*
X106447166Y-90868438D01*
X106658833Y-90862045D01*
X106895088Y-90859826D01*
X107207225Y-90863133D01*
G36*
X104861491Y-90862956D02*
G01*
X105120589Y-90871228D01*
X105353772Y-90881792D01*
X105504236Y-90892651D01*
X105530971Y-90897791D01*
X105548435Y-90982786D01*
X105576423Y-91183392D01*
X105594820Y-91335194D01*
X105630579Y-91621045D01*
X105665307Y-91860924D01*
X105678178Y-91935146D01*
X105709301Y-92124595D01*
X105747927Y-92398151D01*
X105764677Y-92527812D01*
X105805512Y-92847340D01*
X105845952Y-93152663D01*
X105857818Y-93239167D01*
X105897189Y-93535744D01*
X105936205Y-93849734D01*
X105938050Y-93865301D01*
X105990266Y-94271547D01*
X106048406Y-94668708D01*
X106100850Y-94977444D01*
X106101238Y-94979459D01*
X106101703Y-95078272D01*
X106027899Y-95127715D01*
X105841443Y-95143721D01*
X105704297Y-95144226D01*
X105446162Y-95135905D01*
X105304043Y-95087765D01*
X105237204Y-94959480D01*
X105204910Y-94710722D01*
X105199110Y-94644101D01*
X105159597Y-94417684D01*
X105073982Y-94311564D01*
X104983375Y-94284799D01*
X104839607Y-94298356D01*
X104788364Y-94428489D01*
X104785583Y-94467364D01*
X104764192Y-94800039D01*
X104722723Y-94998734D01*
X104633363Y-95098630D01*
X104468303Y-95134903D01*
X104252303Y-95141919D01*
X104024235Y-95137528D01*
X103922544Y-95097711D01*
X103904536Y-94996478D01*
X103911046Y-94934185D01*
X103935326Y-94731186D01*
X103968835Y-94437570D01*
X103992052Y-94228434D01*
X104028374Y-93924423D01*
X104064480Y-93665351D01*
X104084058Y-93551101D01*
X104113174Y-93362463D01*
X104123783Y-93272043D01*
X104891489Y-93272043D01*
X104901089Y-93467338D01*
X104938440Y-93558419D01*
X104995179Y-93577833D01*
X105063560Y-93548603D01*
X105093049Y-93437884D01*
X105088950Y-93211130D01*
X105076414Y-93048667D01*
X105052872Y-92742246D01*
X105038381Y-92486923D01*
X105035909Y-92361763D01*
X105019271Y-92254240D01*
X104991521Y-92253590D01*
X104963122Y-92356443D01*
X104933487Y-92582838D01*
X104908359Y-92887124D01*
X104905111Y-92940493D01*
X104891489Y-93272043D01*
X104123783Y-93272043D01*
X104146056Y-93082222D01*
X104163811Y-92900500D01*
X104195231Y-92572383D01*
X104230672Y-92259369D01*
X104277699Y-91899501D01*
X104339509Y-91461167D01*
X104373614Y-91206689D01*
X104394786Y-91016163D01*
X104397660Y-90974333D01*
X104459673Y-90870939D01*
X104492777Y-90861282D01*
X104633286Y-90858975D01*
X104861491Y-90862956D01*
X104861491Y-90862956D01*
G37*
X104861491Y-90862956D02*
X105120589Y-90871228D01*
X105353772Y-90881792D01*
X105504236Y-90892651D01*
X105530971Y-90897791D01*
X105548435Y-90982786D01*
X105576423Y-91183392D01*
X105594820Y-91335194D01*
X105630579Y-91621045D01*
X105665307Y-91860924D01*
X105678178Y-91935146D01*
X105709301Y-92124595D01*
X105747927Y-92398151D01*
X105764677Y-92527812D01*
X105805512Y-92847340D01*
X105845952Y-93152663D01*
X105857818Y-93239167D01*
X105897189Y-93535744D01*
X105936205Y-93849734D01*
X105938050Y-93865301D01*
X105990266Y-94271547D01*
X106048406Y-94668708D01*
X106100850Y-94977444D01*
X106101238Y-94979459D01*
X106101703Y-95078272D01*
X106027899Y-95127715D01*
X105841443Y-95143721D01*
X105704297Y-95144226D01*
X105446162Y-95135905D01*
X105304043Y-95087765D01*
X105237204Y-94959480D01*
X105204910Y-94710722D01*
X105199110Y-94644101D01*
X105159597Y-94417684D01*
X105073982Y-94311564D01*
X104983375Y-94284799D01*
X104839607Y-94298356D01*
X104788364Y-94428489D01*
X104785583Y-94467364D01*
X104764192Y-94800039D01*
X104722723Y-94998734D01*
X104633363Y-95098630D01*
X104468303Y-95134903D01*
X104252303Y-95141919D01*
X104024235Y-95137528D01*
X103922544Y-95097711D01*
X103904536Y-94996478D01*
X103911046Y-94934185D01*
X103935326Y-94731186D01*
X103968835Y-94437570D01*
X103992052Y-94228434D01*
X104028374Y-93924423D01*
X104064480Y-93665351D01*
X104084058Y-93551101D01*
X104113174Y-93362463D01*
X104123783Y-93272043D01*
X104891489Y-93272043D01*
X104901089Y-93467338D01*
X104938440Y-93558419D01*
X104995179Y-93577833D01*
X105063560Y-93548603D01*
X105093049Y-93437884D01*
X105088950Y-93211130D01*
X105076414Y-93048667D01*
X105052872Y-92742246D01*
X105038381Y-92486923D01*
X105035909Y-92361763D01*
X105019271Y-92254240D01*
X104991521Y-92253590D01*
X104963122Y-92356443D01*
X104933487Y-92582838D01*
X104908359Y-92887124D01*
X104905111Y-92940493D01*
X104891489Y-93272043D01*
X104123783Y-93272043D01*
X104146056Y-93082222D01*
X104163811Y-92900500D01*
X104195231Y-92572383D01*
X104230672Y-92259369D01*
X104277699Y-91899501D01*
X104339509Y-91461167D01*
X104373614Y-91206689D01*
X104394786Y-91016163D01*
X104397660Y-90974333D01*
X104459673Y-90870939D01*
X104492777Y-90861282D01*
X104633286Y-90858975D01*
X104861491Y-90862956D01*
G36*
X103145659Y-90852772D02*
G01*
X103166333Y-90855166D01*
X103441500Y-90887026D01*
X103440203Y-92930930D01*
X103437357Y-93505452D01*
X103430057Y-94025221D01*
X103419031Y-94465757D01*
X103405006Y-94802575D01*
X103388710Y-95011194D01*
X103376703Y-95067336D01*
X103262446Y-95115642D01*
X103039939Y-95138664D01*
X102768830Y-95133121D01*
X102584487Y-95110906D01*
X102538592Y-95030281D01*
X102485260Y-94838126D01*
X102465772Y-94742000D01*
X102422678Y-94512186D01*
X102392935Y-94362686D01*
X102387632Y-94339833D01*
X102363119Y-94230163D01*
X102318499Y-94014017D01*
X102265836Y-93751166D01*
X102217193Y-93501385D01*
X102200058Y-93410407D01*
X102156209Y-93220119D01*
X102124984Y-93193389D01*
X102105970Y-93331812D01*
X102098752Y-93636983D01*
X102099039Y-93800513D01*
X102100075Y-94175797D01*
X102098753Y-94534677D01*
X102095363Y-94803071D01*
X102095082Y-94815476D01*
X102086833Y-95164119D01*
X101705833Y-95155243D01*
X101477167Y-95141278D01*
X101338335Y-95116201D01*
X101319618Y-95102933D01*
X101317560Y-95009733D01*
X101314531Y-94770657D01*
X101310764Y-94409155D01*
X101306490Y-93948680D01*
X101301942Y-93412684D01*
X101298451Y-92969811D01*
X101293982Y-92322152D01*
X101292665Y-91823883D01*
X101295945Y-91455067D01*
X101305264Y-91195769D01*
X101322066Y-91026053D01*
X101347794Y-90925983D01*
X101383891Y-90875625D01*
X101431801Y-90855041D01*
X101451833Y-90851147D01*
X101720824Y-90839550D01*
X101975228Y-90883277D01*
X102159500Y-90967784D01*
X102218723Y-91051971D01*
X102247471Y-91212032D01*
X102298872Y-91468198D01*
X102336046Y-91644638D01*
X102401955Y-91966841D01*
X102459571Y-92273748D01*
X102479637Y-92392500D01*
X102521606Y-92620227D01*
X102553190Y-92697756D01*
X102575275Y-92620691D01*
X102588745Y-92384636D01*
X102594484Y-91985194D01*
X102594833Y-91820152D01*
X102597189Y-91388586D01*
X102614614Y-91100124D01*
X102662641Y-90928539D01*
X102756801Y-90847604D01*
X102912630Y-90831091D01*
X103145659Y-90852772D01*
X103145659Y-90852772D01*
G37*
X103145659Y-90852772D02*
X103166333Y-90855166D01*
X103441500Y-90887026D01*
X103440203Y-92930930D01*
X103437357Y-93505452D01*
X103430057Y-94025221D01*
X103419031Y-94465757D01*
X103405006Y-94802575D01*
X103388710Y-95011194D01*
X103376703Y-95067336D01*
X103262446Y-95115642D01*
X103039939Y-95138664D01*
X102768830Y-95133121D01*
X102584487Y-95110906D01*
X102538592Y-95030281D01*
X102485260Y-94838126D01*
X102465772Y-94742000D01*
X102422678Y-94512186D01*
X102392935Y-94362686D01*
X102387632Y-94339833D01*
X102363119Y-94230163D01*
X102318499Y-94014017D01*
X102265836Y-93751166D01*
X102217193Y-93501385D01*
X102200058Y-93410407D01*
X102156209Y-93220119D01*
X102124984Y-93193389D01*
X102105970Y-93331812D01*
X102098752Y-93636983D01*
X102099039Y-93800513D01*
X102100075Y-94175797D01*
X102098753Y-94534677D01*
X102095363Y-94803071D01*
X102095082Y-94815476D01*
X102086833Y-95164119D01*
X101705833Y-95155243D01*
X101477167Y-95141278D01*
X101338335Y-95116201D01*
X101319618Y-95102933D01*
X101317560Y-95009733D01*
X101314531Y-94770657D01*
X101310764Y-94409155D01*
X101306490Y-93948680D01*
X101301942Y-93412684D01*
X101298451Y-92969811D01*
X101293982Y-92322152D01*
X101292665Y-91823883D01*
X101295945Y-91455067D01*
X101305264Y-91195769D01*
X101322066Y-91026053D01*
X101347794Y-90925983D01*
X101383891Y-90875625D01*
X101431801Y-90855041D01*
X101451833Y-90851147D01*
X101720824Y-90839550D01*
X101975228Y-90883277D01*
X102159500Y-90967784D01*
X102218723Y-91051971D01*
X102247471Y-91212032D01*
X102298872Y-91468198D01*
X102336046Y-91644638D01*
X102401955Y-91966841D01*
X102459571Y-92273748D01*
X102479637Y-92392500D01*
X102521606Y-92620227D01*
X102553190Y-92697756D01*
X102575275Y-92620691D01*
X102588745Y-92384636D01*
X102594484Y-91985194D01*
X102594833Y-91820152D01*
X102597189Y-91388586D01*
X102614614Y-91100124D01*
X102662641Y-90928539D01*
X102756801Y-90847604D01*
X102912630Y-90831091D01*
X103145659Y-90852772D01*
G36*
X100161631Y-90877618D02*
G01*
X100432860Y-90897242D01*
X100594683Y-90924865D01*
X100613658Y-90933296D01*
X100783037Y-91144300D01*
X100879829Y-91493725D01*
X100901500Y-91827707D01*
X100901500Y-92290047D01*
X100580733Y-92320637D01*
X100265648Y-92339441D01*
X100082305Y-92305409D01*
X99995702Y-92195206D01*
X99970838Y-91985495D01*
X99970166Y-91913569D01*
X99953420Y-91664266D01*
X99900123Y-91566228D01*
X99864333Y-91567000D01*
X99794418Y-91671419D01*
X99760151Y-91899330D01*
X99758500Y-91973174D01*
X99766244Y-92180076D01*
X99812467Y-92316853D01*
X99931650Y-92430309D01*
X100158277Y-92567252D01*
X100222807Y-92603407D01*
X100486451Y-92772836D01*
X100694644Y-92946593D01*
X100785261Y-93059608D01*
X100830980Y-93242606D01*
X100860461Y-93552139D01*
X100870165Y-93945887D01*
X100868944Y-94060691D01*
X100849494Y-94500081D01*
X100800342Y-94797717D01*
X100707265Y-94980473D01*
X100556041Y-95075218D01*
X100332449Y-95108825D01*
X100313817Y-95109579D01*
X100075635Y-95119403D01*
X99798459Y-95132475D01*
X99788651Y-95132971D01*
X99502031Y-95125688D01*
X99239969Y-95086371D01*
X99235896Y-95085328D01*
X98990559Y-94938524D01*
X98833944Y-94651130D01*
X98768024Y-94227982D01*
X98770812Y-93945088D01*
X98799125Y-93423343D01*
X99716397Y-93366167D01*
X99716282Y-93895333D01*
X99725287Y-94197199D01*
X99757549Y-94362228D01*
X99820686Y-94422196D01*
X99843166Y-94424500D01*
X99922812Y-94402919D01*
X99967230Y-94314446D01*
X99985227Y-94123491D01*
X99986247Y-93846305D01*
X99967318Y-93580205D01*
X99893800Y-93401611D01*
X99729798Y-93258979D01*
X99481993Y-93122213D01*
X99229291Y-92980960D01*
X99031838Y-92847122D01*
X98964501Y-92785952D01*
X98887390Y-92609222D01*
X98829426Y-92321551D01*
X98796798Y-91980834D01*
X98795697Y-91644966D01*
X98819507Y-91429885D01*
X98887259Y-91176718D01*
X98998391Y-91012322D01*
X99185585Y-90918547D01*
X99481525Y-90877243D01*
X99828047Y-90869796D01*
X100161631Y-90877618D01*
X100161631Y-90877618D01*
G37*
X100161631Y-90877618D02*
X100432860Y-90897242D01*
X100594683Y-90924865D01*
X100613658Y-90933296D01*
X100783037Y-91144300D01*
X100879829Y-91493725D01*
X100901500Y-91827707D01*
X100901500Y-92290047D01*
X100580733Y-92320637D01*
X100265648Y-92339441D01*
X100082305Y-92305409D01*
X99995702Y-92195206D01*
X99970838Y-91985495D01*
X99970166Y-91913569D01*
X99953420Y-91664266D01*
X99900123Y-91566228D01*
X99864333Y-91567000D01*
X99794418Y-91671419D01*
X99760151Y-91899330D01*
X99758500Y-91973174D01*
X99766244Y-92180076D01*
X99812467Y-92316853D01*
X99931650Y-92430309D01*
X100158277Y-92567252D01*
X100222807Y-92603407D01*
X100486451Y-92772836D01*
X100694644Y-92946593D01*
X100785261Y-93059608D01*
X100830980Y-93242606D01*
X100860461Y-93552139D01*
X100870165Y-93945887D01*
X100868944Y-94060691D01*
X100849494Y-94500081D01*
X100800342Y-94797717D01*
X100707265Y-94980473D01*
X100556041Y-95075218D01*
X100332449Y-95108825D01*
X100313817Y-95109579D01*
X100075635Y-95119403D01*
X99798459Y-95132475D01*
X99788651Y-95132971D01*
X99502031Y-95125688D01*
X99239969Y-95086371D01*
X99235896Y-95085328D01*
X98990559Y-94938524D01*
X98833944Y-94651130D01*
X98768024Y-94227982D01*
X98770812Y-93945088D01*
X98799125Y-93423343D01*
X99716397Y-93366167D01*
X99716282Y-93895333D01*
X99725287Y-94197199D01*
X99757549Y-94362228D01*
X99820686Y-94422196D01*
X99843166Y-94424500D01*
X99922812Y-94402919D01*
X99967230Y-94314446D01*
X99985227Y-94123491D01*
X99986247Y-93846305D01*
X99967318Y-93580205D01*
X99893800Y-93401611D01*
X99729798Y-93258979D01*
X99481993Y-93122213D01*
X99229291Y-92980960D01*
X99031838Y-92847122D01*
X98964501Y-92785952D01*
X98887390Y-92609222D01*
X98829426Y-92321551D01*
X98796798Y-91980834D01*
X98795697Y-91644966D01*
X98819507Y-91429885D01*
X98887259Y-91176718D01*
X98998391Y-91012322D01*
X99185585Y-90918547D01*
X99481525Y-90877243D01*
X99828047Y-90869796D01*
X100161631Y-90877618D01*
G36*
X101346000Y-95626132D02*
G01*
X101705833Y-95652167D01*
X101879384Y-96497005D01*
X101955036Y-96838277D01*
X102023146Y-97096884D01*
X102074968Y-97242308D01*
X102097747Y-97259005D01*
X102116562Y-97142342D01*
X102129478Y-96899086D01*
X102134712Y-96571928D01*
X102133921Y-96393000D01*
X102125286Y-95609833D01*
X102764166Y-95609833D01*
X102764166Y-99250500D01*
X102422842Y-99250500D01*
X102174456Y-99226344D01*
X102041057Y-99127610D01*
X101971994Y-98914901D01*
X101968722Y-98897278D01*
X101872878Y-98378871D01*
X101799946Y-98009966D01*
X101745756Y-97772911D01*
X101706136Y-97650053D01*
X101676917Y-97623742D01*
X101669718Y-97631772D01*
X101648543Y-97747922D01*
X101634201Y-97990268D01*
X101628717Y-98315739D01*
X101629730Y-98481714D01*
X101639900Y-99250500D01*
X100986166Y-99250500D01*
X100986166Y-95600097D01*
X101346000Y-95626132D01*
X101346000Y-95626132D01*
G37*
X101346000Y-95626132D02*
X101705833Y-95652167D01*
X101879384Y-96497005D01*
X101955036Y-96838277D01*
X102023146Y-97096884D01*
X102074968Y-97242308D01*
X102097747Y-97259005D01*
X102116562Y-97142342D01*
X102129478Y-96899086D01*
X102134712Y-96571928D01*
X102133921Y-96393000D01*
X102125286Y-95609833D01*
X102764166Y-95609833D01*
X102764166Y-99250500D01*
X102422842Y-99250500D01*
X102174456Y-99226344D01*
X102041057Y-99127610D01*
X101971994Y-98914901D01*
X101968722Y-98897278D01*
X101872878Y-98378871D01*
X101799946Y-98009966D01*
X101745756Y-97772911D01*
X101706136Y-97650053D01*
X101676917Y-97623742D01*
X101669718Y-97631772D01*
X101648543Y-97747922D01*
X101634201Y-97990268D01*
X101628717Y-98315739D01*
X101629730Y-98481714D01*
X101639900Y-99250500D01*
X100986166Y-99250500D01*
X100986166Y-95600097D01*
X101346000Y-95626132D01*
G36*
X100067461Y-95633041D02*
G01*
X100312370Y-95708935D01*
X100395836Y-95764033D01*
X100464520Y-95826263D01*
X100514182Y-95902037D01*
X100547744Y-96017308D01*
X100568132Y-96198031D01*
X100578270Y-96470159D01*
X100581082Y-96859646D01*
X100579493Y-97392447D01*
X100579486Y-97393866D01*
X100577009Y-97877586D01*
X100574352Y-98301419D01*
X100571735Y-98636787D01*
X100569376Y-98855112D01*
X100567771Y-98926952D01*
X100510425Y-99026292D01*
X100429785Y-99117452D01*
X100272003Y-99188553D01*
X100003908Y-99233656D01*
X99682768Y-99251074D01*
X99365850Y-99239119D01*
X99110420Y-99196106D01*
X99017666Y-99159051D01*
X98900895Y-99012836D01*
X98869500Y-98870290D01*
X98845900Y-98698498D01*
X98806000Y-98628582D01*
X98780257Y-98531678D01*
X98762507Y-98302146D01*
X98752548Y-97976497D01*
X98750174Y-97591236D01*
X98752499Y-97401683D01*
X99552303Y-97401683D01*
X99556154Y-97838534D01*
X99565594Y-98215614D01*
X99579339Y-98500132D01*
X99596105Y-98659297D01*
X99602285Y-98679060D01*
X99678736Y-98731788D01*
X99739025Y-98622508D01*
X99781642Y-98357911D01*
X99805076Y-97944686D01*
X99808475Y-97765492D01*
X99813452Y-97213665D01*
X99812970Y-96808723D01*
X99805125Y-96528253D01*
X99788013Y-96349845D01*
X99759732Y-96251087D01*
X99718378Y-96209567D01*
X99675740Y-96202500D01*
X99625480Y-96227206D01*
X99590471Y-96317279D01*
X99568250Y-96496650D01*
X99556354Y-96789249D01*
X99552320Y-97219007D01*
X99552303Y-97401683D01*
X98752499Y-97401683D01*
X98755183Y-97182873D01*
X98767371Y-96787916D01*
X98786534Y-96442872D01*
X98812469Y-96184250D01*
X98819893Y-96137896D01*
X98891269Y-95883924D01*
X99017264Y-95725078D01*
X99231905Y-95640970D01*
X99569218Y-95611211D01*
X99701220Y-95609833D01*
X100067461Y-95633041D01*
X100067461Y-95633041D01*
G37*
X100067461Y-95633041D02*
X100312370Y-95708935D01*
X100395836Y-95764033D01*
X100464520Y-95826263D01*
X100514182Y-95902037D01*
X100547744Y-96017308D01*
X100568132Y-96198031D01*
X100578270Y-96470159D01*
X100581082Y-96859646D01*
X100579493Y-97392447D01*
X100579486Y-97393866D01*
X100577009Y-97877586D01*
X100574352Y-98301419D01*
X100571735Y-98636787D01*
X100569376Y-98855112D01*
X100567771Y-98926952D01*
X100510425Y-99026292D01*
X100429785Y-99117452D01*
X100272003Y-99188553D01*
X100003908Y-99233656D01*
X99682768Y-99251074D01*
X99365850Y-99239119D01*
X99110420Y-99196106D01*
X99017666Y-99159051D01*
X98900895Y-99012836D01*
X98869500Y-98870290D01*
X98845900Y-98698498D01*
X98806000Y-98628582D01*
X98780257Y-98531678D01*
X98762507Y-98302146D01*
X98752548Y-97976497D01*
X98750174Y-97591236D01*
X98752499Y-97401683D01*
X99552303Y-97401683D01*
X99556154Y-97838534D01*
X99565594Y-98215614D01*
X99579339Y-98500132D01*
X99596105Y-98659297D01*
X99602285Y-98679060D01*
X99678736Y-98731788D01*
X99739025Y-98622508D01*
X99781642Y-98357911D01*
X99805076Y-97944686D01*
X99808475Y-97765492D01*
X99813452Y-97213665D01*
X99812970Y-96808723D01*
X99805125Y-96528253D01*
X99788013Y-96349845D01*
X99759732Y-96251087D01*
X99718378Y-96209567D01*
X99675740Y-96202500D01*
X99625480Y-96227206D01*
X99590471Y-96317279D01*
X99568250Y-96496650D01*
X99556354Y-96789249D01*
X99552320Y-97219007D01*
X99552303Y-97401683D01*
X98752499Y-97401683D01*
X98755183Y-97182873D01*
X98767371Y-96787916D01*
X98786534Y-96442872D01*
X98812469Y-96184250D01*
X98819893Y-96137896D01*
X98891269Y-95883924D01*
X99017264Y-95725078D01*
X99231905Y-95640970D01*
X99569218Y-95611211D01*
X99701220Y-95609833D01*
X100067461Y-95633041D01*
G36*
X107286485Y-95572521D02*
G01*
X107727940Y-95590106D01*
X108030676Y-95624804D01*
X108225195Y-95687545D01*
X108342000Y-95789262D01*
X108411591Y-95940884D01*
X108422986Y-95979813D01*
X108473076Y-96284908D01*
X108478501Y-96628056D01*
X108444408Y-96956568D01*
X108375943Y-97217755D01*
X108288977Y-97351871D01*
X108188503Y-97444394D01*
X108224443Y-97521173D01*
X108298279Y-97578992D01*
X108378261Y-97667149D01*
X108429007Y-97812381D01*
X108458194Y-98051897D01*
X108473495Y-98422906D01*
X108473647Y-98429214D01*
X108476339Y-98768202D01*
X108468381Y-99041448D01*
X108451438Y-99205576D01*
X108442868Y-99230486D01*
X108334752Y-99273071D01*
X108125381Y-99295088D01*
X108055833Y-99295990D01*
X107717166Y-99293482D01*
X107674833Y-98580215D01*
X107641979Y-98213377D01*
X107595892Y-97956869D01*
X107541786Y-97838407D01*
X107534533Y-97834624D01*
X107483314Y-97875172D01*
X107456769Y-98049332D01*
X107453040Y-98372356D01*
X107455587Y-98482895D01*
X107458866Y-98808891D01*
X107450627Y-99067895D01*
X107432627Y-99214709D01*
X107426553Y-99228942D01*
X107319187Y-99270363D01*
X107107726Y-99295675D01*
X107018666Y-99298698D01*
X106793010Y-99294023D01*
X106688754Y-99246666D01*
X106657998Y-99117483D01*
X106655111Y-99001585D01*
X106653259Y-98762077D01*
X106651838Y-98403271D01*
X106650861Y-97964068D01*
X106650343Y-97483366D01*
X106650299Y-97000065D01*
X106650627Y-96669104D01*
X107454653Y-96669104D01*
X107475639Y-96962384D01*
X107523141Y-97094108D01*
X107580928Y-97066572D01*
X107632772Y-96882070D01*
X107658091Y-96640345D01*
X107661425Y-96367280D01*
X107626386Y-96231568D01*
X107567724Y-96202500D01*
X107496183Y-96256272D01*
X107460889Y-96433987D01*
X107454653Y-96669104D01*
X106650627Y-96669104D01*
X106650743Y-96553064D01*
X106651690Y-96181261D01*
X106653154Y-95923557D01*
X106653927Y-95858710D01*
X106658833Y-95557253D01*
X107286485Y-95572521D01*
X107286485Y-95572521D01*
G37*
X107286485Y-95572521D02*
X107727940Y-95590106D01*
X108030676Y-95624804D01*
X108225195Y-95687545D01*
X108342000Y-95789262D01*
X108411591Y-95940884D01*
X108422986Y-95979813D01*
X108473076Y-96284908D01*
X108478501Y-96628056D01*
X108444408Y-96956568D01*
X108375943Y-97217755D01*
X108288977Y-97351871D01*
X108188503Y-97444394D01*
X108224443Y-97521173D01*
X108298279Y-97578992D01*
X108378261Y-97667149D01*
X108429007Y-97812381D01*
X108458194Y-98051897D01*
X108473495Y-98422906D01*
X108473647Y-98429214D01*
X108476339Y-98768202D01*
X108468381Y-99041448D01*
X108451438Y-99205576D01*
X108442868Y-99230486D01*
X108334752Y-99273071D01*
X108125381Y-99295088D01*
X108055833Y-99295990D01*
X107717166Y-99293482D01*
X107674833Y-98580215D01*
X107641979Y-98213377D01*
X107595892Y-97956869D01*
X107541786Y-97838407D01*
X107534533Y-97834624D01*
X107483314Y-97875172D01*
X107456769Y-98049332D01*
X107453040Y-98372356D01*
X107455587Y-98482895D01*
X107458866Y-98808891D01*
X107450627Y-99067895D01*
X107432627Y-99214709D01*
X107426553Y-99228942D01*
X107319187Y-99270363D01*
X107107726Y-99295675D01*
X107018666Y-99298698D01*
X106793010Y-99294023D01*
X106688754Y-99246666D01*
X106657998Y-99117483D01*
X106655111Y-99001585D01*
X106653259Y-98762077D01*
X106651838Y-98403271D01*
X106650861Y-97964068D01*
X106650343Y-97483366D01*
X106650299Y-97000065D01*
X106650627Y-96669104D01*
X107454653Y-96669104D01*
X107475639Y-96962384D01*
X107523141Y-97094108D01*
X107580928Y-97066572D01*
X107632772Y-96882070D01*
X107658091Y-96640345D01*
X107661425Y-96367280D01*
X107626386Y-96231568D01*
X107567724Y-96202500D01*
X107496183Y-96256272D01*
X107460889Y-96433987D01*
X107454653Y-96669104D01*
X106650627Y-96669104D01*
X106650743Y-96553064D01*
X106651690Y-96181261D01*
X106653154Y-95923557D01*
X106653927Y-95858710D01*
X106658833Y-95557253D01*
X107286485Y-95572521D01*
G36*
X106087380Y-95584032D02*
G01*
X106198975Y-95619314D01*
X106199741Y-95620472D01*
X106217866Y-95704958D01*
X106231382Y-95899771D01*
X106240489Y-96216432D01*
X106245385Y-96666461D01*
X106246270Y-97261379D01*
X106243341Y-98012704D01*
X106242750Y-98112792D01*
X106235500Y-99303417D01*
X105854500Y-99303417D01*
X105624704Y-99285452D01*
X105483411Y-99240026D01*
X105463351Y-99213458D01*
X105449158Y-98997456D01*
X105440252Y-98670295D01*
X105436203Y-98261693D01*
X105436577Y-97801371D01*
X105440943Y-97319047D01*
X105448870Y-96844440D01*
X105459926Y-96407270D01*
X105473679Y-96037257D01*
X105489697Y-95764118D01*
X105507548Y-95617575D01*
X105515833Y-95600862D01*
X105847151Y-95577523D01*
X106087380Y-95584032D01*
X106087380Y-95584032D01*
G37*
X106087380Y-95584032D02*
X106198975Y-95619314D01*
X106199741Y-95620472D01*
X106217866Y-95704958D01*
X106231382Y-95899771D01*
X106240489Y-96216432D01*
X106245385Y-96666461D01*
X106246270Y-97261379D01*
X106243341Y-98012704D01*
X106242750Y-98112792D01*
X106235500Y-99303417D01*
X105854500Y-99303417D01*
X105624704Y-99285452D01*
X105483411Y-99240026D01*
X105463351Y-99213458D01*
X105449158Y-98997456D01*
X105440252Y-98670295D01*
X105436203Y-98261693D01*
X105436577Y-97801371D01*
X105440943Y-97319047D01*
X105448870Y-96844440D01*
X105459926Y-96407270D01*
X105473679Y-96037257D01*
X105489697Y-95764118D01*
X105507548Y-95617575D01*
X105515833Y-95600862D01*
X105847151Y-95577523D01*
X106087380Y-95584032D01*
G36*
X104419534Y-95570815D02*
G01*
X104569603Y-95598303D01*
X104629358Y-95663531D01*
X104637416Y-95710920D01*
X104654103Y-95875426D01*
X104662932Y-95927333D01*
X104680890Y-96039597D01*
X104712276Y-96266212D01*
X104742668Y-96498833D01*
X104783230Y-96812303D01*
X104819729Y-97086820D01*
X104837954Y-97218500D01*
X104866874Y-97433072D01*
X104903380Y-97721132D01*
X104916968Y-97832333D01*
X104980899Y-98351433D01*
X105035018Y-98769476D01*
X105075983Y-99061202D01*
X105094232Y-99172494D01*
X105076528Y-99255148D01*
X104958977Y-99293562D01*
X104722123Y-99299961D01*
X104481733Y-99289769D01*
X104366729Y-99249414D01*
X104333165Y-99149369D01*
X104334168Y-99039300D01*
X104323112Y-98760683D01*
X104253846Y-98615401D01*
X104111793Y-98573171D01*
X104109774Y-98573167D01*
X104004217Y-98605036D01*
X103957757Y-98729201D01*
X103949500Y-98911833D01*
X103935351Y-99125780D01*
X103900025Y-99247166D01*
X103886000Y-99256978D01*
X103751819Y-99274234D01*
X103695500Y-99282369D01*
X103510751Y-99284405D01*
X103373800Y-99269452D01*
X103248306Y-99228820D01*
X103208413Y-99128817D01*
X103230022Y-98926561D01*
X103272624Y-98634301D01*
X103313778Y-98303649D01*
X103321376Y-98234500D01*
X103355523Y-97947402D01*
X103391298Y-97696803D01*
X103400692Y-97641833D01*
X103410433Y-97577831D01*
X104053184Y-97577831D01*
X104055657Y-97789640D01*
X104070858Y-97869329D01*
X104144444Y-97956177D01*
X104215321Y-97909935D01*
X104247932Y-97763629D01*
X104245178Y-97707419D01*
X104227686Y-97484153D01*
X104214305Y-97225555D01*
X104195079Y-97047279D01*
X104161663Y-96981024D01*
X104154787Y-96984990D01*
X104109347Y-97105986D01*
X104073279Y-97326774D01*
X104053184Y-97577831D01*
X103410433Y-97577831D01*
X103431344Y-97440440D01*
X103468874Y-97147294D01*
X103493461Y-96932315D01*
X103508776Y-96795167D01*
X104118833Y-96795167D01*
X104149811Y-96864857D01*
X104175277Y-96851611D01*
X104185410Y-96751131D01*
X104175277Y-96738722D01*
X104124943Y-96750344D01*
X104118833Y-96795167D01*
X103508776Y-96795167D01*
X103534710Y-96562943D01*
X103579412Y-96179826D01*
X103600256Y-96008199D01*
X103653166Y-95581936D01*
X104140000Y-95569972D01*
X104419534Y-95570815D01*
X104419534Y-95570815D01*
G37*
X104419534Y-95570815D02*
X104569603Y-95598303D01*
X104629358Y-95663531D01*
X104637416Y-95710920D01*
X104654103Y-95875426D01*
X104662932Y-95927333D01*
X104680890Y-96039597D01*
X104712276Y-96266212D01*
X104742668Y-96498833D01*
X104783230Y-96812303D01*
X104819729Y-97086820D01*
X104837954Y-97218500D01*
X104866874Y-97433072D01*
X104903380Y-97721132D01*
X104916968Y-97832333D01*
X104980899Y-98351433D01*
X105035018Y-98769476D01*
X105075983Y-99061202D01*
X105094232Y-99172494D01*
X105076528Y-99255148D01*
X104958977Y-99293562D01*
X104722123Y-99299961D01*
X104481733Y-99289769D01*
X104366729Y-99249414D01*
X104333165Y-99149369D01*
X104334168Y-99039300D01*
X104323112Y-98760683D01*
X104253846Y-98615401D01*
X104111793Y-98573171D01*
X104109774Y-98573167D01*
X104004217Y-98605036D01*
X103957757Y-98729201D01*
X103949500Y-98911833D01*
X103935351Y-99125780D01*
X103900025Y-99247166D01*
X103886000Y-99256978D01*
X103751819Y-99274234D01*
X103695500Y-99282369D01*
X103510751Y-99284405D01*
X103373800Y-99269452D01*
X103248306Y-99228820D01*
X103208413Y-99128817D01*
X103230022Y-98926561D01*
X103272624Y-98634301D01*
X103313778Y-98303649D01*
X103321376Y-98234500D01*
X103355523Y-97947402D01*
X103391298Y-97696803D01*
X103400692Y-97641833D01*
X103410433Y-97577831D01*
X104053184Y-97577831D01*
X104055657Y-97789640D01*
X104070858Y-97869329D01*
X104144444Y-97956177D01*
X104215321Y-97909935D01*
X104247932Y-97763629D01*
X104245178Y-97707419D01*
X104227686Y-97484153D01*
X104214305Y-97225555D01*
X104195079Y-97047279D01*
X104161663Y-96981024D01*
X104154787Y-96984990D01*
X104109347Y-97105986D01*
X104073279Y-97326774D01*
X104053184Y-97577831D01*
X103410433Y-97577831D01*
X103431344Y-97440440D01*
X103468874Y-97147294D01*
X103493461Y-96932315D01*
X103508776Y-96795167D01*
X104118833Y-96795167D01*
X104149811Y-96864857D01*
X104175277Y-96851611D01*
X104185410Y-96751131D01*
X104175277Y-96738722D01*
X104124943Y-96750344D01*
X104118833Y-96795167D01*
X103508776Y-96795167D01*
X103534710Y-96562943D01*
X103579412Y-96179826D01*
X103600256Y-96008199D01*
X103653166Y-95581936D01*
X104140000Y-95569972D01*
X104419534Y-95570815D01*
G36*
X108447577Y-99953968D02*
G01*
X108581565Y-100065555D01*
X108586975Y-100076000D01*
X108624845Y-100238362D01*
X108648437Y-100503893D01*
X108652770Y-100732167D01*
X108644922Y-101013859D01*
X108618220Y-101165947D01*
X108555940Y-101228144D01*
X108441363Y-101240165D01*
X108438881Y-101240167D01*
X108320817Y-101227930D01*
X108258228Y-101164012D01*
X108233166Y-101007603D01*
X108227899Y-100760396D01*
X108215958Y-100487151D01*
X108188025Y-100285943D01*
X108161666Y-100217119D01*
X108130032Y-100261010D01*
X108107284Y-100436656D01*
X108098179Y-100706529D01*
X108098166Y-100718055D01*
X108094133Y-101018966D01*
X108073390Y-101188210D01*
X108022975Y-101263413D01*
X107929924Y-101282201D01*
X107903694Y-101282500D01*
X107780087Y-101261619D01*
X107721690Y-101168522D01*
X107702913Y-100957531D01*
X107702118Y-100922667D01*
X107692590Y-100554752D01*
X107679467Y-100329789D01*
X107659388Y-100221397D01*
X107628996Y-100203194D01*
X107612191Y-100216252D01*
X107577773Y-100329406D01*
X107554656Y-100555661D01*
X107548691Y-100759530D01*
X107542402Y-101032919D01*
X107512728Y-101180078D01*
X107441578Y-101244029D01*
X107336166Y-101264961D01*
X107221369Y-101270197D01*
X107159578Y-101226996D01*
X107136532Y-101098317D01*
X107137975Y-100847121D01*
X107140608Y-100756961D01*
X107149940Y-100451319D01*
X107157800Y-100199232D01*
X107161774Y-100076609D01*
X107199481Y-99981943D01*
X107331158Y-99942533D01*
X107526666Y-99940356D01*
X107774180Y-99964547D01*
X107953995Y-100011186D01*
X107984795Y-100028525D01*
X108102796Y-100051385D01*
X108137959Y-100016611D01*
X108271836Y-99933967D01*
X108447577Y-99953968D01*
X108447577Y-99953968D01*
G37*
X108447577Y-99953968D02*
X108581565Y-100065555D01*
X108586975Y-100076000D01*
X108624845Y-100238362D01*
X108648437Y-100503893D01*
X108652770Y-100732167D01*
X108644922Y-101013859D01*
X108618220Y-101165947D01*
X108555940Y-101228144D01*
X108441363Y-101240165D01*
X108438881Y-101240167D01*
X108320817Y-101227930D01*
X108258228Y-101164012D01*
X108233166Y-101007603D01*
X108227899Y-100760396D01*
X108215958Y-100487151D01*
X108188025Y-100285943D01*
X108161666Y-100217119D01*
X108130032Y-100261010D01*
X108107284Y-100436656D01*
X108098179Y-100706529D01*
X108098166Y-100718055D01*
X108094133Y-101018966D01*
X108073390Y-101188210D01*
X108022975Y-101263413D01*
X107929924Y-101282201D01*
X107903694Y-101282500D01*
X107780087Y-101261619D01*
X107721690Y-101168522D01*
X107702913Y-100957531D01*
X107702118Y-100922667D01*
X107692590Y-100554752D01*
X107679467Y-100329789D01*
X107659388Y-100221397D01*
X107628996Y-100203194D01*
X107612191Y-100216252D01*
X107577773Y-100329406D01*
X107554656Y-100555661D01*
X107548691Y-100759530D01*
X107542402Y-101032919D01*
X107512728Y-101180078D01*
X107441578Y-101244029D01*
X107336166Y-101264961D01*
X107221369Y-101270197D01*
X107159578Y-101226996D01*
X107136532Y-101098317D01*
X107137975Y-100847121D01*
X107140608Y-100756961D01*
X107149940Y-100451319D01*
X107157800Y-100199232D01*
X107161774Y-100076609D01*
X107199481Y-99981943D01*
X107331158Y-99942533D01*
X107526666Y-99940356D01*
X107774180Y-99964547D01*
X107953995Y-100011186D01*
X107984795Y-100028525D01*
X108102796Y-100051385D01*
X108137959Y-100016611D01*
X108271836Y-99933967D01*
X108447577Y-99953968D01*
G36*
X106833732Y-100015479D02*
G01*
X106937631Y-100154824D01*
X106995127Y-100397239D01*
X107004590Y-100682488D01*
X106964386Y-100950334D01*
X106872884Y-101140538D01*
X106864452Y-101149452D01*
X106665009Y-101255566D01*
X106418905Y-101274672D01*
X106206609Y-101205786D01*
X106153052Y-101158174D01*
X106088442Y-100988040D01*
X106058439Y-100721241D01*
X106061551Y-100512824D01*
X106471455Y-100512824D01*
X106471805Y-100739528D01*
X106489721Y-100931356D01*
X106524721Y-101026408D01*
X106531833Y-101028500D01*
X106555653Y-100952161D01*
X106571009Y-100756380D01*
X106574166Y-100591055D01*
X106565849Y-100355802D01*
X106544470Y-100218370D01*
X106525387Y-100202390D01*
X106489155Y-100313145D01*
X106471455Y-100512824D01*
X106061551Y-100512824D01*
X106062836Y-100426823D01*
X106101423Y-100173838D01*
X106156404Y-100048121D01*
X106336462Y-99948296D01*
X106590278Y-99938530D01*
X106833732Y-100015479D01*
X106833732Y-100015479D01*
G37*
X106833732Y-100015479D02*
X106937631Y-100154824D01*
X106995127Y-100397239D01*
X107004590Y-100682488D01*
X106964386Y-100950334D01*
X106872884Y-101140538D01*
X106864452Y-101149452D01*
X106665009Y-101255566D01*
X106418905Y-101274672D01*
X106206609Y-101205786D01*
X106153052Y-101158174D01*
X106088442Y-100988040D01*
X106058439Y-100721241D01*
X106061551Y-100512824D01*
X106471455Y-100512824D01*
X106471805Y-100739528D01*
X106489721Y-100931356D01*
X106524721Y-101026408D01*
X106531833Y-101028500D01*
X106555653Y-100952161D01*
X106571009Y-100756380D01*
X106574166Y-100591055D01*
X106565849Y-100355802D01*
X106544470Y-100218370D01*
X106525387Y-100202390D01*
X106489155Y-100313145D01*
X106471455Y-100512824D01*
X106061551Y-100512824D01*
X106062836Y-100426823D01*
X106101423Y-100173838D01*
X106156404Y-100048121D01*
X106336462Y-99948296D01*
X106590278Y-99938530D01*
X106833732Y-100015479D01*
G36*
X105697698Y-99999370D02*
G01*
X105853906Y-100127574D01*
X105896833Y-100269479D01*
X105840105Y-100403593D01*
X105707343Y-100428325D01*
X105554679Y-100340153D01*
X105515047Y-100293440D01*
X105451966Y-100231515D01*
X105418717Y-100284827D01*
X105404671Y-100477467D01*
X105402970Y-100547440D01*
X105413900Y-100779839D01*
X105450660Y-100922473D01*
X105476590Y-100943833D01*
X105548978Y-100875210D01*
X105558166Y-100816833D01*
X105617832Y-100713981D01*
X105747275Y-100695642D01*
X105872159Y-100757416D01*
X105915587Y-100838000D01*
X105881948Y-101026686D01*
X105730067Y-101175323D01*
X105510243Y-101260247D01*
X105272771Y-101257794D01*
X105140078Y-101202867D01*
X105060798Y-101070947D01*
X105010530Y-100833777D01*
X104992947Y-100553533D01*
X105011721Y-100292390D01*
X105070525Y-100112525D01*
X105075282Y-100105840D01*
X105253116Y-99977494D01*
X105479012Y-99945674D01*
X105697698Y-99999370D01*
X105697698Y-99999370D01*
G37*
X105697698Y-99999370D02*
X105853906Y-100127574D01*
X105896833Y-100269479D01*
X105840105Y-100403593D01*
X105707343Y-100428325D01*
X105554679Y-100340153D01*
X105515047Y-100293440D01*
X105451966Y-100231515D01*
X105418717Y-100284827D01*
X105404671Y-100477467D01*
X105402970Y-100547440D01*
X105413900Y-100779839D01*
X105450660Y-100922473D01*
X105476590Y-100943833D01*
X105548978Y-100875210D01*
X105558166Y-100816833D01*
X105617832Y-100713981D01*
X105747275Y-100695642D01*
X105872159Y-100757416D01*
X105915587Y-100838000D01*
X105881948Y-101026686D01*
X105730067Y-101175323D01*
X105510243Y-101260247D01*
X105272771Y-101257794D01*
X105140078Y-101202867D01*
X105060798Y-101070947D01*
X105010530Y-100833777D01*
X104992947Y-100553533D01*
X105011721Y-100292390D01*
X105070525Y-100112525D01*
X105075282Y-100105840D01*
X105253116Y-99977494D01*
X105479012Y-99945674D01*
X105697698Y-99999370D01*
G36*
X104861632Y-101020064D02*
G01*
X104880833Y-101106958D01*
X104822958Y-101253759D01*
X104718991Y-101282500D01*
X104591190Y-101227826D01*
X104578823Y-101134333D01*
X104650295Y-100996807D01*
X104766645Y-100956716D01*
X104861632Y-101020064D01*
X104861632Y-101020064D01*
G37*
X104861632Y-101020064D02*
X104880833Y-101106958D01*
X104822958Y-101253759D01*
X104718991Y-101282500D01*
X104591190Y-101227826D01*
X104578823Y-101134333D01*
X104650295Y-100996807D01*
X104766645Y-100956716D01*
X104861632Y-101020064D01*
G36*
X110567061Y-88996599D02*
G01*
X110712578Y-89100614D01*
X110910517Y-89279971D01*
X110969720Y-89392194D01*
X110892166Y-89429167D01*
X110775363Y-89483815D01*
X110638166Y-89598500D01*
X110527941Y-89763472D01*
X110477007Y-90004953D01*
X110468833Y-90229096D01*
X110468833Y-90690358D01*
X110716752Y-90603933D01*
X110865813Y-90581531D01*
X111170517Y-90561074D01*
X111617182Y-90542949D01*
X112192123Y-90527545D01*
X112881658Y-90515248D01*
X113672104Y-90506448D01*
X114293918Y-90502504D01*
X117623166Y-90487500D01*
X117648972Y-90085333D01*
X117648375Y-89843204D01*
X117615399Y-89701909D01*
X117589834Y-89683166D01*
X117476553Y-89630152D01*
X117307734Y-89499745D01*
X117276498Y-89471500D01*
X117226379Y-89419390D01*
X117412080Y-89419390D01*
X117467944Y-89542055D01*
X117573223Y-89581080D01*
X117737107Y-89598064D01*
X117878001Y-89589206D01*
X117919500Y-89563091D01*
X117945704Y-89463114D01*
X117966702Y-89404675D01*
X117957061Y-89238482D01*
X117836982Y-89110467D01*
X117665154Y-89067226D01*
X117574953Y-89093647D01*
X117445243Y-89234792D01*
X117412080Y-89419390D01*
X117226379Y-89419390D01*
X117141578Y-89331223D01*
X117133808Y-89269021D01*
X117190127Y-89259833D01*
X117339136Y-89195631D01*
X117379645Y-89136056D01*
X117512303Y-88990062D01*
X117713237Y-88956369D01*
X117915729Y-89045047D01*
X117925567Y-89053658D01*
X118070374Y-89265766D01*
X118046337Y-89482105D01*
X117919500Y-89640833D01*
X117800847Y-89813592D01*
X117753086Y-90078249D01*
X117750166Y-90197383D01*
X117762922Y-90454121D01*
X117822759Y-90609376D01*
X117962037Y-90730359D01*
X118026581Y-90771523D01*
X118411235Y-91105319D01*
X118691777Y-91554495D01*
X118751575Y-91706634D01*
X118779500Y-91874576D01*
X118803075Y-92187901D01*
X118822311Y-92622714D01*
X118837221Y-93155120D01*
X118847816Y-93761226D01*
X118854107Y-94417136D01*
X118856106Y-95098956D01*
X118853825Y-95782792D01*
X118847275Y-96444748D01*
X118836467Y-97060932D01*
X118821414Y-97607447D01*
X118802127Y-98060400D01*
X118778617Y-98395895D01*
X118750896Y-98590040D01*
X118748239Y-98599615D01*
X118620549Y-98876761D01*
X118425207Y-99155924D01*
X118354970Y-99232718D01*
X118128229Y-99437934D01*
X117900152Y-99584862D01*
X117636950Y-99682437D01*
X117304830Y-99739593D01*
X116870000Y-99765264D01*
X116328148Y-99768607D01*
X115198001Y-99760619D01*
X112304250Y-100945808D01*
X111640666Y-101218212D01*
X111022734Y-101473066D01*
X110468919Y-101702663D01*
X109997689Y-101899298D01*
X109627509Y-102055264D01*
X109376846Y-102162854D01*
X109264166Y-102214363D01*
X109263482Y-102214749D01*
X109123808Y-102284035D01*
X109075442Y-102298500D01*
X109108568Y-102234401D01*
X109226733Y-102057439D01*
X109413910Y-101790621D01*
X109654073Y-101456951D01*
X109815127Y-101236693D01*
X110097407Y-100850918D01*
X110354431Y-100496238D01*
X110564498Y-100202849D01*
X110705908Y-100000951D01*
X110742909Y-99945586D01*
X110835499Y-99784894D01*
X110816206Y-99703583D01*
X110665250Y-99638936D01*
X110643856Y-99631560D01*
X110316174Y-99453104D01*
X109996368Y-99168669D01*
X109745251Y-98833119D01*
X109731405Y-98808381D01*
X109693237Y-98727021D01*
X109662023Y-98625175D01*
X109637072Y-98486161D01*
X109617695Y-98293298D01*
X109605418Y-98070163D01*
X113948251Y-98070163D01*
X114085438Y-98108259D01*
X114126624Y-98096917D01*
X114189454Y-98119399D01*
X114194166Y-98151888D01*
X114267261Y-98210842D01*
X114458603Y-98220770D01*
X114726276Y-98187613D01*
X115028365Y-98117317D01*
X115322953Y-98015823D01*
X115402945Y-97980488D01*
X115672539Y-97838482D01*
X115786768Y-97746938D01*
X115748726Y-97716396D01*
X115561508Y-97757398D01*
X115358333Y-97828538D01*
X114877074Y-97955645D01*
X114375627Y-98000321D01*
X114109493Y-98010327D01*
X113959048Y-98035780D01*
X113948251Y-98070163D01*
X109605418Y-98070163D01*
X109603202Y-98029902D01*
X109592902Y-97679291D01*
X109586105Y-97224783D01*
X109582122Y-96649697D01*
X109580262Y-95937349D01*
X109579833Y-95144167D01*
X109579833Y-94325274D01*
X109651895Y-94325274D01*
X109667107Y-94450982D01*
X109712585Y-94463278D01*
X109777676Y-94347691D01*
X109791500Y-94241799D01*
X109820344Y-94086695D01*
X109960833Y-94086695D01*
X109987147Y-94269889D01*
X110055691Y-94533111D01*
X110150865Y-94832247D01*
X110257071Y-95123181D01*
X110358711Y-95361799D01*
X110440185Y-95503984D01*
X110469464Y-95525167D01*
X110537796Y-95596443D01*
X110584643Y-95722394D01*
X110684625Y-95919447D01*
X110885996Y-96184124D01*
X111155127Y-96481848D01*
X111458389Y-96778046D01*
X111762156Y-97038142D01*
X112032798Y-97227561D01*
X112067964Y-97247471D01*
X112741106Y-97520574D01*
X113490319Y-97656760D01*
X114289494Y-97654145D01*
X115112524Y-97510843D01*
X115238859Y-97476401D01*
X115595867Y-97358272D01*
X115944107Y-97216979D01*
X116172438Y-97102654D01*
X116737553Y-96678779D01*
X117225022Y-96128246D01*
X117610660Y-95485068D01*
X117870284Y-94783256D01*
X117896067Y-94678500D01*
X117981013Y-94217885D01*
X118030278Y-93752680D01*
X118043701Y-93319484D01*
X118021119Y-92954892D01*
X117962367Y-92695504D01*
X117905318Y-92601234D01*
X117882692Y-92576834D01*
X117860424Y-92556700D01*
X117825420Y-92542672D01*
X117764587Y-92536594D01*
X117664830Y-92540306D01*
X117513056Y-92555652D01*
X117296170Y-92584474D01*
X117001079Y-92628613D01*
X116614688Y-92689911D01*
X116123904Y-92770212D01*
X115515633Y-92871356D01*
X114776781Y-92995187D01*
X113894253Y-93143545D01*
X113093500Y-93278187D01*
X112416076Y-93392600D01*
X111787924Y-93499746D01*
X111229589Y-93596039D01*
X110761617Y-93677895D01*
X110404554Y-93741726D01*
X110178944Y-93783947D01*
X110109000Y-93799080D01*
X109987884Y-93918155D01*
X109960833Y-94086695D01*
X109820344Y-94086695D01*
X109827231Y-94049664D01*
X109914441Y-93810673D01*
X109926244Y-93785139D01*
X110031498Y-93616591D01*
X110185025Y-93487421D01*
X110418745Y-93382240D01*
X110764575Y-93285663D01*
X111122549Y-93208445D01*
X111267468Y-93150778D01*
X111257708Y-93092276D01*
X111122111Y-93069833D01*
X110690381Y-93108237D01*
X110301771Y-93212901D01*
X110003178Y-93368006D01*
X109879003Y-93489183D01*
X109794549Y-93657367D01*
X109723374Y-93883053D01*
X109673237Y-94120826D01*
X109651895Y-94325274D01*
X109579833Y-94325274D01*
X109579833Y-92200952D01*
X116663326Y-92200952D01*
X116718374Y-92233998D01*
X116921941Y-92236413D01*
X117213003Y-92209724D01*
X117637481Y-92183041D01*
X117944510Y-92233935D01*
X118174765Y-92379404D01*
X118368925Y-92636446D01*
X118411287Y-92710475D01*
X118533700Y-92919165D01*
X118623785Y-93048806D01*
X118648489Y-93069833D01*
X118647161Y-93008416D01*
X118608161Y-92921667D01*
X118529395Y-92740026D01*
X118512166Y-92570787D01*
X118458943Y-92466884D01*
X118325614Y-92297598D01*
X118266530Y-92232120D01*
X118039932Y-92052935D01*
X117766363Y-91972135D01*
X117410704Y-91984959D01*
X117025658Y-92063884D01*
X116763515Y-92142504D01*
X116663326Y-92200952D01*
X109579833Y-92200952D01*
X109579833Y-91757500D01*
X109815323Y-91356890D01*
X109978076Y-91114101D01*
X110138258Y-90928867D01*
X110215512Y-90868136D01*
X110320816Y-90727413D01*
X110377640Y-90483038D01*
X110386462Y-90193462D01*
X110347756Y-89917137D01*
X110261998Y-89712514D01*
X110205662Y-89657790D01*
X110067541Y-89486963D01*
X110053917Y-89333368D01*
X110130166Y-89333368D01*
X110189720Y-89522057D01*
X110332296Y-89602893D01*
X110503769Y-89567342D01*
X110645907Y-89414702D01*
X110698400Y-89256276D01*
X110623846Y-89143894D01*
X110594857Y-89121650D01*
X110406065Y-89065674D01*
X110230475Y-89131216D01*
X110134159Y-89288172D01*
X110130166Y-89333368D01*
X110053917Y-89333368D01*
X110048193Y-89268841D01*
X110142882Y-89071974D01*
X110251596Y-88992966D01*
X110414109Y-88947427D01*
X110567061Y-88996599D01*
X110567061Y-88996599D01*
G37*
X110567061Y-88996599D02*
X110712578Y-89100614D01*
X110910517Y-89279971D01*
X110969720Y-89392194D01*
X110892166Y-89429167D01*
X110775363Y-89483815D01*
X110638166Y-89598500D01*
X110527941Y-89763472D01*
X110477007Y-90004953D01*
X110468833Y-90229096D01*
X110468833Y-90690358D01*
X110716752Y-90603933D01*
X110865813Y-90581531D01*
X111170517Y-90561074D01*
X111617182Y-90542949D01*
X112192123Y-90527545D01*
X112881658Y-90515248D01*
X113672104Y-90506448D01*
X114293918Y-90502504D01*
X117623166Y-90487500D01*
X117648972Y-90085333D01*
X117648375Y-89843204D01*
X117615399Y-89701909D01*
X117589834Y-89683166D01*
X117476553Y-89630152D01*
X117307734Y-89499745D01*
X117276498Y-89471500D01*
X117226379Y-89419390D01*
X117412080Y-89419390D01*
X117467944Y-89542055D01*
X117573223Y-89581080D01*
X117737107Y-89598064D01*
X117878001Y-89589206D01*
X117919500Y-89563091D01*
X117945704Y-89463114D01*
X117966702Y-89404675D01*
X117957061Y-89238482D01*
X117836982Y-89110467D01*
X117665154Y-89067226D01*
X117574953Y-89093647D01*
X117445243Y-89234792D01*
X117412080Y-89419390D01*
X117226379Y-89419390D01*
X117141578Y-89331223D01*
X117133808Y-89269021D01*
X117190127Y-89259833D01*
X117339136Y-89195631D01*
X117379645Y-89136056D01*
X117512303Y-88990062D01*
X117713237Y-88956369D01*
X117915729Y-89045047D01*
X117925567Y-89053658D01*
X118070374Y-89265766D01*
X118046337Y-89482105D01*
X117919500Y-89640833D01*
X117800847Y-89813592D01*
X117753086Y-90078249D01*
X117750166Y-90197383D01*
X117762922Y-90454121D01*
X117822759Y-90609376D01*
X117962037Y-90730359D01*
X118026581Y-90771523D01*
X118411235Y-91105319D01*
X118691777Y-91554495D01*
X118751575Y-91706634D01*
X118779500Y-91874576D01*
X118803075Y-92187901D01*
X118822311Y-92622714D01*
X118837221Y-93155120D01*
X118847816Y-93761226D01*
X118854107Y-94417136D01*
X118856106Y-95098956D01*
X118853825Y-95782792D01*
X118847275Y-96444748D01*
X118836467Y-97060932D01*
X118821414Y-97607447D01*
X118802127Y-98060400D01*
X118778617Y-98395895D01*
X118750896Y-98590040D01*
X118748239Y-98599615D01*
X118620549Y-98876761D01*
X118425207Y-99155924D01*
X118354970Y-99232718D01*
X118128229Y-99437934D01*
X117900152Y-99584862D01*
X117636950Y-99682437D01*
X117304830Y-99739593D01*
X116870000Y-99765264D01*
X116328148Y-99768607D01*
X115198001Y-99760619D01*
X112304250Y-100945808D01*
X111640666Y-101218212D01*
X111022734Y-101473066D01*
X110468919Y-101702663D01*
X109997689Y-101899298D01*
X109627509Y-102055264D01*
X109376846Y-102162854D01*
X109264166Y-102214363D01*
X109263482Y-102214749D01*
X109123808Y-102284035D01*
X109075442Y-102298500D01*
X109108568Y-102234401D01*
X109226733Y-102057439D01*
X109413910Y-101790621D01*
X109654073Y-101456951D01*
X109815127Y-101236693D01*
X110097407Y-100850918D01*
X110354431Y-100496238D01*
X110564498Y-100202849D01*
X110705908Y-100000951D01*
X110742909Y-99945586D01*
X110835499Y-99784894D01*
X110816206Y-99703583D01*
X110665250Y-99638936D01*
X110643856Y-99631560D01*
X110316174Y-99453104D01*
X109996368Y-99168669D01*
X109745251Y-98833119D01*
X109731405Y-98808381D01*
X109693237Y-98727021D01*
X109662023Y-98625175D01*
X109637072Y-98486161D01*
X109617695Y-98293298D01*
X109605418Y-98070163D01*
X113948251Y-98070163D01*
X114085438Y-98108259D01*
X114126624Y-98096917D01*
X114189454Y-98119399D01*
X114194166Y-98151888D01*
X114267261Y-98210842D01*
X114458603Y-98220770D01*
X114726276Y-98187613D01*
X115028365Y-98117317D01*
X115322953Y-98015823D01*
X115402945Y-97980488D01*
X115672539Y-97838482D01*
X115786768Y-97746938D01*
X115748726Y-97716396D01*
X115561508Y-97757398D01*
X115358333Y-97828538D01*
X114877074Y-97955645D01*
X114375627Y-98000321D01*
X114109493Y-98010327D01*
X113959048Y-98035780D01*
X113948251Y-98070163D01*
X109605418Y-98070163D01*
X109603202Y-98029902D01*
X109592902Y-97679291D01*
X109586105Y-97224783D01*
X109582122Y-96649697D01*
X109580262Y-95937349D01*
X109579833Y-95144167D01*
X109579833Y-94325274D01*
X109651895Y-94325274D01*
X109667107Y-94450982D01*
X109712585Y-94463278D01*
X109777676Y-94347691D01*
X109791500Y-94241799D01*
X109820344Y-94086695D01*
X109960833Y-94086695D01*
X109987147Y-94269889D01*
X110055691Y-94533111D01*
X110150865Y-94832247D01*
X110257071Y-95123181D01*
X110358711Y-95361799D01*
X110440185Y-95503984D01*
X110469464Y-95525167D01*
X110537796Y-95596443D01*
X110584643Y-95722394D01*
X110684625Y-95919447D01*
X110885996Y-96184124D01*
X111155127Y-96481848D01*
X111458389Y-96778046D01*
X111762156Y-97038142D01*
X112032798Y-97227561D01*
X112067964Y-97247471D01*
X112741106Y-97520574D01*
X113490319Y-97656760D01*
X114289494Y-97654145D01*
X115112524Y-97510843D01*
X115238859Y-97476401D01*
X115595867Y-97358272D01*
X115944107Y-97216979D01*
X116172438Y-97102654D01*
X116737553Y-96678779D01*
X117225022Y-96128246D01*
X117610660Y-95485068D01*
X117870284Y-94783256D01*
X117896067Y-94678500D01*
X117981013Y-94217885D01*
X118030278Y-93752680D01*
X118043701Y-93319484D01*
X118021119Y-92954892D01*
X117962367Y-92695504D01*
X117905318Y-92601234D01*
X117882692Y-92576834D01*
X117860424Y-92556700D01*
X117825420Y-92542672D01*
X117764587Y-92536594D01*
X117664830Y-92540306D01*
X117513056Y-92555652D01*
X117296170Y-92584474D01*
X117001079Y-92628613D01*
X116614688Y-92689911D01*
X116123904Y-92770212D01*
X115515633Y-92871356D01*
X114776781Y-92995187D01*
X113894253Y-93143545D01*
X113093500Y-93278187D01*
X112416076Y-93392600D01*
X111787924Y-93499746D01*
X111229589Y-93596039D01*
X110761617Y-93677895D01*
X110404554Y-93741726D01*
X110178944Y-93783947D01*
X110109000Y-93799080D01*
X109987884Y-93918155D01*
X109960833Y-94086695D01*
X109820344Y-94086695D01*
X109827231Y-94049664D01*
X109914441Y-93810673D01*
X109926244Y-93785139D01*
X110031498Y-93616591D01*
X110185025Y-93487421D01*
X110418745Y-93382240D01*
X110764575Y-93285663D01*
X111122549Y-93208445D01*
X111267468Y-93150778D01*
X111257708Y-93092276D01*
X111122111Y-93069833D01*
X110690381Y-93108237D01*
X110301771Y-93212901D01*
X110003178Y-93368006D01*
X109879003Y-93489183D01*
X109794549Y-93657367D01*
X109723374Y-93883053D01*
X109673237Y-94120826D01*
X109651895Y-94325274D01*
X109579833Y-94325274D01*
X109579833Y-92200952D01*
X116663326Y-92200952D01*
X116718374Y-92233998D01*
X116921941Y-92236413D01*
X117213003Y-92209724D01*
X117637481Y-92183041D01*
X117944510Y-92233935D01*
X118174765Y-92379404D01*
X118368925Y-92636446D01*
X118411287Y-92710475D01*
X118533700Y-92919165D01*
X118623785Y-93048806D01*
X118648489Y-93069833D01*
X118647161Y-93008416D01*
X118608161Y-92921667D01*
X118529395Y-92740026D01*
X118512166Y-92570787D01*
X118458943Y-92466884D01*
X118325614Y-92297598D01*
X118266530Y-92232120D01*
X118039932Y-92052935D01*
X117766363Y-91972135D01*
X117410704Y-91984959D01*
X117025658Y-92063884D01*
X116763515Y-92142504D01*
X116663326Y-92200952D01*
X109579833Y-92200952D01*
X109579833Y-91757500D01*
X109815323Y-91356890D01*
X109978076Y-91114101D01*
X110138258Y-90928867D01*
X110215512Y-90868136D01*
X110320816Y-90727413D01*
X110377640Y-90483038D01*
X110386462Y-90193462D01*
X110347756Y-89917137D01*
X110261998Y-89712514D01*
X110205662Y-89657790D01*
X110067541Y-89486963D01*
X110053917Y-89333368D01*
X110130166Y-89333368D01*
X110189720Y-89522057D01*
X110332296Y-89602893D01*
X110503769Y-89567342D01*
X110645907Y-89414702D01*
X110698400Y-89256276D01*
X110623846Y-89143894D01*
X110594857Y-89121650D01*
X110406065Y-89065674D01*
X110230475Y-89131216D01*
X110134159Y-89288172D01*
X110130166Y-89333368D01*
X110053917Y-89333368D01*
X110048193Y-89268841D01*
X110142882Y-89071974D01*
X110251596Y-88992966D01*
X110414109Y-88947427D01*
X110567061Y-88996599D01*
D13*
X161460000Y-91550000D03*
X160190000Y-91550000D03*
X158920000Y-91550000D03*
X157650000Y-91550000D03*
X156380000Y-91550000D03*
X155110000Y-91550000D03*
X153840000Y-91550000D03*
X152570000Y-91550000D03*
X151300000Y-91550000D03*
X150030000Y-91550000D03*
X148760000Y-91550000D03*
X147490000Y-91550000D03*
X146220000Y-91550000D03*
X144950000Y-91550000D03*
D14*
X143460000Y-88265000D03*
X143460000Y-86995000D03*
X143460000Y-85725000D03*
X143460000Y-84455000D03*
X143460000Y-83185000D03*
X143460000Y-81915000D03*
X143460000Y-80645000D03*
X143460000Y-79375000D03*
X143460000Y-78105000D03*
X143460000Y-76835000D03*
D13*
X144950000Y-73550000D03*
X146220000Y-73550000D03*
X147490000Y-73550000D03*
X148760000Y-73550000D03*
X150030000Y-73550000D03*
X151300000Y-73550000D03*
X152570000Y-73550000D03*
X153840000Y-73550000D03*
X155110000Y-73550000D03*
X156380000Y-73550000D03*
X157650000Y-73550000D03*
X158920000Y-73550000D03*
X160190000Y-73550000D03*
X161460000Y-73550000D03*
D15*
X153760000Y-82250000D03*
D16*
X154940000Y-66430000D03*
X154940000Y-58030000D03*
X154940000Y-65730000D03*
X154940000Y-62230000D03*
X154940000Y-65030000D03*
X154940000Y-64330000D03*
X154940000Y-63630000D03*
X154940000Y-62930000D03*
X154940000Y-59430000D03*
X154940000Y-61530000D03*
X154940000Y-60830000D03*
X154940000Y-58730000D03*
X154940000Y-60130000D03*
D17*
X151370000Y-102210000D03*
X155970000Y-102210000D03*
X153670000Y-102210000D03*
D18*
X153670000Y-95910000D03*
D19*
X145970000Y-70358000D03*
X148670000Y-70358000D03*
X155600000Y-70916800D03*
X158300000Y-70916800D03*
D20*
X151110000Y-52578000D03*
X148610000Y-52578000D03*
D21*
X141605000Y-51451000D03*
X142555000Y-53451000D03*
X140655000Y-53451000D03*
D22*
X164416000Y-71374000D03*
X167816000Y-71374000D03*
D19*
X166450000Y-53086000D03*
X163750000Y-53086000D03*
D23*
X141732000Y-91460000D03*
X141732000Y-93960000D03*
D24*
X141732000Y-73406000D03*
X141732000Y-70706000D03*
D22*
X161720000Y-52578000D03*
X158320000Y-52578000D03*
D25*
X144130000Y-98410000D03*
X144130000Y-99710000D03*
X145430000Y-98410000D03*
X145430000Y-99710000D03*
D26*
X143530000Y-97110000D03*
X144030000Y-97110000D03*
X144530000Y-97110000D03*
X145030000Y-97110000D03*
X145530000Y-97110000D03*
X146030000Y-97110000D03*
D27*
X146730000Y-97810000D03*
X146730000Y-98310000D03*
X146730000Y-98810000D03*
X146730000Y-99310000D03*
X146730000Y-99810000D03*
X146730000Y-100310000D03*
D26*
X146030000Y-101010000D03*
X145530000Y-101010000D03*
X145030000Y-101010000D03*
X144530000Y-101010000D03*
X144030000Y-101010000D03*
X143530000Y-101010000D03*
D27*
X142830000Y-100310000D03*
X142830000Y-99810000D03*
X142830000Y-99310000D03*
X142830000Y-98810000D03*
X142830000Y-98310000D03*
X142830000Y-97810000D03*
D21*
X144338000Y-53451000D03*
X146238000Y-53451000D03*
X145288000Y-51451000D03*
D19*
X156036000Y-52578000D03*
X153336000Y-52578000D03*
D28*
X164188140Y-100223320D03*
X164188140Y-99590860D03*
X164180520Y-98945700D03*
X164193220Y-98287840D03*
X164193220Y-97637600D03*
D29*
X164512000Y-101433000D03*
X164512000Y-96433000D03*
D30*
X167212000Y-102433000D03*
X167212000Y-95433000D03*
M02*
